%TF.GenerationSoftware,KiCad,Pcbnew,6.0.1-79c1e3a40b~116~ubuntu20.04.1*%
%TF.CreationDate,2022-02-07T15:26:06-03:00*%
%TF.ProjectId,v_simple,765f7369-6d70-46c6-952e-6b696361645f,rev?*%
%TF.SameCoordinates,Original*%
%TF.FileFunction,Copper,L1,Top*%
%TF.FilePolarity,Positive*%
%FSLAX46Y46*%
G04 Gerber Fmt 4.6, Leading zero omitted, Abs format (unit mm)*
G04 Created by KiCad (PCBNEW 6.0.1-79c1e3a40b~116~ubuntu20.04.1) date 2022-02-07 15:26:06*
%MOMM*%
%LPD*%
G01*
G04 APERTURE LIST*
G04 Aperture macros list*
%AMRoundRect*
0 Rectangle with rounded corners*
0 $1 Rounding radius*
0 $2 $3 $4 $5 $6 $7 $8 $9 X,Y pos of 4 corners*
0 Add a 4 corners polygon primitive as box body*
4,1,4,$2,$3,$4,$5,$6,$7,$8,$9,$2,$3,0*
0 Add four circle primitives for the rounded corners*
1,1,$1+$1,$2,$3*
1,1,$1+$1,$4,$5*
1,1,$1+$1,$6,$7*
1,1,$1+$1,$8,$9*
0 Add four rect primitives between the rounded corners*
20,1,$1+$1,$2,$3,$4,$5,0*
20,1,$1+$1,$4,$5,$6,$7,0*
20,1,$1+$1,$6,$7,$8,$9,0*
20,1,$1+$1,$8,$9,$2,$3,0*%
G04 Aperture macros list end*
%TA.AperFunction,Profile*%
%ADD10C,0.100000*%
%TD*%
%TA.AperFunction,ComponentPad*%
%ADD11O,1.950000X1.700000*%
%TD*%
%TA.AperFunction,ComponentPad*%
%ADD12RoundRect,0.250000X0.725000X-0.600000X0.725000X0.600000X-0.725000X0.600000X-0.725000X-0.600000X0*%
%TD*%
%TA.AperFunction,ComponentPad*%
%ADD13RoundRect,0.250000X0.600000X0.725000X-0.600000X0.725000X-0.600000X-0.725000X0.600000X-0.725000X0*%
%TD*%
%TA.AperFunction,ComponentPad*%
%ADD14O,1.700000X1.950000*%
%TD*%
%TA.AperFunction,ComponentPad*%
%ADD15O,1.800000X2.400000*%
%TD*%
%TA.AperFunction,ComponentPad*%
%ADD16RoundRect,0.250000X-0.600000X-0.725000X0.600000X-0.725000X0.600000X0.725000X-0.600000X0.725000X0*%
%TD*%
%TA.AperFunction,ComponentPad*%
%ADD17RoundRect,0.250000X-0.725000X0.600000X-0.725000X-0.600000X0.725000X-0.600000X0.725000X0.600000X0*%
%TD*%
%TA.AperFunction,ViaPad*%
%ADD18C,3.600000*%
%TD*%
%TA.AperFunction,Conductor*%
%ADD19C,0.250000*%
%TD*%
G04 APERTURE END LIST*
D10*
X86000000Y-58000000D02*
X114000000Y-58000000D01*
X114000000Y-100000000D02*
X86000000Y-100000000D01*
X116000000Y-60000000D02*
G75*
G03*
X114000000Y-58000000I-1999999J1D01*
G01*
X84000000Y-98000000D02*
X84000000Y-60000000D01*
X116000000Y-98000000D02*
X116000000Y-60000000D01*
X84000000Y-98000000D02*
G75*
G03*
X86000000Y-100000000I1999999J-1D01*
G01*
X114000000Y-100000000D02*
G75*
G03*
X116000000Y-98000000I1J1999999D01*
G01*
X86000000Y-58000000D02*
G75*
G03*
X84000000Y-60000000I-1J-1999999D01*
G01*
D11*
X94050000Y-76900000D03*
X94050000Y-79400000D03*
D12*
X94050000Y-81900000D03*
D13*
X103800000Y-96625000D03*
D14*
X101300000Y-96625000D03*
X98800000Y-96625000D03*
X96300000Y-96625000D03*
D15*
X85470000Y-86720000D03*
X88010000Y-86720000D03*
X90550000Y-86720000D03*
X93090000Y-86720000D03*
X95630000Y-86720000D03*
X98170000Y-86720000D03*
X100710000Y-86720000D03*
X103250000Y-86720000D03*
X105790000Y-86720000D03*
X108330000Y-86720000D03*
X110870000Y-86720000D03*
X113410000Y-86720000D03*
X113410000Y-71480000D03*
X110870000Y-71480000D03*
X108330000Y-71480000D03*
X105790000Y-71480000D03*
X103250000Y-71480000D03*
X100710000Y-71480000D03*
X98170000Y-71480000D03*
X95630000Y-71480000D03*
X93090000Y-71480000D03*
X90550000Y-71480000D03*
X88010000Y-71480000D03*
X85470000Y-71480000D03*
D16*
X97460000Y-62375000D03*
D14*
X99960000Y-62375000D03*
X102460000Y-62375000D03*
D17*
X105750000Y-75750000D03*
D11*
X105750000Y-78250000D03*
X105750000Y-80750000D03*
X105750000Y-83250000D03*
D18*
X88000000Y-96000000D03*
X112000000Y-62000000D03*
X88000000Y-62000000D03*
X112000000Y-96000000D03*
D19*
X100200000Y-66500000D02*
X100910000Y-67210000D01*
X97460000Y-62375000D02*
X97460000Y-63760000D01*
X97460000Y-63760000D02*
X100200000Y-66500000D01*
X98170000Y-71480000D02*
X98170000Y-79830000D01*
X98170000Y-79830000D02*
X96100000Y-81900000D01*
X96100000Y-81900000D02*
X94050000Y-81900000D01*
X98370000Y-71480000D02*
X98100000Y-71750000D01*
X103800000Y-96625000D02*
X103800000Y-95600000D01*
X103800000Y-95600000D02*
X104600000Y-94800000D01*
X104600000Y-94800000D02*
X109135718Y-94800000D01*
X109135718Y-94800000D02*
X115449520Y-88486198D01*
X115449520Y-88486198D02*
X115449520Y-77113802D01*
X115449520Y-77113802D02*
X111886198Y-73550480D01*
X111886198Y-73550480D02*
X106900000Y-73550480D01*
X106900000Y-73550480D02*
X105790000Y-72440480D01*
X105790000Y-72440480D02*
X105790000Y-71480000D01*
X103450000Y-71480000D02*
X103450000Y-73150000D01*
X115000000Y-88300000D02*
X109300000Y-94000000D01*
X103450000Y-73150000D02*
X104300000Y-74000000D01*
X109300000Y-94000000D02*
X103000000Y-94000000D01*
X104300000Y-74000000D02*
X111700000Y-74000000D01*
X111700000Y-74000000D02*
X115000000Y-77300000D01*
X103000000Y-94000000D02*
X101300000Y-95700000D01*
X115000000Y-77300000D02*
X115000000Y-88300000D01*
X101300000Y-95700000D02*
X101300000Y-96625000D01*
X105750000Y-80750000D02*
X100450000Y-80750000D01*
X100450000Y-80750000D02*
X95830000Y-85370000D01*
X95830000Y-85370000D02*
X95830000Y-86720000D01*
X100910000Y-67210000D02*
X100910000Y-71480000D01*
X98370000Y-84530000D02*
X98370000Y-86720000D01*
X99650000Y-83250000D02*
X98370000Y-84530000D01*
X105750000Y-83250000D02*
X99650000Y-83250000D01*
%TA.AperFunction,Conductor*%
G36*
X113970056Y-58509500D02*
G01*
X113972284Y-58509847D01*
X113984859Y-58511805D01*
X113984861Y-58511805D01*
X113993730Y-58513186D01*
X114002632Y-58512022D01*
X114002634Y-58512022D01*
X114008959Y-58511195D01*
X114034282Y-58510452D01*
X114198126Y-58522170D01*
X114203343Y-58522543D01*
X114221137Y-58525101D01*
X114411540Y-58566521D01*
X114428788Y-58571586D01*
X114611358Y-58639682D01*
X114627710Y-58647149D01*
X114693020Y-58682810D01*
X114798734Y-58740534D01*
X114813848Y-58750248D01*
X114923516Y-58832344D01*
X114969842Y-58867023D01*
X114983428Y-58878796D01*
X115121204Y-59016572D01*
X115132977Y-59030158D01*
X115249752Y-59186152D01*
X115259469Y-59201271D01*
X115352851Y-59372290D01*
X115360318Y-59388642D01*
X115428414Y-59571212D01*
X115433480Y-59588462D01*
X115474899Y-59778863D01*
X115477457Y-59796658D01*
X115489041Y-59958629D01*
X115488297Y-59976533D01*
X115488195Y-59984858D01*
X115486814Y-59993730D01*
X115487978Y-60002632D01*
X115487978Y-60002635D01*
X115490936Y-60025251D01*
X115492000Y-60041589D01*
X115492000Y-75956187D01*
X115471998Y-76024308D01*
X115418342Y-76070801D01*
X115348068Y-76080905D01*
X115283488Y-76051411D01*
X115276905Y-76045282D01*
X112389850Y-73158227D01*
X112382310Y-73149941D01*
X112378198Y-73143462D01*
X112328546Y-73096836D01*
X112325705Y-73094082D01*
X112305968Y-73074345D01*
X112302771Y-73071865D01*
X112293749Y-73064160D01*
X112261519Y-73033894D01*
X112254573Y-73030075D01*
X112254570Y-73030073D01*
X112243764Y-73024132D01*
X112227245Y-73013281D01*
X112226781Y-73012921D01*
X112211239Y-73000866D01*
X112203970Y-72997721D01*
X112203966Y-72997718D01*
X112170661Y-72983306D01*
X112160011Y-72978089D01*
X112121258Y-72956785D01*
X112101635Y-72951747D01*
X112082932Y-72945343D01*
X112071618Y-72940447D01*
X112071617Y-72940447D01*
X112064343Y-72937299D01*
X112056520Y-72936060D01*
X112056510Y-72936057D01*
X112020674Y-72930381D01*
X112009052Y-72927974D01*
X111986603Y-72922210D01*
X111925597Y-72885896D01*
X111893908Y-72822363D01*
X111901598Y-72751784D01*
X111920504Y-72720278D01*
X111965205Y-72665762D01*
X112034978Y-72580667D01*
X112037619Y-72576028D01*
X112038945Y-72574099D01*
X112094016Y-72529292D01*
X112164570Y-72521371D01*
X112228205Y-72552852D01*
X112247301Y-72575106D01*
X112308334Y-72665762D01*
X112473326Y-72838718D01*
X112665100Y-72981402D01*
X112669851Y-72983818D01*
X112669855Y-72983820D01*
X112873414Y-73087314D01*
X112878172Y-73089733D01*
X112992312Y-73125175D01*
X113101349Y-73159032D01*
X113101355Y-73159033D01*
X113106452Y-73160616D01*
X113233883Y-73177506D01*
X113338127Y-73191323D01*
X113338131Y-73191323D01*
X113343411Y-73192023D01*
X113348740Y-73191823D01*
X113348741Y-73191823D01*
X113446509Y-73188152D01*
X113582274Y-73183055D01*
X113682126Y-73162104D01*
X113810984Y-73135067D01*
X113810987Y-73135066D01*
X113816211Y-73133970D01*
X114038533Y-73046171D01*
X114242883Y-72922168D01*
X114357898Y-72822363D01*
X114419386Y-72769007D01*
X114419388Y-72769005D01*
X114423419Y-72765507D01*
X114426802Y-72761381D01*
X114426806Y-72761377D01*
X114571593Y-72584795D01*
X114574978Y-72580667D01*
X114578397Y-72574662D01*
X114690584Y-72377577D01*
X114693227Y-72372934D01*
X114774784Y-72148247D01*
X114798305Y-72018175D01*
X114816580Y-71917115D01*
X114816581Y-71917107D01*
X114817318Y-71913031D01*
X114818500Y-71887968D01*
X114818500Y-71119988D01*
X114803383Y-70941825D01*
X114743332Y-70710460D01*
X114645157Y-70492520D01*
X114511666Y-70294238D01*
X114346674Y-70121282D01*
X114154900Y-69978598D01*
X114150149Y-69976182D01*
X114150145Y-69976180D01*
X113946586Y-69872686D01*
X113946585Y-69872686D01*
X113941828Y-69870267D01*
X113797375Y-69825413D01*
X113718651Y-69800968D01*
X113718645Y-69800967D01*
X113713548Y-69799384D01*
X113586117Y-69782494D01*
X113481873Y-69768677D01*
X113481869Y-69768677D01*
X113476589Y-69767977D01*
X113471260Y-69768177D01*
X113471259Y-69768177D01*
X113373491Y-69771848D01*
X113237726Y-69776945D01*
X113150816Y-69795181D01*
X113009016Y-69824933D01*
X113009013Y-69824934D01*
X113003789Y-69826030D01*
X112781467Y-69913829D01*
X112577117Y-70037832D01*
X112396581Y-70194493D01*
X112393198Y-70198619D01*
X112393194Y-70198623D01*
X112248409Y-70375202D01*
X112245022Y-70379333D01*
X112242383Y-70383969D01*
X112241055Y-70385901D01*
X112185984Y-70430708D01*
X112115430Y-70438629D01*
X112051795Y-70407148D01*
X112032699Y-70384894D01*
X111974646Y-70298665D01*
X111971666Y-70294238D01*
X111806674Y-70121282D01*
X111614900Y-69978598D01*
X111610149Y-69976182D01*
X111610145Y-69976180D01*
X111406586Y-69872686D01*
X111406585Y-69872686D01*
X111401828Y-69870267D01*
X111257375Y-69825413D01*
X111178651Y-69800968D01*
X111178645Y-69800967D01*
X111173548Y-69799384D01*
X111046117Y-69782494D01*
X110941873Y-69768677D01*
X110941869Y-69768677D01*
X110936589Y-69767977D01*
X110931260Y-69768177D01*
X110931259Y-69768177D01*
X110833491Y-69771848D01*
X110697726Y-69776945D01*
X110610816Y-69795181D01*
X110469016Y-69824933D01*
X110469013Y-69824934D01*
X110463789Y-69826030D01*
X110241467Y-69913829D01*
X110037117Y-70037832D01*
X109856581Y-70194493D01*
X109853198Y-70198619D01*
X109853194Y-70198623D01*
X109708409Y-70375202D01*
X109705022Y-70379333D01*
X109702383Y-70383969D01*
X109701055Y-70385901D01*
X109645984Y-70430708D01*
X109575430Y-70438629D01*
X109511795Y-70407148D01*
X109492699Y-70384894D01*
X109434646Y-70298665D01*
X109431666Y-70294238D01*
X109266674Y-70121282D01*
X109074900Y-69978598D01*
X109070149Y-69976182D01*
X109070145Y-69976180D01*
X108866586Y-69872686D01*
X108866585Y-69872686D01*
X108861828Y-69870267D01*
X108717375Y-69825413D01*
X108638651Y-69800968D01*
X108638645Y-69800967D01*
X108633548Y-69799384D01*
X108506117Y-69782494D01*
X108401873Y-69768677D01*
X108401869Y-69768677D01*
X108396589Y-69767977D01*
X108391260Y-69768177D01*
X108391259Y-69768177D01*
X108293491Y-69771848D01*
X108157726Y-69776945D01*
X108070816Y-69795181D01*
X107929016Y-69824933D01*
X107929013Y-69824934D01*
X107923789Y-69826030D01*
X107701467Y-69913829D01*
X107497117Y-70037832D01*
X107316581Y-70194493D01*
X107313198Y-70198619D01*
X107313194Y-70198623D01*
X107168409Y-70375202D01*
X107165022Y-70379333D01*
X107162383Y-70383969D01*
X107161055Y-70385901D01*
X107105984Y-70430708D01*
X107035430Y-70438629D01*
X106971795Y-70407148D01*
X106952699Y-70384894D01*
X106894646Y-70298665D01*
X106891666Y-70294238D01*
X106726674Y-70121282D01*
X106534900Y-69978598D01*
X106530149Y-69976182D01*
X106530145Y-69976180D01*
X106326586Y-69872686D01*
X106326585Y-69872686D01*
X106321828Y-69870267D01*
X106177375Y-69825413D01*
X106098651Y-69800968D01*
X106098645Y-69800967D01*
X106093548Y-69799384D01*
X105966117Y-69782494D01*
X105861873Y-69768677D01*
X105861869Y-69768677D01*
X105856589Y-69767977D01*
X105851260Y-69768177D01*
X105851259Y-69768177D01*
X105753491Y-69771848D01*
X105617726Y-69776945D01*
X105530816Y-69795181D01*
X105389016Y-69824933D01*
X105389013Y-69824934D01*
X105383789Y-69826030D01*
X105161467Y-69913829D01*
X104957117Y-70037832D01*
X104776581Y-70194493D01*
X104773198Y-70198619D01*
X104773194Y-70198623D01*
X104628409Y-70375202D01*
X104625022Y-70379333D01*
X104622383Y-70383969D01*
X104621055Y-70385901D01*
X104565984Y-70430708D01*
X104495430Y-70438629D01*
X104431795Y-70407148D01*
X104412699Y-70384894D01*
X104354646Y-70298665D01*
X104351666Y-70294238D01*
X104186674Y-70121282D01*
X103994900Y-69978598D01*
X103990149Y-69976182D01*
X103990145Y-69976180D01*
X103786586Y-69872686D01*
X103786585Y-69872686D01*
X103781828Y-69870267D01*
X103637375Y-69825413D01*
X103558651Y-69800968D01*
X103558645Y-69800967D01*
X103553548Y-69799384D01*
X103426117Y-69782494D01*
X103321873Y-69768677D01*
X103321869Y-69768677D01*
X103316589Y-69767977D01*
X103311260Y-69768177D01*
X103311259Y-69768177D01*
X103213491Y-69771848D01*
X103077726Y-69776945D01*
X102990816Y-69795181D01*
X102849016Y-69824933D01*
X102849013Y-69824934D01*
X102843789Y-69826030D01*
X102621467Y-69913829D01*
X102417117Y-70037832D01*
X102236581Y-70194493D01*
X102233198Y-70198619D01*
X102233194Y-70198623D01*
X102088409Y-70375202D01*
X102085022Y-70379333D01*
X102082383Y-70383969D01*
X102081055Y-70385901D01*
X102025984Y-70430708D01*
X101955430Y-70438629D01*
X101891795Y-70407148D01*
X101872699Y-70384894D01*
X101814646Y-70298665D01*
X101811666Y-70294238D01*
X101646674Y-70121282D01*
X101594287Y-70082305D01*
X101551574Y-70025595D01*
X101543500Y-69981216D01*
X101543500Y-67288768D01*
X101544027Y-67277585D01*
X101545702Y-67270092D01*
X101543562Y-67202001D01*
X101543500Y-67198044D01*
X101543500Y-67170144D01*
X101542996Y-67166153D01*
X101542063Y-67154311D01*
X101540923Y-67118036D01*
X101540674Y-67110111D01*
X101535021Y-67090652D01*
X101531012Y-67071293D01*
X101530846Y-67069983D01*
X101528474Y-67051203D01*
X101525558Y-67043837D01*
X101525556Y-67043831D01*
X101512200Y-67010098D01*
X101508355Y-66998868D01*
X101498230Y-66964017D01*
X101498230Y-66964016D01*
X101496019Y-66956407D01*
X101485705Y-66938966D01*
X101477008Y-66921213D01*
X101472472Y-66909758D01*
X101469552Y-66902383D01*
X101443563Y-66866612D01*
X101437047Y-66856692D01*
X101418578Y-66825463D01*
X101414542Y-66818638D01*
X101400221Y-66804317D01*
X101387380Y-66789283D01*
X101380132Y-66779307D01*
X101375472Y-66772893D01*
X101341407Y-66744712D01*
X101332626Y-66736722D01*
X100619770Y-66023865D01*
X98498624Y-63902719D01*
X98464599Y-63840407D01*
X98469664Y-63769591D01*
X98512211Y-63712756D01*
X98521417Y-63706480D01*
X98528120Y-63702332D01*
X98534348Y-63698478D01*
X98659305Y-63573303D01*
X98749081Y-63427660D01*
X98801852Y-63380168D01*
X98871924Y-63368744D01*
X98937048Y-63397018D01*
X98947510Y-63406805D01*
X98989215Y-63450523D01*
X99056576Y-63521135D01*
X99241542Y-63658754D01*
X99246293Y-63661170D01*
X99246297Y-63661172D01*
X99309481Y-63693296D01*
X99447051Y-63763240D01*
X99452145Y-63764822D01*
X99452148Y-63764823D01*
X99617583Y-63816192D01*
X99667227Y-63831607D01*
X99672516Y-63832308D01*
X99890489Y-63861198D01*
X99890494Y-63861198D01*
X99895774Y-63861898D01*
X99901103Y-63861698D01*
X99901105Y-63861698D01*
X100010966Y-63857574D01*
X100126158Y-63853249D01*
X100148802Y-63848498D01*
X100346572Y-63807002D01*
X100351791Y-63805907D01*
X100356750Y-63803949D01*
X100356752Y-63803948D01*
X100561256Y-63723185D01*
X100561258Y-63723184D01*
X100566221Y-63721224D01*
X100571525Y-63718006D01*
X100758757Y-63604390D01*
X100758756Y-63604390D01*
X100763317Y-63601623D01*
X100803134Y-63567072D01*
X100933412Y-63454023D01*
X100933414Y-63454021D01*
X100937445Y-63450523D01*
X101013416Y-63357870D01*
X101080240Y-63276373D01*
X101080244Y-63276367D01*
X101083624Y-63272245D01*
X101096681Y-63249308D01*
X101101829Y-63240265D01*
X101152912Y-63190959D01*
X101222542Y-63177098D01*
X101288613Y-63203082D01*
X101315851Y-63232232D01*
X101394852Y-63349578D01*
X101401519Y-63357870D01*
X101553228Y-63516900D01*
X101561186Y-63523941D01*
X101737525Y-63655141D01*
X101746562Y-63660745D01*
X101942484Y-63760357D01*
X101952335Y-63764357D01*
X102162240Y-63829534D01*
X102172624Y-63831817D01*
X102188043Y-63833861D01*
X102202207Y-63831665D01*
X102206000Y-63818478D01*
X102206000Y-63816192D01*
X102714000Y-63816192D01*
X102717973Y-63829723D01*
X102728580Y-63831248D01*
X102846421Y-63806523D01*
X102856617Y-63803463D01*
X103061029Y-63722737D01*
X103070561Y-63718006D01*
X103258462Y-63603984D01*
X103267052Y-63597720D01*
X103433052Y-63453673D01*
X103440472Y-63446042D01*
X103579826Y-63276089D01*
X103585850Y-63267322D01*
X103694576Y-63076318D01*
X103699041Y-63066654D01*
X103774031Y-62860059D01*
X103776802Y-62849792D01*
X103813504Y-62646826D01*
X103812085Y-62633586D01*
X103797450Y-62629000D01*
X102732115Y-62629000D01*
X102716876Y-62633475D01*
X102715671Y-62634865D01*
X102714000Y-62642548D01*
X102714000Y-63816192D01*
X102206000Y-63816192D01*
X102206000Y-62102885D01*
X102714000Y-62102885D01*
X102718475Y-62118124D01*
X102719865Y-62119329D01*
X102727548Y-62121000D01*
X103793849Y-62121000D01*
X103808527Y-62116690D01*
X103810590Y-62104807D01*
X103803876Y-62025675D01*
X103802086Y-62015203D01*
X103746870Y-61802465D01*
X103743335Y-61792425D01*
X103653063Y-61592030D01*
X103647894Y-61582744D01*
X103525150Y-61400425D01*
X103518481Y-61392130D01*
X103366772Y-61233100D01*
X103358814Y-61226059D01*
X103182475Y-61094859D01*
X103173438Y-61089255D01*
X102977516Y-60989643D01*
X102967665Y-60985643D01*
X102757760Y-60920466D01*
X102747376Y-60918183D01*
X102731957Y-60916139D01*
X102717793Y-60918335D01*
X102714000Y-60931522D01*
X102714000Y-62102885D01*
X102206000Y-62102885D01*
X102206000Y-60933808D01*
X102202027Y-60920277D01*
X102191420Y-60918752D01*
X102073579Y-60943477D01*
X102063383Y-60946537D01*
X101858971Y-61027263D01*
X101849439Y-61031994D01*
X101661538Y-61146016D01*
X101652948Y-61152280D01*
X101486948Y-61296327D01*
X101479528Y-61303958D01*
X101340174Y-61473911D01*
X101334152Y-61482674D01*
X101318762Y-61509711D01*
X101267680Y-61559018D01*
X101198049Y-61572880D01*
X101131978Y-61546897D01*
X101104739Y-61517747D01*
X101068869Y-61464468D01*
X101022559Y-61395681D01*
X100963918Y-61334209D01*
X100935059Y-61303958D01*
X100863424Y-61228865D01*
X100678458Y-61091246D01*
X100673707Y-61088830D01*
X100673703Y-61088828D01*
X100555588Y-61028776D01*
X100472949Y-60986760D01*
X100467855Y-60985178D01*
X100467852Y-60985177D01*
X100257871Y-60919976D01*
X100252773Y-60918393D01*
X100247484Y-60917692D01*
X100029511Y-60888802D01*
X100029506Y-60888802D01*
X100024226Y-60888102D01*
X100018897Y-60888302D01*
X100018895Y-60888302D01*
X99909034Y-60892426D01*
X99793842Y-60896751D01*
X99788623Y-60897846D01*
X99766566Y-60902474D01*
X99568209Y-60944093D01*
X99563250Y-60946051D01*
X99563248Y-60946052D01*
X99358744Y-61026815D01*
X99358742Y-61026816D01*
X99353779Y-61028776D01*
X99349220Y-61031543D01*
X99349217Y-61031544D01*
X99254113Y-61089255D01*
X99156683Y-61148377D01*
X99152653Y-61151874D01*
X99059484Y-61232722D01*
X98982555Y-61299477D01*
X98953330Y-61335120D01*
X98894671Y-61375114D01*
X98823701Y-61377046D01*
X98762952Y-61340302D01*
X98748752Y-61321532D01*
X98662332Y-61181880D01*
X98658478Y-61175652D01*
X98533303Y-61050695D01*
X98502965Y-61031994D01*
X98388968Y-60961725D01*
X98388966Y-60961724D01*
X98382738Y-60957885D01*
X98269353Y-60920277D01*
X98221389Y-60904368D01*
X98221387Y-60904368D01*
X98214861Y-60902203D01*
X98208025Y-60901503D01*
X98208022Y-60901502D01*
X98164969Y-60897091D01*
X98110400Y-60891500D01*
X96809600Y-60891500D01*
X96806354Y-60891837D01*
X96806350Y-60891837D01*
X96710692Y-60901762D01*
X96710688Y-60901763D01*
X96703834Y-60902474D01*
X96697298Y-60904655D01*
X96697296Y-60904655D01*
X96565194Y-60948728D01*
X96536054Y-60958450D01*
X96385652Y-61051522D01*
X96260695Y-61176697D01*
X96256855Y-61182927D01*
X96256854Y-61182928D01*
X96186954Y-61296327D01*
X96167885Y-61327262D01*
X96112203Y-61495139D01*
X96111503Y-61501975D01*
X96111502Y-61501978D01*
X96109338Y-61523102D01*
X96101500Y-61599600D01*
X96101500Y-63150400D01*
X96101837Y-63153646D01*
X96101837Y-63153650D01*
X96109991Y-63232232D01*
X96112474Y-63256166D01*
X96114655Y-63262702D01*
X96114655Y-63262704D01*
X96146405Y-63357870D01*
X96168450Y-63423946D01*
X96261522Y-63574348D01*
X96386697Y-63699305D01*
X96392927Y-63703145D01*
X96392928Y-63703146D01*
X96486496Y-63760822D01*
X96537262Y-63792115D01*
X96572938Y-63803948D01*
X96698611Y-63845632D01*
X96698613Y-63845632D01*
X96705139Y-63847797D01*
X96711977Y-63848498D01*
X96711979Y-63848498D01*
X96731110Y-63850458D01*
X96741857Y-63851559D01*
X96807584Y-63878400D01*
X96846167Y-63930520D01*
X96857804Y-63959912D01*
X96861649Y-63971142D01*
X96873982Y-64013593D01*
X96878015Y-64020412D01*
X96878017Y-64020417D01*
X96884293Y-64031028D01*
X96892988Y-64048776D01*
X96900448Y-64067617D01*
X96905110Y-64074033D01*
X96905110Y-64074034D01*
X96926436Y-64103387D01*
X96932952Y-64113307D01*
X96955458Y-64151362D01*
X96969779Y-64165683D01*
X96982619Y-64180716D01*
X96994528Y-64197107D01*
X97000634Y-64202158D01*
X97028605Y-64225298D01*
X97037384Y-64233288D01*
X100239595Y-67435499D01*
X100273621Y-67497811D01*
X100276500Y-67524594D01*
X100276500Y-69751097D01*
X100256498Y-69819218D01*
X100196782Y-69868289D01*
X100189292Y-69871247D01*
X100081467Y-69913829D01*
X99877117Y-70037832D01*
X99696581Y-70194493D01*
X99693198Y-70198619D01*
X99693194Y-70198623D01*
X99548409Y-70375202D01*
X99545022Y-70379333D01*
X99542383Y-70383969D01*
X99541055Y-70385901D01*
X99485984Y-70430708D01*
X99415430Y-70438629D01*
X99351795Y-70407148D01*
X99332699Y-70384894D01*
X99274646Y-70298665D01*
X99271666Y-70294238D01*
X99106674Y-70121282D01*
X98914900Y-69978598D01*
X98910149Y-69976182D01*
X98910145Y-69976180D01*
X98706586Y-69872686D01*
X98706585Y-69872686D01*
X98701828Y-69870267D01*
X98557375Y-69825413D01*
X98478651Y-69800968D01*
X98478645Y-69800967D01*
X98473548Y-69799384D01*
X98346117Y-69782494D01*
X98241873Y-69768677D01*
X98241869Y-69768677D01*
X98236589Y-69767977D01*
X98231260Y-69768177D01*
X98231259Y-69768177D01*
X98133491Y-69771848D01*
X97997726Y-69776945D01*
X97910816Y-69795181D01*
X97769016Y-69824933D01*
X97769013Y-69824934D01*
X97763789Y-69826030D01*
X97541467Y-69913829D01*
X97337117Y-70037832D01*
X97156581Y-70194493D01*
X97153198Y-70198619D01*
X97153194Y-70198623D01*
X97008409Y-70375202D01*
X97005022Y-70379333D01*
X97002383Y-70383969D01*
X97001055Y-70385901D01*
X96945984Y-70430708D01*
X96875430Y-70438629D01*
X96811795Y-70407148D01*
X96792699Y-70384894D01*
X96734646Y-70298665D01*
X96731666Y-70294238D01*
X96566674Y-70121282D01*
X96374900Y-69978598D01*
X96370149Y-69976182D01*
X96370145Y-69976180D01*
X96166586Y-69872686D01*
X96166585Y-69872686D01*
X96161828Y-69870267D01*
X96017375Y-69825413D01*
X95938651Y-69800968D01*
X95938645Y-69800967D01*
X95933548Y-69799384D01*
X95806117Y-69782494D01*
X95701873Y-69768677D01*
X95701869Y-69768677D01*
X95696589Y-69767977D01*
X95691260Y-69768177D01*
X95691259Y-69768177D01*
X95593491Y-69771848D01*
X95457726Y-69776945D01*
X95370816Y-69795181D01*
X95229016Y-69824933D01*
X95229013Y-69824934D01*
X95223789Y-69826030D01*
X95001467Y-69913829D01*
X94797117Y-70037832D01*
X94616581Y-70194493D01*
X94613198Y-70198619D01*
X94613194Y-70198623D01*
X94468409Y-70375202D01*
X94465022Y-70379333D01*
X94462383Y-70383969D01*
X94461055Y-70385901D01*
X94405984Y-70430708D01*
X94335430Y-70438629D01*
X94271795Y-70407148D01*
X94252699Y-70384894D01*
X94194646Y-70298665D01*
X94191666Y-70294238D01*
X94026674Y-70121282D01*
X93834900Y-69978598D01*
X93830149Y-69976182D01*
X93830145Y-69976180D01*
X93626586Y-69872686D01*
X93626585Y-69872686D01*
X93621828Y-69870267D01*
X93477375Y-69825413D01*
X93398651Y-69800968D01*
X93398645Y-69800967D01*
X93393548Y-69799384D01*
X93266117Y-69782494D01*
X93161873Y-69768677D01*
X93161869Y-69768677D01*
X93156589Y-69767977D01*
X93151260Y-69768177D01*
X93151259Y-69768177D01*
X93053491Y-69771848D01*
X92917726Y-69776945D01*
X92830816Y-69795181D01*
X92689016Y-69824933D01*
X92689013Y-69824934D01*
X92683789Y-69826030D01*
X92461467Y-69913829D01*
X92257117Y-70037832D01*
X92076581Y-70194493D01*
X92073198Y-70198619D01*
X92073194Y-70198623D01*
X91928409Y-70375202D01*
X91925022Y-70379333D01*
X91922383Y-70383969D01*
X91921055Y-70385901D01*
X91865984Y-70430708D01*
X91795430Y-70438629D01*
X91731795Y-70407148D01*
X91712699Y-70384894D01*
X91654646Y-70298665D01*
X91651666Y-70294238D01*
X91486674Y-70121282D01*
X91294900Y-69978598D01*
X91290149Y-69976182D01*
X91290145Y-69976180D01*
X91086586Y-69872686D01*
X91086585Y-69872686D01*
X91081828Y-69870267D01*
X90937375Y-69825413D01*
X90858651Y-69800968D01*
X90858645Y-69800967D01*
X90853548Y-69799384D01*
X90726117Y-69782494D01*
X90621873Y-69768677D01*
X90621869Y-69768677D01*
X90616589Y-69767977D01*
X90611260Y-69768177D01*
X90611259Y-69768177D01*
X90513491Y-69771848D01*
X90377726Y-69776945D01*
X90290816Y-69795181D01*
X90149016Y-69824933D01*
X90149013Y-69824934D01*
X90143789Y-69826030D01*
X89921467Y-69913829D01*
X89717117Y-70037832D01*
X89536581Y-70194493D01*
X89533198Y-70198619D01*
X89533194Y-70198623D01*
X89431103Y-70323133D01*
X89385022Y-70379333D01*
X89382381Y-70383973D01*
X89380756Y-70386337D01*
X89325688Y-70431148D01*
X89255135Y-70439073D01*
X89191498Y-70407597D01*
X89172396Y-70385338D01*
X89114249Y-70298971D01*
X89107594Y-70290693D01*
X88950029Y-70125522D01*
X88942058Y-70118470D01*
X88758918Y-69982210D01*
X88749881Y-69976606D01*
X88546394Y-69873149D01*
X88536541Y-69869148D01*
X88318539Y-69801456D01*
X88308152Y-69799172D01*
X88281957Y-69795700D01*
X88267793Y-69797896D01*
X88264000Y-69811081D01*
X88264000Y-73147282D01*
X88267973Y-73160813D01*
X88278580Y-73162338D01*
X88410840Y-73134587D01*
X88421037Y-73131527D01*
X88633340Y-73047685D01*
X88642876Y-73042951D01*
X88838025Y-72924532D01*
X88846618Y-72918266D01*
X89019027Y-72768658D01*
X89026447Y-72761028D01*
X89171181Y-72584511D01*
X89178642Y-72573656D01*
X89233712Y-72528847D01*
X89304265Y-72520924D01*
X89367901Y-72552402D01*
X89387000Y-72574659D01*
X89448334Y-72665762D01*
X89613326Y-72838718D01*
X89805100Y-72981402D01*
X89809851Y-72983818D01*
X89809855Y-72983820D01*
X90013414Y-73087314D01*
X90018172Y-73089733D01*
X90132312Y-73125175D01*
X90241349Y-73159032D01*
X90241355Y-73159033D01*
X90246452Y-73160616D01*
X90373883Y-73177506D01*
X90478127Y-73191323D01*
X90478131Y-73191323D01*
X90483411Y-73192023D01*
X90488740Y-73191823D01*
X90488741Y-73191823D01*
X90586509Y-73188152D01*
X90722274Y-73183055D01*
X90822126Y-73162104D01*
X90950984Y-73135067D01*
X90950987Y-73135066D01*
X90956211Y-73133970D01*
X91178533Y-73046171D01*
X91382883Y-72922168D01*
X91497898Y-72822363D01*
X91559386Y-72769007D01*
X91559388Y-72769005D01*
X91563419Y-72765507D01*
X91566802Y-72761381D01*
X91566806Y-72761377D01*
X91711591Y-72584798D01*
X91711593Y-72584795D01*
X91714978Y-72580667D01*
X91717619Y-72576028D01*
X91718945Y-72574099D01*
X91774016Y-72529292D01*
X91844570Y-72521371D01*
X91908205Y-72552852D01*
X91927301Y-72575106D01*
X91988334Y-72665762D01*
X92153326Y-72838718D01*
X92345100Y-72981402D01*
X92349851Y-72983818D01*
X92349855Y-72983820D01*
X92553414Y-73087314D01*
X92558172Y-73089733D01*
X92672312Y-73125175D01*
X92781349Y-73159032D01*
X92781355Y-73159033D01*
X92786452Y-73160616D01*
X92913883Y-73177506D01*
X93018127Y-73191323D01*
X93018131Y-73191323D01*
X93023411Y-73192023D01*
X93028740Y-73191823D01*
X93028741Y-73191823D01*
X93126509Y-73188152D01*
X93262274Y-73183055D01*
X93362126Y-73162104D01*
X93490984Y-73135067D01*
X93490987Y-73135066D01*
X93496211Y-73133970D01*
X93718533Y-73046171D01*
X93922883Y-72922168D01*
X94037898Y-72822363D01*
X94099386Y-72769007D01*
X94099388Y-72769005D01*
X94103419Y-72765507D01*
X94106802Y-72761381D01*
X94106806Y-72761377D01*
X94251591Y-72584798D01*
X94251593Y-72584795D01*
X94254978Y-72580667D01*
X94257619Y-72576028D01*
X94258945Y-72574099D01*
X94314016Y-72529292D01*
X94384570Y-72521371D01*
X94448205Y-72552852D01*
X94467301Y-72575106D01*
X94528334Y-72665762D01*
X94693326Y-72838718D01*
X94885100Y-72981402D01*
X94889851Y-72983818D01*
X94889855Y-72983820D01*
X95093414Y-73087314D01*
X95098172Y-73089733D01*
X95212312Y-73125175D01*
X95321349Y-73159032D01*
X95321355Y-73159033D01*
X95326452Y-73160616D01*
X95453883Y-73177506D01*
X95558127Y-73191323D01*
X95558131Y-73191323D01*
X95563411Y-73192023D01*
X95568740Y-73191823D01*
X95568741Y-73191823D01*
X95666509Y-73188152D01*
X95802274Y-73183055D01*
X95902126Y-73162104D01*
X96030984Y-73135067D01*
X96030987Y-73135066D01*
X96036211Y-73133970D01*
X96258533Y-73046171D01*
X96462883Y-72922168D01*
X96577898Y-72822363D01*
X96639386Y-72769007D01*
X96639388Y-72769005D01*
X96643419Y-72765507D01*
X96646802Y-72761381D01*
X96646806Y-72761377D01*
X96791591Y-72584798D01*
X96791593Y-72584795D01*
X96794978Y-72580667D01*
X96797619Y-72576028D01*
X96798945Y-72574099D01*
X96854016Y-72529292D01*
X96924570Y-72521371D01*
X96988205Y-72552852D01*
X97007301Y-72575106D01*
X97068334Y-72665762D01*
X97233326Y-72838718D01*
X97425100Y-72981402D01*
X97429861Y-72983822D01*
X97429860Y-72983822D01*
X97467604Y-73003012D01*
X97519262Y-73051715D01*
X97536500Y-73115329D01*
X97536500Y-79515406D01*
X97516498Y-79583527D01*
X97499595Y-79604501D01*
X95874500Y-81229595D01*
X95812188Y-81263621D01*
X95785405Y-81266500D01*
X95648856Y-81266500D01*
X95580735Y-81246498D01*
X95534242Y-81192842D01*
X95523529Y-81153504D01*
X95522526Y-81143834D01*
X95466550Y-80976054D01*
X95373478Y-80825652D01*
X95248303Y-80700695D01*
X95102660Y-80610919D01*
X95055168Y-80558148D01*
X95043744Y-80488076D01*
X95072018Y-80422952D01*
X95081805Y-80412490D01*
X95170994Y-80327407D01*
X95196135Y-80303424D01*
X95213661Y-80279869D01*
X95310296Y-80149986D01*
X95333754Y-80118458D01*
X95338558Y-80109011D01*
X95418770Y-79951243D01*
X95438240Y-79912949D01*
X95441609Y-79902101D01*
X95505024Y-79697871D01*
X95506607Y-79692773D01*
X95515407Y-79626376D01*
X95536198Y-79469511D01*
X95536198Y-79469506D01*
X95536898Y-79464226D01*
X95528249Y-79233842D01*
X95480907Y-79008209D01*
X95396224Y-78793779D01*
X95374310Y-78757665D01*
X95279390Y-78601243D01*
X95276623Y-78596683D01*
X95225159Y-78537376D01*
X95129023Y-78426588D01*
X95129021Y-78426586D01*
X95125523Y-78422555D01*
X95083970Y-78388484D01*
X94951373Y-78279760D01*
X94951367Y-78279756D01*
X94947245Y-78276376D01*
X94942602Y-78273733D01*
X94915265Y-78258171D01*
X94865959Y-78207088D01*
X94852098Y-78137458D01*
X94878082Y-78071387D01*
X94907232Y-78044149D01*
X95024578Y-77965148D01*
X95032870Y-77958481D01*
X95191900Y-77806772D01*
X95198941Y-77798814D01*
X95330141Y-77622475D01*
X95335745Y-77613438D01*
X95435357Y-77417516D01*
X95439357Y-77407665D01*
X95504534Y-77197760D01*
X95506817Y-77187376D01*
X95508861Y-77171957D01*
X95506665Y-77157793D01*
X95493478Y-77154000D01*
X92608808Y-77154000D01*
X92595277Y-77157973D01*
X92593752Y-77168580D01*
X92618477Y-77286421D01*
X92621537Y-77296617D01*
X92702263Y-77501029D01*
X92706994Y-77510561D01*
X92821016Y-77698462D01*
X92827280Y-77707052D01*
X92971327Y-77873052D01*
X92978958Y-77880472D01*
X93148911Y-78019826D01*
X93157674Y-78025848D01*
X93184711Y-78041238D01*
X93234018Y-78092320D01*
X93247880Y-78161951D01*
X93221897Y-78228022D01*
X93192747Y-78255261D01*
X93188425Y-78258171D01*
X93070681Y-78337441D01*
X92903865Y-78496576D01*
X92900682Y-78500854D01*
X92884981Y-78521957D01*
X92766246Y-78681542D01*
X92661760Y-78887051D01*
X92660178Y-78892145D01*
X92660177Y-78892148D01*
X92611640Y-79048462D01*
X92593393Y-79107227D01*
X92592692Y-79112516D01*
X92565836Y-79315148D01*
X92563102Y-79335774D01*
X92571751Y-79566158D01*
X92619093Y-79791791D01*
X92621051Y-79796750D01*
X92621052Y-79796752D01*
X92678672Y-79942653D01*
X92703776Y-80006221D01*
X92706543Y-80010780D01*
X92706544Y-80010783D01*
X92779813Y-80131526D01*
X92823377Y-80203317D01*
X92826874Y-80207347D01*
X92962314Y-80363428D01*
X92974477Y-80377445D01*
X93010120Y-80406670D01*
X93050114Y-80465329D01*
X93052046Y-80536299D01*
X93015302Y-80597048D01*
X92996532Y-80611248D01*
X92865579Y-80692285D01*
X92850652Y-80701522D01*
X92725695Y-80826697D01*
X92632885Y-80977262D01*
X92577203Y-81145139D01*
X92566500Y-81249600D01*
X92566500Y-82550400D01*
X92566837Y-82553646D01*
X92566837Y-82553650D01*
X92576742Y-82649108D01*
X92577474Y-82656166D01*
X92633450Y-82823946D01*
X92726522Y-82974348D01*
X92851697Y-83099305D01*
X92857927Y-83103145D01*
X92857928Y-83103146D01*
X92995090Y-83187694D01*
X93002262Y-83192115D01*
X93082005Y-83218564D01*
X93163611Y-83245632D01*
X93163613Y-83245632D01*
X93170139Y-83247797D01*
X93176975Y-83248497D01*
X93176978Y-83248498D01*
X93220031Y-83252909D01*
X93274600Y-83258500D01*
X94825400Y-83258500D01*
X94828646Y-83258163D01*
X94828650Y-83258163D01*
X94924308Y-83248238D01*
X94924312Y-83248237D01*
X94931166Y-83247526D01*
X94937702Y-83245345D01*
X94937704Y-83245345D01*
X95069806Y-83201272D01*
X95098946Y-83191550D01*
X95249348Y-83098478D01*
X95374305Y-82973303D01*
X95445250Y-82858209D01*
X95463275Y-82828968D01*
X95463276Y-82828966D01*
X95467115Y-82822738D01*
X95522797Y-82654861D01*
X95523498Y-82648020D01*
X95523499Y-82648015D01*
X95523639Y-82646651D01*
X95523960Y-82645864D01*
X95524941Y-82641290D01*
X95525757Y-82641465D01*
X95550483Y-82580925D01*
X95608600Y-82540146D01*
X95648982Y-82533500D01*
X96021233Y-82533500D01*
X96032416Y-82534027D01*
X96039909Y-82535702D01*
X96047835Y-82535453D01*
X96047836Y-82535453D01*
X96107986Y-82533562D01*
X96111945Y-82533500D01*
X96139856Y-82533500D01*
X96143791Y-82533003D01*
X96143856Y-82532995D01*
X96155693Y-82532062D01*
X96187951Y-82531048D01*
X96191970Y-82530922D01*
X96199889Y-82530673D01*
X96219343Y-82525021D01*
X96238700Y-82521013D01*
X96250930Y-82519468D01*
X96250931Y-82519468D01*
X96258797Y-82518474D01*
X96266168Y-82515555D01*
X96266170Y-82515555D01*
X96299912Y-82502196D01*
X96311142Y-82498351D01*
X96345983Y-82488229D01*
X96345984Y-82488229D01*
X96353593Y-82486018D01*
X96360412Y-82481985D01*
X96360417Y-82481983D01*
X96371028Y-82475707D01*
X96388776Y-82467012D01*
X96407617Y-82459552D01*
X96443387Y-82433564D01*
X96453307Y-82427048D01*
X96484535Y-82408580D01*
X96484538Y-82408578D01*
X96491362Y-82404542D01*
X96505683Y-82390221D01*
X96520717Y-82377380D01*
X96530694Y-82370131D01*
X96537107Y-82365472D01*
X96565298Y-82331395D01*
X96573288Y-82322616D01*
X98562253Y-80333652D01*
X98570539Y-80326112D01*
X98577018Y-80322000D01*
X98623644Y-80272348D01*
X98626398Y-80269507D01*
X98646135Y-80249770D01*
X98648615Y-80246573D01*
X98656320Y-80237551D01*
X98686586Y-80205321D01*
X98690405Y-80198375D01*
X98690407Y-80198372D01*
X98696348Y-80187566D01*
X98707199Y-80171047D01*
X98709550Y-80168016D01*
X98719614Y-80155041D01*
X98722759Y-80147772D01*
X98722762Y-80147768D01*
X98737174Y-80114463D01*
X98742391Y-80103813D01*
X98763695Y-80065060D01*
X98768733Y-80045437D01*
X98775137Y-80026734D01*
X98780033Y-80015420D01*
X98780033Y-80015419D01*
X98783181Y-80008145D01*
X98784420Y-80000322D01*
X98784423Y-80000312D01*
X98790099Y-79964476D01*
X98792505Y-79952856D01*
X98801528Y-79917711D01*
X98801528Y-79917710D01*
X98803500Y-79910030D01*
X98803500Y-79889776D01*
X98805051Y-79870065D01*
X98806980Y-79857886D01*
X98808220Y-79850057D01*
X98804059Y-79806038D01*
X98803500Y-79794181D01*
X98803500Y-73114082D01*
X98823502Y-73045961D01*
X98864135Y-73006363D01*
X98998318Y-72924939D01*
X98998325Y-72924934D01*
X99002883Y-72922168D01*
X99117898Y-72822363D01*
X99179386Y-72769007D01*
X99179388Y-72769005D01*
X99183419Y-72765507D01*
X99186802Y-72761381D01*
X99186806Y-72761377D01*
X99331591Y-72584798D01*
X99331593Y-72584795D01*
X99334978Y-72580667D01*
X99337619Y-72576028D01*
X99338945Y-72574099D01*
X99394016Y-72529292D01*
X99464570Y-72521371D01*
X99528205Y-72552852D01*
X99547301Y-72575106D01*
X99608334Y-72665762D01*
X99773326Y-72838718D01*
X99965100Y-72981402D01*
X99969851Y-72983818D01*
X99969855Y-72983820D01*
X100173414Y-73087314D01*
X100178172Y-73089733D01*
X100292312Y-73125175D01*
X100401349Y-73159032D01*
X100401355Y-73159033D01*
X100406452Y-73160616D01*
X100533883Y-73177506D01*
X100638127Y-73191323D01*
X100638131Y-73191323D01*
X100643411Y-73192023D01*
X100648740Y-73191823D01*
X100648741Y-73191823D01*
X100746509Y-73188152D01*
X100882274Y-73183055D01*
X100982126Y-73162104D01*
X101110984Y-73135067D01*
X101110987Y-73135066D01*
X101116211Y-73133970D01*
X101338533Y-73046171D01*
X101542883Y-72922168D01*
X101657898Y-72822363D01*
X101719386Y-72769007D01*
X101719388Y-72769005D01*
X101723419Y-72765507D01*
X101726802Y-72761381D01*
X101726806Y-72761377D01*
X101871591Y-72584798D01*
X101871593Y-72584795D01*
X101874978Y-72580667D01*
X101877619Y-72576028D01*
X101878945Y-72574099D01*
X101934016Y-72529292D01*
X102004570Y-72521371D01*
X102068205Y-72552852D01*
X102087301Y-72575106D01*
X102148334Y-72665762D01*
X102313326Y-72838718D01*
X102505100Y-72981402D01*
X102509851Y-72983818D01*
X102509855Y-72983820D01*
X102713414Y-73087314D01*
X102718172Y-73089733D01*
X102729483Y-73093245D01*
X102788610Y-73132546D01*
X102817102Y-73197575D01*
X102818061Y-73209620D01*
X102819327Y-73249889D01*
X102824978Y-73269339D01*
X102828987Y-73288700D01*
X102829734Y-73294609D01*
X102831526Y-73308797D01*
X102834445Y-73316168D01*
X102834445Y-73316170D01*
X102847804Y-73349912D01*
X102851649Y-73361142D01*
X102863982Y-73403593D01*
X102868015Y-73410412D01*
X102868017Y-73410417D01*
X102874293Y-73421028D01*
X102882988Y-73438776D01*
X102890448Y-73457617D01*
X102895110Y-73464033D01*
X102895110Y-73464034D01*
X102916436Y-73493387D01*
X102922952Y-73503307D01*
X102945458Y-73541362D01*
X102959779Y-73555683D01*
X102972619Y-73570716D01*
X102984528Y-73587107D01*
X102990634Y-73592158D01*
X103018605Y-73615298D01*
X103027384Y-73623288D01*
X103796343Y-74392247D01*
X103803887Y-74400537D01*
X103808000Y-74407018D01*
X103813777Y-74412443D01*
X103857667Y-74453658D01*
X103860509Y-74456413D01*
X103880231Y-74476135D01*
X103883355Y-74478558D01*
X103883359Y-74478562D01*
X103883424Y-74478612D01*
X103892445Y-74486317D01*
X103924679Y-74516586D01*
X103931627Y-74520405D01*
X103931629Y-74520407D01*
X103942432Y-74526346D01*
X103958959Y-74537202D01*
X103968698Y-74544757D01*
X103968700Y-74544758D01*
X103974960Y-74549614D01*
X104015540Y-74567174D01*
X104026188Y-74572391D01*
X104064940Y-74593695D01*
X104072616Y-74595666D01*
X104072619Y-74595667D01*
X104084562Y-74598733D01*
X104103267Y-74605137D01*
X104121855Y-74613181D01*
X104129678Y-74614420D01*
X104129688Y-74614423D01*
X104165524Y-74620099D01*
X104177144Y-74622505D01*
X104212289Y-74631528D01*
X104219970Y-74633500D01*
X104227899Y-74633500D01*
X104235760Y-74634493D01*
X104235555Y-74636118D01*
X104294761Y-74653502D01*
X104341254Y-74707158D01*
X104351358Y-74777432D01*
X104338230Y-74813654D01*
X104339820Y-74814395D01*
X104336725Y-74821032D01*
X104332885Y-74827262D01*
X104277203Y-74995139D01*
X104266500Y-75099600D01*
X104266500Y-76400400D01*
X104277474Y-76506166D01*
X104279655Y-76512702D01*
X104279655Y-76512704D01*
X104319262Y-76631420D01*
X104333450Y-76673946D01*
X104426522Y-76824348D01*
X104551697Y-76949305D01*
X104697258Y-77039030D01*
X104697780Y-77039352D01*
X104745273Y-77092124D01*
X104756697Y-77162196D01*
X104728423Y-77227320D01*
X104718636Y-77237782D01*
X104608094Y-77343234D01*
X104601059Y-77351186D01*
X104469859Y-77527525D01*
X104464255Y-77536562D01*
X104364643Y-77732484D01*
X104360643Y-77742335D01*
X104295466Y-77952240D01*
X104293183Y-77962624D01*
X104291139Y-77978043D01*
X104293335Y-77992207D01*
X104306522Y-77996000D01*
X107191192Y-77996000D01*
X107204723Y-77992027D01*
X107206248Y-77981420D01*
X107181523Y-77863579D01*
X107178463Y-77853383D01*
X107097737Y-77648971D01*
X107093006Y-77639439D01*
X106978984Y-77451538D01*
X106972720Y-77442948D01*
X106828673Y-77276948D01*
X106821044Y-77269530D01*
X106789431Y-77243609D01*
X106749436Y-77184949D01*
X106747504Y-77113979D01*
X106784248Y-77053230D01*
X106803018Y-77039030D01*
X106943120Y-76952332D01*
X106949348Y-76948478D01*
X107074305Y-76823303D01*
X107167115Y-76672738D01*
X107193564Y-76592995D01*
X107220632Y-76511389D01*
X107220632Y-76511387D01*
X107222797Y-76504861D01*
X107233500Y-76400400D01*
X107233500Y-75099600D01*
X107222526Y-74993834D01*
X107166550Y-74826054D01*
X107162694Y-74819823D01*
X107159593Y-74813203D01*
X107162529Y-74811828D01*
X107147559Y-74757233D01*
X107168784Y-74689484D01*
X107223267Y-74643963D01*
X107273539Y-74633500D01*
X111385406Y-74633500D01*
X111453527Y-74653502D01*
X111474501Y-74670405D01*
X114329595Y-77525500D01*
X114363621Y-77587812D01*
X114366500Y-77614595D01*
X114366500Y-85125237D01*
X114346498Y-85193358D01*
X114292842Y-85239851D01*
X114222568Y-85249955D01*
X114165288Y-85226327D01*
X114154900Y-85218598D01*
X114150149Y-85216182D01*
X114150145Y-85216180D01*
X113946586Y-85112686D01*
X113946585Y-85112686D01*
X113941828Y-85110267D01*
X113797375Y-85065413D01*
X113718651Y-85040968D01*
X113718645Y-85040967D01*
X113713548Y-85039384D01*
X113586117Y-85022494D01*
X113481873Y-85008677D01*
X113481869Y-85008677D01*
X113476589Y-85007977D01*
X113471260Y-85008177D01*
X113471259Y-85008177D01*
X113373491Y-85011848D01*
X113237726Y-85016945D01*
X113150816Y-85035181D01*
X113009016Y-85064933D01*
X113009013Y-85064934D01*
X113003789Y-85066030D01*
X112781467Y-85153829D01*
X112577117Y-85277832D01*
X112396581Y-85434493D01*
X112393198Y-85438619D01*
X112393194Y-85438623D01*
X112310910Y-85538976D01*
X112245022Y-85619333D01*
X112242383Y-85623969D01*
X112241055Y-85625901D01*
X112185984Y-85670708D01*
X112115430Y-85678629D01*
X112051795Y-85647148D01*
X112032699Y-85624894D01*
X112026174Y-85615202D01*
X111971666Y-85534238D01*
X111966125Y-85528429D01*
X111873175Y-85430993D01*
X111806674Y-85361282D01*
X111614900Y-85218598D01*
X111610149Y-85216182D01*
X111610145Y-85216180D01*
X111406586Y-85112686D01*
X111406585Y-85112686D01*
X111401828Y-85110267D01*
X111257375Y-85065413D01*
X111178651Y-85040968D01*
X111178645Y-85040967D01*
X111173548Y-85039384D01*
X111046117Y-85022494D01*
X110941873Y-85008677D01*
X110941869Y-85008677D01*
X110936589Y-85007977D01*
X110931260Y-85008177D01*
X110931259Y-85008177D01*
X110833491Y-85011848D01*
X110697726Y-85016945D01*
X110610816Y-85035181D01*
X110469016Y-85064933D01*
X110469013Y-85064934D01*
X110463789Y-85066030D01*
X110241467Y-85153829D01*
X110037117Y-85277832D01*
X109856581Y-85434493D01*
X109853198Y-85438619D01*
X109853194Y-85438623D01*
X109770910Y-85538976D01*
X109705022Y-85619333D01*
X109702383Y-85623969D01*
X109701055Y-85625901D01*
X109645984Y-85670708D01*
X109575430Y-85678629D01*
X109511795Y-85647148D01*
X109492699Y-85624894D01*
X109486174Y-85615202D01*
X109431666Y-85534238D01*
X109426125Y-85528429D01*
X109333175Y-85430993D01*
X109266674Y-85361282D01*
X109074900Y-85218598D01*
X109070149Y-85216182D01*
X109070145Y-85216180D01*
X108866586Y-85112686D01*
X108866585Y-85112686D01*
X108861828Y-85110267D01*
X108717375Y-85065413D01*
X108638651Y-85040968D01*
X108638645Y-85040967D01*
X108633548Y-85039384D01*
X108506117Y-85022494D01*
X108401873Y-85008677D01*
X108401869Y-85008677D01*
X108396589Y-85007977D01*
X108391260Y-85008177D01*
X108391259Y-85008177D01*
X108293491Y-85011848D01*
X108157726Y-85016945D01*
X108070816Y-85035181D01*
X107929016Y-85064933D01*
X107929013Y-85064934D01*
X107923789Y-85066030D01*
X107701467Y-85153829D01*
X107497117Y-85277832D01*
X107316581Y-85434493D01*
X107313198Y-85438619D01*
X107313194Y-85438623D01*
X107230910Y-85538976D01*
X107165022Y-85619333D01*
X107162383Y-85623969D01*
X107161055Y-85625901D01*
X107105984Y-85670708D01*
X107035430Y-85678629D01*
X106971795Y-85647148D01*
X106952699Y-85624894D01*
X106946174Y-85615202D01*
X106891666Y-85534238D01*
X106886125Y-85528429D01*
X106793175Y-85430993D01*
X106726674Y-85361282D01*
X106534900Y-85218598D01*
X106530149Y-85216182D01*
X106530145Y-85216180D01*
X106326586Y-85112686D01*
X106326585Y-85112686D01*
X106321828Y-85110267D01*
X106177375Y-85065413D01*
X106098651Y-85040968D01*
X106098645Y-85040967D01*
X106093548Y-85039384D01*
X105966117Y-85022494D01*
X105861873Y-85008677D01*
X105861869Y-85008677D01*
X105856589Y-85007977D01*
X105851260Y-85008177D01*
X105851259Y-85008177D01*
X105753491Y-85011848D01*
X105617726Y-85016945D01*
X105530816Y-85035181D01*
X105389016Y-85064933D01*
X105389013Y-85064934D01*
X105383789Y-85066030D01*
X105161467Y-85153829D01*
X104957117Y-85277832D01*
X104776581Y-85434493D01*
X104773198Y-85438619D01*
X104773194Y-85438623D01*
X104690910Y-85538976D01*
X104625022Y-85619333D01*
X104622383Y-85623969D01*
X104621055Y-85625901D01*
X104565984Y-85670708D01*
X104495430Y-85678629D01*
X104431795Y-85647148D01*
X104412699Y-85624894D01*
X104406174Y-85615202D01*
X104351666Y-85534238D01*
X104346125Y-85528429D01*
X104253175Y-85430993D01*
X104186674Y-85361282D01*
X103994900Y-85218598D01*
X103990149Y-85216182D01*
X103990145Y-85216180D01*
X103786586Y-85112686D01*
X103786585Y-85112686D01*
X103781828Y-85110267D01*
X103637375Y-85065413D01*
X103558651Y-85040968D01*
X103558645Y-85040967D01*
X103553548Y-85039384D01*
X103426117Y-85022494D01*
X103321873Y-85008677D01*
X103321869Y-85008677D01*
X103316589Y-85007977D01*
X103311260Y-85008177D01*
X103311259Y-85008177D01*
X103213491Y-85011848D01*
X103077726Y-85016945D01*
X102990816Y-85035181D01*
X102849016Y-85064933D01*
X102849013Y-85064934D01*
X102843789Y-85066030D01*
X102621467Y-85153829D01*
X102417117Y-85277832D01*
X102236581Y-85434493D01*
X102233198Y-85438619D01*
X102233194Y-85438623D01*
X102150910Y-85538976D01*
X102085022Y-85619333D01*
X102082383Y-85623969D01*
X102081055Y-85625901D01*
X102025984Y-85670708D01*
X101955430Y-85678629D01*
X101891795Y-85647148D01*
X101872699Y-85624894D01*
X101866174Y-85615202D01*
X101811666Y-85534238D01*
X101806125Y-85528429D01*
X101713175Y-85430993D01*
X101646674Y-85361282D01*
X101454900Y-85218598D01*
X101450149Y-85216182D01*
X101450145Y-85216180D01*
X101246586Y-85112686D01*
X101246585Y-85112686D01*
X101241828Y-85110267D01*
X101097375Y-85065413D01*
X101018651Y-85040968D01*
X101018645Y-85040967D01*
X101013548Y-85039384D01*
X100886117Y-85022494D01*
X100781873Y-85008677D01*
X100781869Y-85008677D01*
X100776589Y-85007977D01*
X100771260Y-85008177D01*
X100771259Y-85008177D01*
X100673491Y-85011848D01*
X100537726Y-85016945D01*
X100450816Y-85035181D01*
X100309016Y-85064933D01*
X100309013Y-85064934D01*
X100303789Y-85066030D01*
X100081467Y-85153829D01*
X99877117Y-85277832D01*
X99696581Y-85434493D01*
X99693198Y-85438619D01*
X99693194Y-85438623D01*
X99610910Y-85538976D01*
X99545022Y-85619333D01*
X99542383Y-85623969D01*
X99541055Y-85625901D01*
X99485984Y-85670708D01*
X99415430Y-85678629D01*
X99351795Y-85647148D01*
X99332699Y-85624894D01*
X99326174Y-85615202D01*
X99271666Y-85534238D01*
X99266125Y-85528429D01*
X99173175Y-85430993D01*
X99106674Y-85361282D01*
X99054287Y-85322305D01*
X99011574Y-85265595D01*
X99003500Y-85221216D01*
X99003500Y-84844594D01*
X99023502Y-84776473D01*
X99040405Y-84755499D01*
X99875499Y-83920405D01*
X99937811Y-83886379D01*
X99964594Y-83883500D01*
X104349404Y-83883500D01*
X104417525Y-83903502D01*
X104457122Y-83944133D01*
X104523377Y-84053317D01*
X104526874Y-84057347D01*
X104613438Y-84157103D01*
X104674477Y-84227445D01*
X104678608Y-84230832D01*
X104848627Y-84370240D01*
X104848633Y-84370244D01*
X104852755Y-84373624D01*
X104857391Y-84376263D01*
X104857394Y-84376265D01*
X104901531Y-84401389D01*
X105053114Y-84487675D01*
X105269825Y-84566337D01*
X105275074Y-84567286D01*
X105275077Y-84567287D01*
X105492608Y-84606623D01*
X105492615Y-84606624D01*
X105496692Y-84607361D01*
X105514414Y-84608197D01*
X105519356Y-84608430D01*
X105519363Y-84608430D01*
X105520844Y-84608500D01*
X105932890Y-84608500D01*
X105999809Y-84602822D01*
X106099409Y-84594371D01*
X106099413Y-84594370D01*
X106104720Y-84593920D01*
X106109875Y-84592582D01*
X106109881Y-84592581D01*
X106322703Y-84537343D01*
X106322707Y-84537342D01*
X106327872Y-84536001D01*
X106332738Y-84533809D01*
X106332741Y-84533808D01*
X106533202Y-84443507D01*
X106538075Y-84441312D01*
X106729319Y-84312559D01*
X106896135Y-84153424D01*
X107033754Y-83968458D01*
X107058186Y-83920405D01*
X107135822Y-83767704D01*
X107138240Y-83762949D01*
X107206607Y-83542773D01*
X107236898Y-83314226D01*
X107234431Y-83248498D01*
X107228943Y-83102332D01*
X107228249Y-83083842D01*
X107180907Y-82858209D01*
X107096224Y-82643779D01*
X107080431Y-82617752D01*
X106979390Y-82451243D01*
X106976623Y-82446683D01*
X106906152Y-82365472D01*
X106829023Y-82276588D01*
X106829021Y-82276586D01*
X106825523Y-82272555D01*
X106783970Y-82238484D01*
X106651373Y-82129760D01*
X106651367Y-82129756D01*
X106647245Y-82126376D01*
X106615750Y-82108448D01*
X106566445Y-82057368D01*
X106552583Y-81987738D01*
X106578566Y-81921667D01*
X106607716Y-81894427D01*
X106643642Y-81870240D01*
X106729319Y-81812559D01*
X106896135Y-81653424D01*
X107033754Y-81468458D01*
X107058186Y-81420405D01*
X107135822Y-81267704D01*
X107138240Y-81262949D01*
X107143349Y-81246498D01*
X107205024Y-81047871D01*
X107206607Y-81042773D01*
X107215450Y-80976054D01*
X107236198Y-80819511D01*
X107236198Y-80819506D01*
X107236898Y-80814226D01*
X107228249Y-80583842D01*
X107180907Y-80358209D01*
X107142035Y-80259779D01*
X107098185Y-80148744D01*
X107098184Y-80148742D01*
X107096224Y-80143779D01*
X107090560Y-80134444D01*
X106979390Y-79951243D01*
X106976623Y-79946683D01*
X106973126Y-79942653D01*
X106829023Y-79776588D01*
X106829021Y-79776586D01*
X106825523Y-79772555D01*
X106783970Y-79738484D01*
X106651373Y-79629760D01*
X106651367Y-79629756D01*
X106647245Y-79626376D01*
X106642602Y-79623733D01*
X106615265Y-79608171D01*
X106565959Y-79557088D01*
X106552098Y-79487458D01*
X106578082Y-79421387D01*
X106607232Y-79394149D01*
X106724578Y-79315148D01*
X106732870Y-79308481D01*
X106891900Y-79156772D01*
X106898941Y-79148814D01*
X107030141Y-78972475D01*
X107035745Y-78963438D01*
X107135357Y-78767516D01*
X107139357Y-78757665D01*
X107204534Y-78547760D01*
X107206817Y-78537376D01*
X107208861Y-78521957D01*
X107206665Y-78507793D01*
X107193478Y-78504000D01*
X104308808Y-78504000D01*
X104295277Y-78507973D01*
X104293752Y-78518580D01*
X104318477Y-78636421D01*
X104321537Y-78646617D01*
X104402263Y-78851029D01*
X104406994Y-78860561D01*
X104521016Y-79048462D01*
X104527280Y-79057052D01*
X104671327Y-79223052D01*
X104678958Y-79230472D01*
X104848911Y-79369826D01*
X104857674Y-79375848D01*
X104884711Y-79391238D01*
X104934018Y-79442320D01*
X104947880Y-79511951D01*
X104921897Y-79578022D01*
X104892747Y-79605261D01*
X104888425Y-79608171D01*
X104770681Y-79687441D01*
X104766824Y-79691120D01*
X104766822Y-79691122D01*
X104697464Y-79757287D01*
X104603865Y-79846576D01*
X104466246Y-80031542D01*
X104463830Y-80036294D01*
X104463825Y-80036302D01*
X104458078Y-80047606D01*
X104409375Y-80099263D01*
X104345762Y-80116500D01*
X100528768Y-80116500D01*
X100517585Y-80115973D01*
X100510092Y-80114298D01*
X100502166Y-80114547D01*
X100502165Y-80114547D01*
X100442002Y-80116438D01*
X100438044Y-80116500D01*
X100410144Y-80116500D01*
X100406154Y-80117004D01*
X100394320Y-80117936D01*
X100350111Y-80119326D01*
X100342495Y-80121539D01*
X100342493Y-80121539D01*
X100330652Y-80124979D01*
X100311293Y-80128988D01*
X100309983Y-80129154D01*
X100291203Y-80131526D01*
X100283837Y-80134442D01*
X100283831Y-80134444D01*
X100250098Y-80147800D01*
X100238868Y-80151645D01*
X100204017Y-80161770D01*
X100196407Y-80163981D01*
X100189584Y-80168016D01*
X100178966Y-80174295D01*
X100161213Y-80182992D01*
X100153568Y-80186019D01*
X100142383Y-80190448D01*
X100135968Y-80195109D01*
X100106612Y-80216437D01*
X100096695Y-80222951D01*
X100058638Y-80245458D01*
X100044317Y-80259779D01*
X100029284Y-80272619D01*
X100012893Y-80284528D01*
X100007842Y-80290634D01*
X99984702Y-80318605D01*
X99976712Y-80327384D01*
X95437747Y-84866348D01*
X95429461Y-84873888D01*
X95422982Y-84878000D01*
X95417557Y-84883777D01*
X95376357Y-84927651D01*
X95373602Y-84930493D01*
X95353865Y-84950230D01*
X95351385Y-84953427D01*
X95343682Y-84962447D01*
X95313414Y-84994679D01*
X95309593Y-85001629D01*
X95308644Y-85003354D01*
X95307545Y-85004446D01*
X95304935Y-85008039D01*
X95304355Y-85007618D01*
X95258296Y-85053410D01*
X95233830Y-85062413D01*
X95234126Y-85063400D01*
X95229017Y-85064933D01*
X95223789Y-85066030D01*
X95001467Y-85153829D01*
X94797117Y-85277832D01*
X94616581Y-85434493D01*
X94613198Y-85438619D01*
X94613194Y-85438623D01*
X94530910Y-85538976D01*
X94465022Y-85619333D01*
X94462381Y-85623973D01*
X94460756Y-85626337D01*
X94405688Y-85671148D01*
X94335135Y-85679073D01*
X94271498Y-85647597D01*
X94252396Y-85625338D01*
X94194249Y-85538971D01*
X94187594Y-85530693D01*
X94030029Y-85365522D01*
X94022058Y-85358470D01*
X93838918Y-85222210D01*
X93829881Y-85216606D01*
X93626394Y-85113149D01*
X93616541Y-85109148D01*
X93398539Y-85041456D01*
X93388152Y-85039172D01*
X93361957Y-85035700D01*
X93347793Y-85037896D01*
X93344000Y-85051081D01*
X93344000Y-88387282D01*
X93347973Y-88400813D01*
X93358580Y-88402338D01*
X93490840Y-88374587D01*
X93501037Y-88371527D01*
X93713340Y-88287685D01*
X93722876Y-88282951D01*
X93918025Y-88164532D01*
X93926618Y-88158266D01*
X94099027Y-88008658D01*
X94106447Y-88001028D01*
X94251181Y-87824511D01*
X94258642Y-87813656D01*
X94313712Y-87768847D01*
X94384265Y-87760924D01*
X94447901Y-87792402D01*
X94467000Y-87814659D01*
X94528334Y-87905762D01*
X94693326Y-88078718D01*
X94885100Y-88221402D01*
X94889851Y-88223818D01*
X94889855Y-88223820D01*
X95093414Y-88327314D01*
X95098172Y-88329733D01*
X95212312Y-88365175D01*
X95321349Y-88399032D01*
X95321355Y-88399033D01*
X95326452Y-88400616D01*
X95453883Y-88417506D01*
X95558127Y-88431323D01*
X95558131Y-88431323D01*
X95563411Y-88432023D01*
X95568740Y-88431823D01*
X95568741Y-88431823D01*
X95666509Y-88428152D01*
X95802274Y-88423055D01*
X95891660Y-88404300D01*
X96030984Y-88375067D01*
X96030987Y-88375066D01*
X96036211Y-88373970D01*
X96258533Y-88286171D01*
X96462883Y-88162168D01*
X96643419Y-88005507D01*
X96646802Y-88001381D01*
X96646806Y-88001377D01*
X96791591Y-87824798D01*
X96791593Y-87824795D01*
X96794978Y-87820667D01*
X96797617Y-87816031D01*
X96798945Y-87814099D01*
X96854016Y-87769292D01*
X96924570Y-87761371D01*
X96988205Y-87792852D01*
X97007301Y-87815106D01*
X97068334Y-87905762D01*
X97233326Y-88078718D01*
X97425100Y-88221402D01*
X97429851Y-88223818D01*
X97429855Y-88223820D01*
X97633414Y-88327314D01*
X97638172Y-88329733D01*
X97752312Y-88365175D01*
X97861349Y-88399032D01*
X97861355Y-88399033D01*
X97866452Y-88400616D01*
X97993883Y-88417506D01*
X98098127Y-88431323D01*
X98098131Y-88431323D01*
X98103411Y-88432023D01*
X98108740Y-88431823D01*
X98108741Y-88431823D01*
X98206509Y-88428152D01*
X98342274Y-88423055D01*
X98431660Y-88404300D01*
X98570984Y-88375067D01*
X98570987Y-88375066D01*
X98576211Y-88373970D01*
X98798533Y-88286171D01*
X99002883Y-88162168D01*
X99183419Y-88005507D01*
X99186802Y-88001381D01*
X99186806Y-88001377D01*
X99331591Y-87824798D01*
X99331593Y-87824795D01*
X99334978Y-87820667D01*
X99337617Y-87816031D01*
X99338945Y-87814099D01*
X99394016Y-87769292D01*
X99464570Y-87761371D01*
X99528205Y-87792852D01*
X99547301Y-87815106D01*
X99608334Y-87905762D01*
X99773326Y-88078718D01*
X99965100Y-88221402D01*
X99969851Y-88223818D01*
X99969855Y-88223820D01*
X100173414Y-88327314D01*
X100178172Y-88329733D01*
X100292312Y-88365175D01*
X100401349Y-88399032D01*
X100401355Y-88399033D01*
X100406452Y-88400616D01*
X100533883Y-88417506D01*
X100638127Y-88431323D01*
X100638131Y-88431323D01*
X100643411Y-88432023D01*
X100648740Y-88431823D01*
X100648741Y-88431823D01*
X100746509Y-88428152D01*
X100882274Y-88423055D01*
X100971660Y-88404300D01*
X101110984Y-88375067D01*
X101110987Y-88375066D01*
X101116211Y-88373970D01*
X101338533Y-88286171D01*
X101542883Y-88162168D01*
X101723419Y-88005507D01*
X101726802Y-88001381D01*
X101726806Y-88001377D01*
X101871591Y-87824798D01*
X101871593Y-87824795D01*
X101874978Y-87820667D01*
X101877617Y-87816031D01*
X101878945Y-87814099D01*
X101934016Y-87769292D01*
X102004570Y-87761371D01*
X102068205Y-87792852D01*
X102087301Y-87815106D01*
X102148334Y-87905762D01*
X102313326Y-88078718D01*
X102505100Y-88221402D01*
X102509851Y-88223818D01*
X102509855Y-88223820D01*
X102713414Y-88327314D01*
X102718172Y-88329733D01*
X102832312Y-88365175D01*
X102941349Y-88399032D01*
X102941355Y-88399033D01*
X102946452Y-88400616D01*
X103073883Y-88417506D01*
X103178127Y-88431323D01*
X103178131Y-88431323D01*
X103183411Y-88432023D01*
X103188740Y-88431823D01*
X103188741Y-88431823D01*
X103286509Y-88428152D01*
X103422274Y-88423055D01*
X103511660Y-88404300D01*
X103650984Y-88375067D01*
X103650987Y-88375066D01*
X103656211Y-88373970D01*
X103878533Y-88286171D01*
X104082883Y-88162168D01*
X104263419Y-88005507D01*
X104266802Y-88001381D01*
X104266806Y-88001377D01*
X104411591Y-87824798D01*
X104411593Y-87824795D01*
X104414978Y-87820667D01*
X104417617Y-87816031D01*
X104418945Y-87814099D01*
X104474016Y-87769292D01*
X104544570Y-87761371D01*
X104608205Y-87792852D01*
X104627301Y-87815106D01*
X104688334Y-87905762D01*
X104853326Y-88078718D01*
X105045100Y-88221402D01*
X105049851Y-88223818D01*
X105049855Y-88223820D01*
X105253414Y-88327314D01*
X105258172Y-88329733D01*
X105372312Y-88365175D01*
X105481349Y-88399032D01*
X105481355Y-88399033D01*
X105486452Y-88400616D01*
X105613883Y-88417506D01*
X105718127Y-88431323D01*
X105718131Y-88431323D01*
X105723411Y-88432023D01*
X105728740Y-88431823D01*
X105728741Y-88431823D01*
X105826509Y-88428152D01*
X105962274Y-88423055D01*
X106051660Y-88404300D01*
X106190984Y-88375067D01*
X106190987Y-88375066D01*
X106196211Y-88373970D01*
X106418533Y-88286171D01*
X106622883Y-88162168D01*
X106803419Y-88005507D01*
X106806802Y-88001381D01*
X106806806Y-88001377D01*
X106951591Y-87824798D01*
X106951593Y-87824795D01*
X106954978Y-87820667D01*
X106957617Y-87816031D01*
X106958945Y-87814099D01*
X107014016Y-87769292D01*
X107084570Y-87761371D01*
X107148205Y-87792852D01*
X107167301Y-87815106D01*
X107228334Y-87905762D01*
X107393326Y-88078718D01*
X107585100Y-88221402D01*
X107589851Y-88223818D01*
X107589855Y-88223820D01*
X107793414Y-88327314D01*
X107798172Y-88329733D01*
X107912312Y-88365175D01*
X108021349Y-88399032D01*
X108021355Y-88399033D01*
X108026452Y-88400616D01*
X108153883Y-88417506D01*
X108258127Y-88431323D01*
X108258131Y-88431323D01*
X108263411Y-88432023D01*
X108268740Y-88431823D01*
X108268741Y-88431823D01*
X108366509Y-88428152D01*
X108502274Y-88423055D01*
X108591660Y-88404300D01*
X108730984Y-88375067D01*
X108730987Y-88375066D01*
X108736211Y-88373970D01*
X108958533Y-88286171D01*
X109162883Y-88162168D01*
X109343419Y-88005507D01*
X109346802Y-88001381D01*
X109346806Y-88001377D01*
X109491591Y-87824798D01*
X109491593Y-87824795D01*
X109494978Y-87820667D01*
X109497617Y-87816031D01*
X109498945Y-87814099D01*
X109554016Y-87769292D01*
X109624570Y-87761371D01*
X109688205Y-87792852D01*
X109707301Y-87815106D01*
X109768334Y-87905762D01*
X109933326Y-88078718D01*
X110125100Y-88221402D01*
X110129851Y-88223818D01*
X110129855Y-88223820D01*
X110333414Y-88327314D01*
X110338172Y-88329733D01*
X110452312Y-88365175D01*
X110561349Y-88399032D01*
X110561355Y-88399033D01*
X110566452Y-88400616D01*
X110693883Y-88417506D01*
X110798127Y-88431323D01*
X110798131Y-88431323D01*
X110803411Y-88432023D01*
X110808740Y-88431823D01*
X110808741Y-88431823D01*
X110906509Y-88428152D01*
X111042274Y-88423055D01*
X111131660Y-88404300D01*
X111270984Y-88375067D01*
X111270987Y-88375066D01*
X111276211Y-88373970D01*
X111498533Y-88286171D01*
X111702883Y-88162168D01*
X111883419Y-88005507D01*
X111886802Y-88001381D01*
X111886806Y-88001377D01*
X112031591Y-87824798D01*
X112031593Y-87824795D01*
X112034978Y-87820667D01*
X112037617Y-87816031D01*
X112038945Y-87814099D01*
X112094016Y-87769292D01*
X112164570Y-87761371D01*
X112228205Y-87792852D01*
X112247301Y-87815106D01*
X112308334Y-87905762D01*
X112473326Y-88078718D01*
X112665100Y-88221402D01*
X112669851Y-88223818D01*
X112669855Y-88223820D01*
X112873414Y-88327314D01*
X112878172Y-88329733D01*
X112992312Y-88365175D01*
X113101349Y-88399032D01*
X113101355Y-88399033D01*
X113106452Y-88400616D01*
X113233883Y-88417506D01*
X113338127Y-88431323D01*
X113338131Y-88431323D01*
X113343411Y-88432023D01*
X113348740Y-88431823D01*
X113348741Y-88431823D01*
X113446509Y-88428152D01*
X113582274Y-88423055D01*
X113672617Y-88404099D01*
X113743393Y-88409686D01*
X113799913Y-88452651D01*
X113824233Y-88519353D01*
X113808630Y-88588614D01*
X113787586Y-88616509D01*
X109074500Y-93329595D01*
X109012188Y-93363621D01*
X108985405Y-93366500D01*
X103078767Y-93366500D01*
X103067584Y-93365973D01*
X103060091Y-93364298D01*
X103052165Y-93364547D01*
X103052164Y-93364547D01*
X102992014Y-93366438D01*
X102988055Y-93366500D01*
X102960144Y-93366500D01*
X102956210Y-93366997D01*
X102956209Y-93366997D01*
X102956144Y-93367005D01*
X102944307Y-93367938D01*
X102912049Y-93368952D01*
X102908030Y-93369078D01*
X102900111Y-93369327D01*
X102880657Y-93374979D01*
X102861300Y-93378987D01*
X102849070Y-93380532D01*
X102849069Y-93380532D01*
X102841203Y-93381526D01*
X102833832Y-93384445D01*
X102833830Y-93384445D01*
X102800088Y-93397804D01*
X102788858Y-93401649D01*
X102754017Y-93411771D01*
X102754016Y-93411771D01*
X102746407Y-93413982D01*
X102739588Y-93418015D01*
X102739583Y-93418017D01*
X102728972Y-93424293D01*
X102711224Y-93432988D01*
X102692383Y-93440448D01*
X102685967Y-93445110D01*
X102685966Y-93445110D01*
X102656613Y-93466436D01*
X102646693Y-93472952D01*
X102615465Y-93491420D01*
X102615462Y-93491422D01*
X102608638Y-93495458D01*
X102594317Y-93509779D01*
X102579284Y-93522619D01*
X102562893Y-93534528D01*
X102557842Y-93540634D01*
X102534702Y-93568605D01*
X102526712Y-93577384D01*
X100929664Y-95174431D01*
X100886852Y-95202527D01*
X100835985Y-95222616D01*
X100698744Y-95276815D01*
X100698742Y-95276816D01*
X100693779Y-95278776D01*
X100689220Y-95281543D01*
X100689217Y-95281544D01*
X100555857Y-95362469D01*
X100496683Y-95398377D01*
X100492653Y-95401874D01*
X100399484Y-95482722D01*
X100322555Y-95549477D01*
X100319168Y-95553608D01*
X100179760Y-95723627D01*
X100179756Y-95723633D01*
X100176376Y-95727755D01*
X100158448Y-95759250D01*
X100107368Y-95808555D01*
X100037738Y-95822417D01*
X99971667Y-95796434D01*
X99944427Y-95767284D01*
X99917814Y-95727755D01*
X99862559Y-95645681D01*
X99703424Y-95478865D01*
X99638987Y-95430922D01*
X99581605Y-95388229D01*
X99518458Y-95341246D01*
X99513707Y-95338830D01*
X99513703Y-95338828D01*
X99415704Y-95289003D01*
X99312949Y-95236760D01*
X99307855Y-95235178D01*
X99307852Y-95235177D01*
X99097871Y-95169976D01*
X99092773Y-95168393D01*
X99087484Y-95167692D01*
X98869511Y-95138802D01*
X98869506Y-95138802D01*
X98864226Y-95138102D01*
X98858897Y-95138302D01*
X98858895Y-95138302D01*
X98749034Y-95142426D01*
X98633842Y-95146751D01*
X98408209Y-95194093D01*
X98403250Y-95196051D01*
X98403248Y-95196052D01*
X98198744Y-95276815D01*
X98198742Y-95276816D01*
X98193779Y-95278776D01*
X98189220Y-95281543D01*
X98189217Y-95281544D01*
X98055857Y-95362469D01*
X97996683Y-95398377D01*
X97992653Y-95401874D01*
X97899484Y-95482722D01*
X97822555Y-95549477D01*
X97819168Y-95553608D01*
X97679760Y-95723627D01*
X97679756Y-95723633D01*
X97676376Y-95727755D01*
X97673738Y-95732390D01*
X97673733Y-95732398D01*
X97658171Y-95759735D01*
X97607088Y-95809041D01*
X97537458Y-95822902D01*
X97471387Y-95796918D01*
X97444149Y-95767768D01*
X97365148Y-95650422D01*
X97358481Y-95642130D01*
X97206772Y-95483100D01*
X97198814Y-95476059D01*
X97022475Y-95344859D01*
X97013438Y-95339255D01*
X96817516Y-95239643D01*
X96807665Y-95235643D01*
X96597760Y-95170466D01*
X96587376Y-95168183D01*
X96571957Y-95166139D01*
X96557793Y-95168335D01*
X96554000Y-95181522D01*
X96554000Y-98066192D01*
X96557973Y-98079723D01*
X96568580Y-98081248D01*
X96686421Y-98056523D01*
X96696617Y-98053463D01*
X96901029Y-97972737D01*
X96910561Y-97968006D01*
X97098462Y-97853984D01*
X97107052Y-97847720D01*
X97273052Y-97703673D01*
X97280472Y-97696042D01*
X97419826Y-97526089D01*
X97425848Y-97517326D01*
X97441238Y-97490289D01*
X97492320Y-97440982D01*
X97561951Y-97427120D01*
X97628022Y-97453103D01*
X97655261Y-97482253D01*
X97684773Y-97526089D01*
X97737441Y-97604319D01*
X97741120Y-97608176D01*
X97741122Y-97608178D01*
X97802710Y-97672738D01*
X97896576Y-97771135D01*
X98081542Y-97908754D01*
X98086293Y-97911170D01*
X98086297Y-97911172D01*
X98149481Y-97943296D01*
X98287051Y-98013240D01*
X98292145Y-98014822D01*
X98292148Y-98014823D01*
X98457583Y-98066192D01*
X98507227Y-98081607D01*
X98512516Y-98082308D01*
X98730489Y-98111198D01*
X98730494Y-98111198D01*
X98735774Y-98111898D01*
X98741103Y-98111698D01*
X98741105Y-98111698D01*
X98850966Y-98107574D01*
X98966158Y-98103249D01*
X98988802Y-98098498D01*
X99186572Y-98057002D01*
X99191791Y-98055907D01*
X99196750Y-98053949D01*
X99196752Y-98053948D01*
X99401256Y-97973185D01*
X99401258Y-97973184D01*
X99406221Y-97971224D01*
X99411525Y-97968006D01*
X99598757Y-97854390D01*
X99598756Y-97854390D01*
X99603317Y-97851623D01*
X99643134Y-97817072D01*
X99773412Y-97704023D01*
X99773414Y-97704021D01*
X99777445Y-97700523D01*
X99841048Y-97622954D01*
X99920240Y-97526373D01*
X99920244Y-97526367D01*
X99923624Y-97522245D01*
X99941552Y-97490750D01*
X99992632Y-97441445D01*
X100062262Y-97427583D01*
X100128333Y-97453566D01*
X100155573Y-97482716D01*
X100160983Y-97490752D01*
X100237441Y-97604319D01*
X100241120Y-97608176D01*
X100241122Y-97608178D01*
X100302710Y-97672738D01*
X100396576Y-97771135D01*
X100581542Y-97908754D01*
X100586293Y-97911170D01*
X100586297Y-97911172D01*
X100649481Y-97943296D01*
X100787051Y-98013240D01*
X100792145Y-98014822D01*
X100792148Y-98014823D01*
X100957583Y-98066192D01*
X101007227Y-98081607D01*
X101012516Y-98082308D01*
X101230489Y-98111198D01*
X101230494Y-98111198D01*
X101235774Y-98111898D01*
X101241103Y-98111698D01*
X101241105Y-98111698D01*
X101350966Y-98107574D01*
X101466158Y-98103249D01*
X101488802Y-98098498D01*
X101686572Y-98057002D01*
X101691791Y-98055907D01*
X101696750Y-98053949D01*
X101696752Y-98053948D01*
X101901256Y-97973185D01*
X101901258Y-97973184D01*
X101906221Y-97971224D01*
X101911525Y-97968006D01*
X102098757Y-97854390D01*
X102098756Y-97854390D01*
X102103317Y-97851623D01*
X102143134Y-97817072D01*
X102273412Y-97704023D01*
X102273414Y-97704021D01*
X102277445Y-97700523D01*
X102306670Y-97664880D01*
X102365329Y-97624886D01*
X102436299Y-97622954D01*
X102497048Y-97659698D01*
X102511248Y-97678468D01*
X102527062Y-97704023D01*
X102601522Y-97824348D01*
X102726697Y-97949305D01*
X102732927Y-97953145D01*
X102732928Y-97953146D01*
X102870090Y-98037694D01*
X102877262Y-98042115D01*
X102912938Y-98053948D01*
X103038611Y-98095632D01*
X103038613Y-98095632D01*
X103045139Y-98097797D01*
X103051975Y-98098497D01*
X103051978Y-98098498D01*
X103087663Y-98102154D01*
X103149600Y-98108500D01*
X104450400Y-98108500D01*
X104453646Y-98108163D01*
X104453650Y-98108163D01*
X104549308Y-98098238D01*
X104549312Y-98098237D01*
X104556166Y-98097526D01*
X104562702Y-98095345D01*
X104562704Y-98095345D01*
X104694806Y-98051272D01*
X104723946Y-98041550D01*
X104874348Y-97948478D01*
X104999305Y-97823303D01*
X105031462Y-97771135D01*
X105088275Y-97678968D01*
X105088276Y-97678966D01*
X105092115Y-97672738D01*
X105142031Y-97522245D01*
X105145632Y-97511389D01*
X105145632Y-97511387D01*
X105147797Y-97504861D01*
X105150114Y-97482253D01*
X105153100Y-97453103D01*
X105158500Y-97400400D01*
X105158500Y-95849600D01*
X105154292Y-95809041D01*
X105148238Y-95750692D01*
X105148237Y-95750688D01*
X105147526Y-95743834D01*
X105140785Y-95723627D01*
X105099331Y-95599376D01*
X105096747Y-95528427D01*
X105132930Y-95467343D01*
X105196395Y-95435518D01*
X105218855Y-95433500D01*
X109056951Y-95433500D01*
X109068134Y-95434027D01*
X109075627Y-95435702D01*
X109083553Y-95435453D01*
X109083554Y-95435453D01*
X109143704Y-95433562D01*
X109147663Y-95433500D01*
X109175574Y-95433500D01*
X109179509Y-95433003D01*
X109179574Y-95432995D01*
X109191411Y-95432062D01*
X109223669Y-95431048D01*
X109227688Y-95430922D01*
X109235607Y-95430673D01*
X109255061Y-95425021D01*
X109274418Y-95421013D01*
X109286648Y-95419468D01*
X109286649Y-95419468D01*
X109294515Y-95418474D01*
X109301886Y-95415555D01*
X109301888Y-95415555D01*
X109335630Y-95402196D01*
X109346860Y-95398351D01*
X109381701Y-95388229D01*
X109381702Y-95388229D01*
X109389311Y-95386018D01*
X109396130Y-95381985D01*
X109396135Y-95381983D01*
X109406746Y-95375707D01*
X109424494Y-95367012D01*
X109443335Y-95359552D01*
X109463559Y-95344859D01*
X109479105Y-95333564D01*
X109489025Y-95327048D01*
X109520253Y-95308580D01*
X109520256Y-95308578D01*
X109527080Y-95304542D01*
X109541401Y-95290221D01*
X109556435Y-95277380D01*
X109566412Y-95270131D01*
X109572825Y-95265472D01*
X109601016Y-95231395D01*
X109609006Y-95222616D01*
X115276905Y-89554717D01*
X115339217Y-89520691D01*
X115410032Y-89525756D01*
X115466868Y-89568303D01*
X115491679Y-89634823D01*
X115492000Y-89643812D01*
X115492000Y-97950672D01*
X115490500Y-97970056D01*
X115486814Y-97993730D01*
X115487978Y-98002632D01*
X115487978Y-98002634D01*
X115488805Y-98008959D01*
X115489548Y-98034282D01*
X115483997Y-98111898D01*
X115477457Y-98203343D01*
X115474899Y-98221137D01*
X115433480Y-98411538D01*
X115428414Y-98428788D01*
X115360318Y-98611358D01*
X115352851Y-98627710D01*
X115259469Y-98798729D01*
X115249752Y-98813848D01*
X115192016Y-98890975D01*
X115132977Y-98969842D01*
X115121204Y-98983428D01*
X114983428Y-99121204D01*
X114969841Y-99132977D01*
X114813848Y-99249752D01*
X114798734Y-99259466D01*
X114693020Y-99317190D01*
X114627710Y-99352851D01*
X114611358Y-99360318D01*
X114428788Y-99428414D01*
X114411540Y-99433479D01*
X114248022Y-99469051D01*
X114221137Y-99474899D01*
X114203342Y-99477457D01*
X114154443Y-99480954D01*
X114041369Y-99489041D01*
X114023467Y-99488297D01*
X114015142Y-99488195D01*
X114006270Y-99486814D01*
X113997368Y-99487978D01*
X113997365Y-99487978D01*
X113974749Y-99490936D01*
X113958411Y-99492000D01*
X86049328Y-99492000D01*
X86029943Y-99490500D01*
X86029661Y-99490456D01*
X86027117Y-99490060D01*
X86015141Y-99488195D01*
X86015139Y-99488195D01*
X86006270Y-99486814D01*
X85997368Y-99487978D01*
X85997366Y-99487978D01*
X85991041Y-99488805D01*
X85965718Y-99489548D01*
X85796657Y-99477457D01*
X85778863Y-99474899D01*
X85751978Y-99469051D01*
X85588460Y-99433479D01*
X85571212Y-99428414D01*
X85388642Y-99360318D01*
X85372290Y-99352851D01*
X85306980Y-99317190D01*
X85201266Y-99259466D01*
X85186152Y-99249752D01*
X85030159Y-99132977D01*
X85016572Y-99121204D01*
X84878796Y-98983428D01*
X84867023Y-98969842D01*
X84807984Y-98890975D01*
X84750248Y-98813848D01*
X84740531Y-98798729D01*
X84647149Y-98627710D01*
X84639682Y-98611358D01*
X84571586Y-98428788D01*
X84566520Y-98411538D01*
X84525101Y-98221137D01*
X84522543Y-98203342D01*
X84515399Y-98103449D01*
X84510959Y-98041369D01*
X84511703Y-98023467D01*
X84511805Y-98015142D01*
X84513186Y-98006270D01*
X84511547Y-97993730D01*
X84509064Y-97974749D01*
X84508000Y-97958411D01*
X84508000Y-96895193D01*
X94949410Y-96895193D01*
X94956124Y-96974325D01*
X94957914Y-96984797D01*
X95013130Y-97197535D01*
X95016665Y-97207575D01*
X95106937Y-97407970D01*
X95112106Y-97417256D01*
X95234850Y-97599575D01*
X95241519Y-97607870D01*
X95393228Y-97766900D01*
X95401186Y-97773941D01*
X95577525Y-97905141D01*
X95586562Y-97910745D01*
X95782484Y-98010357D01*
X95792335Y-98014357D01*
X96002240Y-98079534D01*
X96012624Y-98081817D01*
X96028043Y-98083861D01*
X96042207Y-98081665D01*
X96046000Y-98068478D01*
X96046000Y-96897115D01*
X96041525Y-96881876D01*
X96040135Y-96880671D01*
X96032452Y-96879000D01*
X94966151Y-96879000D01*
X94951473Y-96883310D01*
X94949410Y-96895193D01*
X84508000Y-96895193D01*
X84508000Y-96353174D01*
X94946496Y-96353174D01*
X94947915Y-96366414D01*
X94962550Y-96371000D01*
X96027885Y-96371000D01*
X96043124Y-96366525D01*
X96044329Y-96365135D01*
X96046000Y-96357452D01*
X96046000Y-95183808D01*
X96042027Y-95170277D01*
X96031420Y-95168752D01*
X95913579Y-95193477D01*
X95903383Y-95196537D01*
X95698971Y-95277263D01*
X95689439Y-95281994D01*
X95501538Y-95396016D01*
X95492948Y-95402280D01*
X95326948Y-95546327D01*
X95319528Y-95553958D01*
X95180174Y-95723911D01*
X95174150Y-95732678D01*
X95065424Y-95923682D01*
X95060959Y-95933346D01*
X94985969Y-96139941D01*
X94983198Y-96150208D01*
X94946496Y-96353174D01*
X84508000Y-96353174D01*
X84508000Y-88310671D01*
X84528002Y-88242550D01*
X84581658Y-88196057D01*
X84651932Y-88185953D01*
X84709212Y-88209581D01*
X84725100Y-88221402D01*
X84729851Y-88223818D01*
X84729855Y-88223820D01*
X84933414Y-88327314D01*
X84938172Y-88329733D01*
X85052312Y-88365175D01*
X85161349Y-88399032D01*
X85161355Y-88399033D01*
X85166452Y-88400616D01*
X85293883Y-88417506D01*
X85398127Y-88431323D01*
X85398131Y-88431323D01*
X85403411Y-88432023D01*
X85408740Y-88431823D01*
X85408741Y-88431823D01*
X85506509Y-88428152D01*
X85642274Y-88423055D01*
X85731660Y-88404300D01*
X85870984Y-88375067D01*
X85870987Y-88375066D01*
X85876211Y-88373970D01*
X86098533Y-88286171D01*
X86302883Y-88162168D01*
X86483419Y-88005507D01*
X86486802Y-88001381D01*
X86486806Y-88001377D01*
X86631591Y-87824798D01*
X86631593Y-87824795D01*
X86634978Y-87820667D01*
X86637617Y-87816031D01*
X86638945Y-87814099D01*
X86694016Y-87769292D01*
X86764570Y-87761371D01*
X86828205Y-87792852D01*
X86847301Y-87815106D01*
X86908334Y-87905762D01*
X87073326Y-88078718D01*
X87265100Y-88221402D01*
X87269851Y-88223818D01*
X87269855Y-88223820D01*
X87473414Y-88327314D01*
X87478172Y-88329733D01*
X87592312Y-88365175D01*
X87701349Y-88399032D01*
X87701355Y-88399033D01*
X87706452Y-88400616D01*
X87833883Y-88417506D01*
X87938127Y-88431323D01*
X87938131Y-88431323D01*
X87943411Y-88432023D01*
X87948740Y-88431823D01*
X87948741Y-88431823D01*
X88046509Y-88428152D01*
X88182274Y-88423055D01*
X88271660Y-88404300D01*
X88410984Y-88375067D01*
X88410987Y-88375066D01*
X88416211Y-88373970D01*
X88638533Y-88286171D01*
X88842883Y-88162168D01*
X89023419Y-88005507D01*
X89026802Y-88001381D01*
X89026806Y-88001377D01*
X89171593Y-87824795D01*
X89174978Y-87820667D01*
X89177619Y-87816027D01*
X89179244Y-87813663D01*
X89234312Y-87768852D01*
X89304865Y-87760927D01*
X89368502Y-87792403D01*
X89387604Y-87814662D01*
X89445751Y-87901029D01*
X89452406Y-87909307D01*
X89609971Y-88074478D01*
X89617942Y-88081530D01*
X89801082Y-88217790D01*
X89810119Y-88223394D01*
X90013606Y-88326851D01*
X90023459Y-88330852D01*
X90241461Y-88398544D01*
X90251848Y-88400828D01*
X90278043Y-88404300D01*
X90292207Y-88402104D01*
X90296000Y-88388919D01*
X90296000Y-88387282D01*
X90804000Y-88387282D01*
X90807973Y-88400813D01*
X90818580Y-88402338D01*
X90950840Y-88374587D01*
X90961037Y-88371527D01*
X91173340Y-88287685D01*
X91182876Y-88282951D01*
X91378025Y-88164532D01*
X91386618Y-88158266D01*
X91559027Y-88008658D01*
X91566447Y-88001028D01*
X91711183Y-87824509D01*
X91718945Y-87813215D01*
X91774013Y-87768405D01*
X91844566Y-87760480D01*
X91908203Y-87791957D01*
X91927304Y-87814216D01*
X91985747Y-87901024D01*
X91992406Y-87909307D01*
X92149971Y-88074478D01*
X92157942Y-88081530D01*
X92341082Y-88217790D01*
X92350119Y-88223394D01*
X92553606Y-88326851D01*
X92563459Y-88330852D01*
X92781461Y-88398544D01*
X92791848Y-88400828D01*
X92818043Y-88404300D01*
X92832207Y-88402104D01*
X92836000Y-88388919D01*
X92836000Y-86992115D01*
X92831525Y-86976876D01*
X92830135Y-86975671D01*
X92822452Y-86974000D01*
X90822115Y-86974000D01*
X90806876Y-86978475D01*
X90805671Y-86979865D01*
X90804000Y-86987548D01*
X90804000Y-88387282D01*
X90296000Y-88387282D01*
X90296000Y-86447885D01*
X90804000Y-86447885D01*
X90808475Y-86463124D01*
X90809865Y-86464329D01*
X90817548Y-86466000D01*
X92817885Y-86466000D01*
X92833124Y-86461525D01*
X92834329Y-86460135D01*
X92836000Y-86452452D01*
X92836000Y-85052718D01*
X92832027Y-85039187D01*
X92821420Y-85037662D01*
X92689160Y-85065413D01*
X92678963Y-85068473D01*
X92466660Y-85152315D01*
X92457124Y-85157049D01*
X92261975Y-85275468D01*
X92253382Y-85281734D01*
X92080973Y-85431342D01*
X92073553Y-85438972D01*
X91928817Y-85615491D01*
X91921055Y-85626785D01*
X91865987Y-85671595D01*
X91795434Y-85679520D01*
X91731797Y-85648043D01*
X91712696Y-85625784D01*
X91654253Y-85538976D01*
X91647594Y-85530693D01*
X91490029Y-85365522D01*
X91482058Y-85358470D01*
X91298918Y-85222210D01*
X91289881Y-85216606D01*
X91086394Y-85113149D01*
X91076541Y-85109148D01*
X90858539Y-85041456D01*
X90848152Y-85039172D01*
X90821957Y-85035700D01*
X90807793Y-85037896D01*
X90804000Y-85051081D01*
X90804000Y-86447885D01*
X90296000Y-86447885D01*
X90296000Y-85052718D01*
X90292027Y-85039187D01*
X90281420Y-85037662D01*
X90149160Y-85065413D01*
X90138963Y-85068473D01*
X89926660Y-85152315D01*
X89917124Y-85157049D01*
X89721975Y-85275468D01*
X89713382Y-85281734D01*
X89540973Y-85431342D01*
X89533553Y-85438972D01*
X89388819Y-85615489D01*
X89381358Y-85626344D01*
X89326288Y-85671153D01*
X89255735Y-85679076D01*
X89192099Y-85647598D01*
X89173000Y-85625341D01*
X89166174Y-85615202D01*
X89111666Y-85534238D01*
X89106125Y-85528429D01*
X89013175Y-85430993D01*
X88946674Y-85361282D01*
X88754900Y-85218598D01*
X88750149Y-85216182D01*
X88750145Y-85216180D01*
X88546586Y-85112686D01*
X88546585Y-85112686D01*
X88541828Y-85110267D01*
X88397375Y-85065413D01*
X88318651Y-85040968D01*
X88318645Y-85040967D01*
X88313548Y-85039384D01*
X88186117Y-85022494D01*
X88081873Y-85008677D01*
X88081869Y-85008677D01*
X88076589Y-85007977D01*
X88071260Y-85008177D01*
X88071259Y-85008177D01*
X87973491Y-85011848D01*
X87837726Y-85016945D01*
X87750816Y-85035181D01*
X87609016Y-85064933D01*
X87609013Y-85064934D01*
X87603789Y-85066030D01*
X87381467Y-85153829D01*
X87177117Y-85277832D01*
X86996581Y-85434493D01*
X86993198Y-85438619D01*
X86993194Y-85438623D01*
X86910910Y-85538976D01*
X86845022Y-85619333D01*
X86842383Y-85623969D01*
X86841055Y-85625901D01*
X86785984Y-85670708D01*
X86715430Y-85678629D01*
X86651795Y-85647148D01*
X86632699Y-85624894D01*
X86626174Y-85615202D01*
X86571666Y-85534238D01*
X86566125Y-85528429D01*
X86473175Y-85430993D01*
X86406674Y-85361282D01*
X86214900Y-85218598D01*
X86210149Y-85216182D01*
X86210145Y-85216180D01*
X86006586Y-85112686D01*
X86006585Y-85112686D01*
X86001828Y-85110267D01*
X85857375Y-85065413D01*
X85778651Y-85040968D01*
X85778645Y-85040967D01*
X85773548Y-85039384D01*
X85646117Y-85022494D01*
X85541873Y-85008677D01*
X85541869Y-85008677D01*
X85536589Y-85007977D01*
X85531260Y-85008177D01*
X85531259Y-85008177D01*
X85433491Y-85011848D01*
X85297726Y-85016945D01*
X85210816Y-85035181D01*
X85069016Y-85064933D01*
X85069013Y-85064934D01*
X85063789Y-85066030D01*
X84841467Y-85153829D01*
X84836904Y-85156598D01*
X84836898Y-85156601D01*
X84699365Y-85240058D01*
X84630752Y-85258297D01*
X84563169Y-85236546D01*
X84518075Y-85181709D01*
X84508000Y-85132339D01*
X84508000Y-76628043D01*
X92591139Y-76628043D01*
X92593335Y-76642207D01*
X92606522Y-76646000D01*
X93777885Y-76646000D01*
X93793124Y-76641525D01*
X93794329Y-76640135D01*
X93796000Y-76632452D01*
X93796000Y-76627885D01*
X94304000Y-76627885D01*
X94308475Y-76643124D01*
X94309865Y-76644329D01*
X94317548Y-76646000D01*
X95491192Y-76646000D01*
X95504723Y-76642027D01*
X95506248Y-76631420D01*
X95481523Y-76513579D01*
X95478463Y-76503383D01*
X95397737Y-76298971D01*
X95393006Y-76289439D01*
X95278984Y-76101538D01*
X95272720Y-76092948D01*
X95128673Y-75926948D01*
X95121042Y-75919528D01*
X94951089Y-75780174D01*
X94942322Y-75774150D01*
X94751318Y-75665424D01*
X94741654Y-75660959D01*
X94535059Y-75585969D01*
X94524792Y-75583198D01*
X94321826Y-75546496D01*
X94308586Y-75547915D01*
X94304000Y-75562550D01*
X94304000Y-76627885D01*
X93796000Y-76627885D01*
X93796000Y-75566151D01*
X93791690Y-75551473D01*
X93779807Y-75549410D01*
X93700675Y-75556124D01*
X93690203Y-75557914D01*
X93477465Y-75613130D01*
X93467425Y-75616665D01*
X93267030Y-75706937D01*
X93257744Y-75712106D01*
X93075425Y-75834850D01*
X93067130Y-75841519D01*
X92908100Y-75993228D01*
X92901059Y-76001186D01*
X92769859Y-76177525D01*
X92764255Y-76186562D01*
X92664643Y-76382484D01*
X92660643Y-76392335D01*
X92595466Y-76602240D01*
X92593183Y-76612624D01*
X92591139Y-76628043D01*
X84508000Y-76628043D01*
X84508000Y-73070671D01*
X84528002Y-73002550D01*
X84581658Y-72956057D01*
X84651932Y-72945953D01*
X84709212Y-72969581D01*
X84725100Y-72981402D01*
X84729851Y-72983818D01*
X84729855Y-72983820D01*
X84933414Y-73087314D01*
X84938172Y-73089733D01*
X85052312Y-73125175D01*
X85161349Y-73159032D01*
X85161355Y-73159033D01*
X85166452Y-73160616D01*
X85293883Y-73177506D01*
X85398127Y-73191323D01*
X85398131Y-73191323D01*
X85403411Y-73192023D01*
X85408740Y-73191823D01*
X85408741Y-73191823D01*
X85506509Y-73188152D01*
X85642274Y-73183055D01*
X85742126Y-73162104D01*
X85870984Y-73135067D01*
X85870987Y-73135066D01*
X85876211Y-73133970D01*
X86098533Y-73046171D01*
X86302883Y-72922168D01*
X86417898Y-72822363D01*
X86479386Y-72769007D01*
X86479388Y-72769005D01*
X86483419Y-72765507D01*
X86486802Y-72761381D01*
X86486806Y-72761377D01*
X86631593Y-72584795D01*
X86634978Y-72580667D01*
X86637619Y-72576027D01*
X86639244Y-72573663D01*
X86694312Y-72528852D01*
X86764865Y-72520927D01*
X86828502Y-72552403D01*
X86847604Y-72574662D01*
X86905751Y-72661029D01*
X86912406Y-72669307D01*
X87069971Y-72834478D01*
X87077942Y-72841530D01*
X87261082Y-72977790D01*
X87270119Y-72983394D01*
X87473606Y-73086851D01*
X87483459Y-73090852D01*
X87701461Y-73158544D01*
X87711848Y-73160828D01*
X87738043Y-73164300D01*
X87752207Y-73162104D01*
X87756000Y-73148919D01*
X87756000Y-69812718D01*
X87752027Y-69799187D01*
X87741420Y-69797662D01*
X87609160Y-69825413D01*
X87598963Y-69828473D01*
X87386660Y-69912315D01*
X87377124Y-69917049D01*
X87181975Y-70035468D01*
X87173382Y-70041734D01*
X87000973Y-70191342D01*
X86993553Y-70198972D01*
X86848819Y-70375489D01*
X86841358Y-70386344D01*
X86786288Y-70431153D01*
X86715735Y-70439076D01*
X86652099Y-70407598D01*
X86633000Y-70385341D01*
X86574646Y-70298665D01*
X86571666Y-70294238D01*
X86406674Y-70121282D01*
X86214900Y-69978598D01*
X86210149Y-69976182D01*
X86210145Y-69976180D01*
X86006586Y-69872686D01*
X86006585Y-69872686D01*
X86001828Y-69870267D01*
X85857375Y-69825413D01*
X85778651Y-69800968D01*
X85778645Y-69800967D01*
X85773548Y-69799384D01*
X85646117Y-69782494D01*
X85541873Y-69768677D01*
X85541869Y-69768677D01*
X85536589Y-69767977D01*
X85531260Y-69768177D01*
X85531259Y-69768177D01*
X85433491Y-69771848D01*
X85297726Y-69776945D01*
X85210816Y-69795181D01*
X85069016Y-69824933D01*
X85069013Y-69824934D01*
X85063789Y-69826030D01*
X84841467Y-69913829D01*
X84836904Y-69916598D01*
X84836898Y-69916601D01*
X84699365Y-70000058D01*
X84630752Y-70018297D01*
X84563169Y-69996546D01*
X84518075Y-69941709D01*
X84508000Y-69892339D01*
X84508000Y-60049328D01*
X84509500Y-60029943D01*
X84511805Y-60015141D01*
X84511805Y-60015139D01*
X84513186Y-60006270D01*
X84512022Y-59997366D01*
X84511195Y-59991041D01*
X84510452Y-59965713D01*
X84522543Y-59796657D01*
X84525101Y-59778863D01*
X84566520Y-59588462D01*
X84571586Y-59571212D01*
X84639682Y-59388642D01*
X84647149Y-59372290D01*
X84740531Y-59201271D01*
X84750248Y-59186152D01*
X84867023Y-59030158D01*
X84878796Y-59016572D01*
X85016572Y-58878796D01*
X85030158Y-58867023D01*
X85076484Y-58832344D01*
X85186152Y-58750248D01*
X85201266Y-58740534D01*
X85306980Y-58682810D01*
X85372290Y-58647149D01*
X85388642Y-58639682D01*
X85571212Y-58571586D01*
X85588460Y-58566521D01*
X85778863Y-58525101D01*
X85796658Y-58522543D01*
X85845557Y-58519046D01*
X85958631Y-58510959D01*
X85976533Y-58511703D01*
X85984858Y-58511805D01*
X85993730Y-58513186D01*
X86002632Y-58512022D01*
X86002635Y-58512022D01*
X86025251Y-58509064D01*
X86041589Y-58508000D01*
X113950672Y-58508000D01*
X113970056Y-58509500D01*
G37*
%TD.AperFunction*%
M02*
