%TF.GenerationSoftware,KiCad,Pcbnew,6.0.1-79c1e3a40b~116~ubuntu20.04.1*%
%TF.CreationDate,2022-02-07T15:26:07-03:00*%
%TF.ProjectId,v_simple,765f7369-6d70-46c6-952e-6b696361645f,rev?*%
%TF.SameCoordinates,Original*%
%TF.FileFunction,Legend,Bot*%
%TF.FilePolarity,Positive*%
%FSLAX46Y46*%
G04 Gerber Fmt 4.6, Leading zero omitted, Abs format (unit mm)*
G04 Created by KiCad (PCBNEW 6.0.1-79c1e3a40b~116~ubuntu20.04.1) date 2022-02-07 15:26:07*
%MOMM*%
%LPD*%
G01*
G04 APERTURE LIST*
G04 Aperture macros list*
%AMRoundRect*
0 Rectangle with rounded corners*
0 $1 Rounding radius*
0 $2 $3 $4 $5 $6 $7 $8 $9 X,Y pos of 4 corners*
0 Add a 4 corners polygon primitive as box body*
4,1,4,$2,$3,$4,$5,$6,$7,$8,$9,$2,$3,0*
0 Add four circle primitives for the rounded corners*
1,1,$1+$1,$2,$3*
1,1,$1+$1,$4,$5*
1,1,$1+$1,$6,$7*
1,1,$1+$1,$8,$9*
0 Add four rect primitives between the rounded corners*
20,1,$1+$1,$2,$3,$4,$5,0*
20,1,$1+$1,$4,$5,$6,$7,0*
20,1,$1+$1,$6,$7,$8,$9,0*
20,1,$1+$1,$8,$9,$2,$3,0*%
G04 Aperture macros list end*
%ADD10C,0.150000*%
%TA.AperFunction,Profile*%
%ADD11C,0.100000*%
%TD*%
%ADD12C,0.120000*%
%ADD13O,1.950000X1.700000*%
%ADD14RoundRect,0.250000X0.725000X-0.600000X0.725000X0.600000X-0.725000X0.600000X-0.725000X-0.600000X0*%
%ADD15RoundRect,0.250000X0.600000X0.725000X-0.600000X0.725000X-0.600000X-0.725000X0.600000X-0.725000X0*%
%ADD16O,1.700000X1.950000*%
%ADD17O,1.800000X2.400000*%
%ADD18RoundRect,0.250000X-0.600000X-0.725000X0.600000X-0.725000X0.600000X0.725000X-0.600000X0.725000X0*%
%ADD19RoundRect,0.250000X-0.725000X0.600000X-0.725000X-0.600000X0.725000X-0.600000X0.725000X0.600000X0*%
G04 APERTURE END LIST*
D10*
X109364404Y-90837380D02*
X109364404Y-89837380D01*
X109031071Y-90551666D01*
X108697738Y-89837380D01*
X108697738Y-90837380D01*
X108078690Y-90837380D02*
X108173928Y-90789761D01*
X108221547Y-90742142D01*
X108269166Y-90646904D01*
X108269166Y-90361190D01*
X108221547Y-90265952D01*
X108173928Y-90218333D01*
X108078690Y-90170714D01*
X107935833Y-90170714D01*
X107840595Y-90218333D01*
X107792976Y-90265952D01*
X107745357Y-90361190D01*
X107745357Y-90646904D01*
X107792976Y-90742142D01*
X107840595Y-90789761D01*
X107935833Y-90837380D01*
X108078690Y-90837380D01*
X106888214Y-90837380D02*
X106888214Y-89837380D01*
X106888214Y-90789761D02*
X106983452Y-90837380D01*
X107173928Y-90837380D01*
X107269166Y-90789761D01*
X107316785Y-90742142D01*
X107364404Y-90646904D01*
X107364404Y-90361190D01*
X107316785Y-90265952D01*
X107269166Y-90218333D01*
X107173928Y-90170714D01*
X106983452Y-90170714D01*
X106888214Y-90218333D01*
X105983452Y-90170714D02*
X105983452Y-90837380D01*
X106412023Y-90170714D02*
X106412023Y-90694523D01*
X106364404Y-90789761D01*
X106269166Y-90837380D01*
X106126309Y-90837380D01*
X106031071Y-90789761D01*
X105983452Y-90742142D01*
X105364404Y-90837380D02*
X105459642Y-90789761D01*
X105507261Y-90694523D01*
X105507261Y-89837380D01*
X104554880Y-90837380D02*
X104554880Y-90313571D01*
X104602500Y-90218333D01*
X104697738Y-90170714D01*
X104888214Y-90170714D01*
X104983452Y-90218333D01*
X104554880Y-90789761D02*
X104650119Y-90837380D01*
X104888214Y-90837380D01*
X104983452Y-90789761D01*
X105031071Y-90694523D01*
X105031071Y-90599285D01*
X104983452Y-90504047D01*
X104888214Y-90456428D01*
X104650119Y-90456428D01*
X104554880Y-90408809D01*
X104078690Y-90837380D02*
X104078690Y-90170714D01*
X104078690Y-90361190D02*
X104031071Y-90265952D01*
X103983452Y-90218333D01*
X103888214Y-90170714D01*
X103792976Y-90170714D01*
X109364404Y-92447380D02*
X109364404Y-91447380D01*
X109126309Y-91447380D01*
X108983452Y-91495000D01*
X108888214Y-91590238D01*
X108840595Y-91685476D01*
X108792976Y-91875952D01*
X108792976Y-92018809D01*
X108840595Y-92209285D01*
X108888214Y-92304523D01*
X108983452Y-92399761D01*
X109126309Y-92447380D01*
X109364404Y-92447380D01*
X108364404Y-92447380D02*
X108364404Y-91780714D01*
X108364404Y-91447380D02*
X108412023Y-91495000D01*
X108364404Y-91542619D01*
X108316785Y-91495000D01*
X108364404Y-91447380D01*
X108364404Y-91542619D01*
X107459642Y-92447380D02*
X107459642Y-91923571D01*
X107507261Y-91828333D01*
X107602500Y-91780714D01*
X107792976Y-91780714D01*
X107888214Y-91828333D01*
X107459642Y-92399761D02*
X107554880Y-92447380D01*
X107792976Y-92447380D01*
X107888214Y-92399761D01*
X107935833Y-92304523D01*
X107935833Y-92209285D01*
X107888214Y-92114047D01*
X107792976Y-92066428D01*
X107554880Y-92066428D01*
X107459642Y-92018809D01*
X106554880Y-91780714D02*
X106554880Y-92590238D01*
X106602500Y-92685476D01*
X106650119Y-92733095D01*
X106745357Y-92780714D01*
X106888214Y-92780714D01*
X106983452Y-92733095D01*
X106554880Y-92399761D02*
X106650119Y-92447380D01*
X106840595Y-92447380D01*
X106935833Y-92399761D01*
X106983452Y-92352142D01*
X107031071Y-92256904D01*
X107031071Y-91971190D01*
X106983452Y-91875952D01*
X106935833Y-91828333D01*
X106840595Y-91780714D01*
X106650119Y-91780714D01*
X106554880Y-91828333D01*
X106078690Y-91780714D02*
X106078690Y-92447380D01*
X106078690Y-91875952D02*
X106031071Y-91828333D01*
X105935833Y-91780714D01*
X105792976Y-91780714D01*
X105697738Y-91828333D01*
X105650119Y-91923571D01*
X105650119Y-92447380D01*
X105031071Y-92447380D02*
X105126309Y-92399761D01*
X105173928Y-92352142D01*
X105221547Y-92256904D01*
X105221547Y-91971190D01*
X105173928Y-91875952D01*
X105126309Y-91828333D01*
X105031071Y-91780714D01*
X104888214Y-91780714D01*
X104792976Y-91828333D01*
X104745357Y-91875952D01*
X104697738Y-91971190D01*
X104697738Y-92256904D01*
X104745357Y-92352142D01*
X104792976Y-92399761D01*
X104888214Y-92447380D01*
X105031071Y-92447380D01*
X104316785Y-92399761D02*
X104221547Y-92447380D01*
X104031071Y-92447380D01*
X103935833Y-92399761D01*
X103888214Y-92304523D01*
X103888214Y-92256904D01*
X103935833Y-92161666D01*
X104031071Y-92114047D01*
X104173928Y-92114047D01*
X104269166Y-92066428D01*
X104316785Y-91971190D01*
X104316785Y-91923571D01*
X104269166Y-91828333D01*
X104173928Y-91780714D01*
X104031071Y-91780714D01*
X103935833Y-91828333D01*
X103602500Y-91780714D02*
X103221547Y-91780714D01*
X103459642Y-91447380D02*
X103459642Y-92304523D01*
X103412023Y-92399761D01*
X103316785Y-92447380D01*
X103221547Y-92447380D01*
X102888214Y-92447380D02*
X102888214Y-91780714D01*
X102888214Y-91447380D02*
X102935833Y-91495000D01*
X102888214Y-91542619D01*
X102840595Y-91495000D01*
X102888214Y-91447380D01*
X102888214Y-91542619D01*
X101983452Y-92399761D02*
X102078690Y-92447380D01*
X102269166Y-92447380D01*
X102364404Y-92399761D01*
X102412023Y-92352142D01*
X102459642Y-92256904D01*
X102459642Y-91971190D01*
X102412023Y-91875952D01*
X102364404Y-91828333D01*
X102269166Y-91780714D01*
X102078690Y-91780714D01*
X101983452Y-91828333D01*
X100316785Y-92447380D02*
X100792976Y-92447380D01*
X100792976Y-91447380D01*
X99554880Y-92447380D02*
X99554880Y-91923571D01*
X99602500Y-91828333D01*
X99697738Y-91780714D01*
X99888214Y-91780714D01*
X99983452Y-91828333D01*
X99554880Y-92399761D02*
X99650119Y-92447380D01*
X99888214Y-92447380D01*
X99983452Y-92399761D01*
X100031071Y-92304523D01*
X100031071Y-92209285D01*
X99983452Y-92114047D01*
X99888214Y-92066428D01*
X99650119Y-92066428D01*
X99554880Y-92018809D01*
X99078690Y-92447380D02*
X99078690Y-91447380D01*
X99078690Y-91828333D02*
X98983452Y-91780714D01*
X98792976Y-91780714D01*
X98697738Y-91828333D01*
X98650119Y-91875952D01*
X98602500Y-91971190D01*
X98602500Y-92256904D01*
X98650119Y-92352142D01*
X98697738Y-92399761D01*
X98792976Y-92447380D01*
X98983452Y-92447380D01*
X99078690Y-92399761D01*
X108792976Y-93962142D02*
X108840595Y-94009761D01*
X108983452Y-94057380D01*
X109078690Y-94057380D01*
X109221547Y-94009761D01*
X109316785Y-93914523D01*
X109364404Y-93819285D01*
X109412023Y-93628809D01*
X109412023Y-93485952D01*
X109364404Y-93295476D01*
X109316785Y-93200238D01*
X109221547Y-93105000D01*
X109078690Y-93057380D01*
X108983452Y-93057380D01*
X108840595Y-93105000D01*
X108792976Y-93152619D01*
X108364404Y-93676428D02*
X107602500Y-93676428D01*
X107983452Y-94057380D02*
X107983452Y-93295476D01*
X109364404Y-94667380D02*
X109364404Y-95476904D01*
X109316785Y-95572142D01*
X109269166Y-95619761D01*
X109173928Y-95667380D01*
X108983452Y-95667380D01*
X108888214Y-95619761D01*
X108840595Y-95572142D01*
X108792976Y-95476904D01*
X108792976Y-94667380D01*
X108316785Y-95667380D02*
X108316785Y-94667380D01*
X108078690Y-94667380D01*
X107935833Y-94715000D01*
X107840595Y-94810238D01*
X107792976Y-94905476D01*
X107745357Y-95095952D01*
X107745357Y-95238809D01*
X107792976Y-95429285D01*
X107840595Y-95524523D01*
X107935833Y-95619761D01*
X108078690Y-95667380D01*
X108316785Y-95667380D01*
X107316785Y-95667380D02*
X107316785Y-94667380D01*
X107078690Y-94667380D01*
X106935833Y-94715000D01*
X106840595Y-94810238D01*
X106792976Y-94905476D01*
X106745357Y-95095952D01*
X106745357Y-95238809D01*
X106792976Y-95429285D01*
X106840595Y-95524523D01*
X106935833Y-95619761D01*
X107078690Y-95667380D01*
X107316785Y-95667380D01*
X94864404Y-90313571D02*
X94531071Y-90313571D01*
X94388214Y-90837380D02*
X94864404Y-90837380D01*
X94864404Y-89837380D01*
X94388214Y-89837380D01*
X93959642Y-90837380D02*
X93959642Y-89837380D01*
X93626309Y-90551666D01*
X93292976Y-89837380D01*
X93292976Y-90837380D01*
X92150119Y-90932619D02*
X92245357Y-90885000D01*
X92340595Y-90789761D01*
X92483452Y-90646904D01*
X92578690Y-90599285D01*
X92673928Y-90599285D01*
X92626309Y-90837380D02*
X92721547Y-90789761D01*
X92816785Y-90694523D01*
X92864404Y-90504047D01*
X92864404Y-90170714D01*
X92816785Y-89980238D01*
X92721547Y-89885000D01*
X92626309Y-89837380D01*
X92435833Y-89837380D01*
X92340595Y-89885000D01*
X92245357Y-89980238D01*
X92197738Y-90170714D01*
X92197738Y-90504047D01*
X92245357Y-90694523D01*
X92340595Y-90789761D01*
X92435833Y-90837380D01*
X92626309Y-90837380D01*
X91769166Y-90456428D02*
X91007261Y-90456428D01*
X90578690Y-90789761D02*
X90483452Y-90837380D01*
X90292976Y-90837380D01*
X90197738Y-90789761D01*
X90150119Y-90694523D01*
X90150119Y-90646904D01*
X90197738Y-90551666D01*
X90292976Y-90504047D01*
X90435833Y-90504047D01*
X90531071Y-90456428D01*
X90578690Y-90361190D01*
X90578690Y-90313571D01*
X90531071Y-90218333D01*
X90435833Y-90170714D01*
X90292976Y-90170714D01*
X90197738Y-90218333D01*
X95007261Y-91447380D02*
X94673928Y-92447380D01*
X94340595Y-91447380D01*
X93816785Y-91447380D02*
X93721547Y-91447380D01*
X93626309Y-91495000D01*
X93578690Y-91542619D01*
X93531071Y-91637857D01*
X93483452Y-91828333D01*
X93483452Y-92066428D01*
X93531071Y-92256904D01*
X93578690Y-92352142D01*
X93626309Y-92399761D01*
X93721547Y-92447380D01*
X93816785Y-92447380D01*
X93912023Y-92399761D01*
X93959642Y-92352142D01*
X94007261Y-92256904D01*
X94054880Y-92066428D01*
X94054880Y-91828333D01*
X94007261Y-91637857D01*
X93959642Y-91542619D01*
X93912023Y-91495000D01*
X93816785Y-91447380D01*
X93054880Y-92352142D02*
X93007261Y-92399761D01*
X93054880Y-92447380D01*
X93102500Y-92399761D01*
X93054880Y-92352142D01*
X93054880Y-92447380D01*
X92054880Y-92447380D02*
X92626309Y-92447380D01*
X92340595Y-92447380D02*
X92340595Y-91447380D01*
X92435833Y-91590238D01*
X92531071Y-91685476D01*
X92626309Y-91733095D01*
X91626309Y-92352142D02*
X91578690Y-92399761D01*
X91626309Y-92447380D01*
X91673928Y-92399761D01*
X91626309Y-92352142D01*
X91626309Y-92447380D01*
X90959642Y-91447380D02*
X90864404Y-91447380D01*
X90769166Y-91495000D01*
X90721547Y-91542619D01*
X90673928Y-91637857D01*
X90626309Y-91828333D01*
X90626309Y-92066428D01*
X90673928Y-92256904D01*
X90721547Y-92352142D01*
X90769166Y-92399761D01*
X90864404Y-92447380D01*
X90959642Y-92447380D01*
X91054880Y-92399761D01*
X91102500Y-92352142D01*
X91150119Y-92256904D01*
X91197738Y-92066428D01*
X91197738Y-91828333D01*
X91150119Y-91637857D01*
X91102500Y-91542619D01*
X91054880Y-91495000D01*
X90959642Y-91447380D01*
X94912023Y-93152619D02*
X94864404Y-93105000D01*
X94769166Y-93057380D01*
X94531071Y-93057380D01*
X94435833Y-93105000D01*
X94388214Y-93152619D01*
X94340595Y-93247857D01*
X94340595Y-93343095D01*
X94388214Y-93485952D01*
X94959642Y-94057380D01*
X94340595Y-94057380D01*
X93197738Y-93009761D02*
X94054880Y-94295476D01*
X92912023Y-93152619D02*
X92864404Y-93105000D01*
X92769166Y-93057380D01*
X92531071Y-93057380D01*
X92435833Y-93105000D01*
X92388214Y-93152619D01*
X92340595Y-93247857D01*
X92340595Y-93343095D01*
X92388214Y-93485952D01*
X92959642Y-94057380D01*
X92340595Y-94057380D01*
X91721547Y-93057380D02*
X91626309Y-93057380D01*
X91531071Y-93105000D01*
X91483452Y-93152619D01*
X91435833Y-93247857D01*
X91388214Y-93438333D01*
X91388214Y-93676428D01*
X91435833Y-93866904D01*
X91483452Y-93962142D01*
X91531071Y-94009761D01*
X91626309Y-94057380D01*
X91721547Y-94057380D01*
X91816785Y-94009761D01*
X91864404Y-93962142D01*
X91912023Y-93866904D01*
X91959642Y-93676428D01*
X91959642Y-93438333D01*
X91912023Y-93247857D01*
X91864404Y-93152619D01*
X91816785Y-93105000D01*
X91721547Y-93057380D01*
X91007261Y-93152619D02*
X90959642Y-93105000D01*
X90864404Y-93057380D01*
X90626309Y-93057380D01*
X90531071Y-93105000D01*
X90483452Y-93152619D01*
X90435833Y-93247857D01*
X90435833Y-93343095D01*
X90483452Y-93485952D01*
X91054880Y-94057380D01*
X90435833Y-94057380D01*
X90054880Y-93152619D02*
X90007261Y-93105000D01*
X89912023Y-93057380D01*
X89673928Y-93057380D01*
X89578690Y-93105000D01*
X89531071Y-93152619D01*
X89483452Y-93247857D01*
X89483452Y-93343095D01*
X89531071Y-93485952D01*
X90102500Y-94057380D01*
X89483452Y-94057380D01*
X94959642Y-94667380D02*
X94721547Y-95667380D01*
X94531071Y-94953095D01*
X94340595Y-95667380D01*
X94102500Y-94667380D01*
X93769166Y-95381666D02*
X93292976Y-95381666D01*
X93864404Y-95667380D02*
X93531071Y-94667380D01*
X93197738Y-95667380D01*
X92292976Y-95572142D02*
X92340595Y-95619761D01*
X92483452Y-95667380D01*
X92578690Y-95667380D01*
X92721547Y-95619761D01*
X92816785Y-95524523D01*
X92864404Y-95429285D01*
X92912023Y-95238809D01*
X92912023Y-95095952D01*
X92864404Y-94905476D01*
X92816785Y-94810238D01*
X92721547Y-94715000D01*
X92578690Y-94667380D01*
X92483452Y-94667380D01*
X92340595Y-94715000D01*
X92292976Y-94762619D01*
X102390476Y-83804761D02*
X102247619Y-83852380D01*
X102009523Y-83852380D01*
X101914285Y-83804761D01*
X101866666Y-83757142D01*
X101819047Y-83661904D01*
X101819047Y-83566666D01*
X101866666Y-83471428D01*
X101914285Y-83423809D01*
X102009523Y-83376190D01*
X102200000Y-83328571D01*
X102295238Y-83280952D01*
X102342857Y-83233333D01*
X102390476Y-83138095D01*
X102390476Y-83042857D01*
X102342857Y-82947619D01*
X102295238Y-82900000D01*
X102200000Y-82852380D01*
X101961904Y-82852380D01*
X101819047Y-82900000D01*
X100819047Y-83757142D02*
X100866666Y-83804761D01*
X101009523Y-83852380D01*
X101104761Y-83852380D01*
X101247619Y-83804761D01*
X101342857Y-83709523D01*
X101390476Y-83614285D01*
X101438095Y-83423809D01*
X101438095Y-83280952D01*
X101390476Y-83090476D01*
X101342857Y-82995238D01*
X101247619Y-82900000D01*
X101104761Y-82852380D01*
X101009523Y-82852380D01*
X100866666Y-82900000D01*
X100819047Y-82947619D01*
X99914285Y-83852380D02*
X100390476Y-83852380D01*
X100390476Y-82852380D01*
X102414285Y-81304761D02*
X102271428Y-81352380D01*
X102033333Y-81352380D01*
X101938095Y-81304761D01*
X101890476Y-81257142D01*
X101842857Y-81161904D01*
X101842857Y-81066666D01*
X101890476Y-80971428D01*
X101938095Y-80923809D01*
X102033333Y-80876190D01*
X102223809Y-80828571D01*
X102319047Y-80780952D01*
X102366666Y-80733333D01*
X102414285Y-80638095D01*
X102414285Y-80542857D01*
X102366666Y-80447619D01*
X102319047Y-80400000D01*
X102223809Y-80352380D01*
X101985714Y-80352380D01*
X101842857Y-80400000D01*
X101414285Y-81352380D02*
X101414285Y-80352380D01*
X101176190Y-80352380D01*
X101033333Y-80400000D01*
X100938095Y-80495238D01*
X100890476Y-80590476D01*
X100842857Y-80780952D01*
X100842857Y-80923809D01*
X100890476Y-81114285D01*
X100938095Y-81209523D01*
X101033333Y-81304761D01*
X101176190Y-81352380D01*
X101414285Y-81352380D01*
X100461904Y-81066666D02*
X99985714Y-81066666D01*
X100557142Y-81352380D02*
X100223809Y-80352380D01*
X99890476Y-81352380D01*
X101861904Y-77700000D02*
X101957142Y-77652380D01*
X102100000Y-77652380D01*
X102242857Y-77700000D01*
X102338095Y-77795238D01*
X102385714Y-77890476D01*
X102433333Y-78080952D01*
X102433333Y-78223809D01*
X102385714Y-78414285D01*
X102338095Y-78509523D01*
X102242857Y-78604761D01*
X102100000Y-78652380D01*
X102004761Y-78652380D01*
X101861904Y-78604761D01*
X101814285Y-78557142D01*
X101814285Y-78223809D01*
X102004761Y-78223809D01*
X101385714Y-78652380D02*
X101385714Y-77652380D01*
X100814285Y-78652380D01*
X100814285Y-77652380D01*
X100338095Y-78652380D02*
X100338095Y-77652380D01*
X100100000Y-77652380D01*
X99957142Y-77700000D01*
X99861904Y-77795238D01*
X99814285Y-77890476D01*
X99766666Y-78080952D01*
X99766666Y-78223809D01*
X99814285Y-78414285D01*
X99861904Y-78509523D01*
X99957142Y-78604761D01*
X100100000Y-78652380D01*
X100338095Y-78652380D01*
X101790476Y-75152380D02*
X102266666Y-75152380D01*
X102314285Y-75628571D01*
X102266666Y-75580952D01*
X102171428Y-75533333D01*
X101933333Y-75533333D01*
X101838095Y-75580952D01*
X101790476Y-75628571D01*
X101742857Y-75723809D01*
X101742857Y-75961904D01*
X101790476Y-76057142D01*
X101838095Y-76104761D01*
X101933333Y-76152380D01*
X102171428Y-76152380D01*
X102266666Y-76104761D01*
X102314285Y-76057142D01*
X101457142Y-75152380D02*
X101123809Y-76152380D01*
X100790476Y-75152380D01*
D11*
X86000000Y-58000000D02*
X114000000Y-58000000D01*
X114000000Y-100000000D02*
X86000000Y-100000000D01*
X116000000Y-60000000D02*
G75*
G03*
X114000000Y-58000000I-1999999J1D01*
G01*
X84000000Y-98000000D02*
X84000000Y-60000000D01*
X116000000Y-98000000D02*
X116000000Y-60000000D01*
X84000000Y-98000000D02*
G75*
G03*
X86000000Y-100000000I1999999J-1D01*
G01*
X114000000Y-100000000D02*
G75*
G03*
X116000000Y-98000000I1J1999999D01*
G01*
X86000000Y-58000000D02*
G75*
G03*
X84000000Y-60000000I-1J-1999999D01*
G01*
G36*
X110721879Y-65823262D02*
G01*
X110707681Y-65989878D01*
X110679193Y-66136753D01*
X110634609Y-66269822D01*
X110572124Y-66395021D01*
X110489933Y-66518285D01*
X110442369Y-66579684D01*
X110360959Y-66671445D01*
X110272636Y-66752175D01*
X110166507Y-66832456D01*
X110034993Y-66914687D01*
X109845126Y-67003455D01*
X109634141Y-67071371D01*
X109401547Y-67118585D01*
X109146855Y-67145248D01*
X109085980Y-67149011D01*
X109079314Y-67345413D01*
X109077199Y-67407729D01*
X109074420Y-67480362D01*
X109073994Y-67487793D01*
X109073494Y-67496505D01*
X109072247Y-67518231D01*
X109071424Y-67532564D01*
X109070551Y-67547782D01*
X109069678Y-67563001D01*
X109068299Y-67587020D01*
X109067183Y-67597963D01*
X109063304Y-67636010D01*
X109059442Y-67673886D01*
X109055644Y-67695616D01*
X109048009Y-67739293D01*
X109046536Y-67747721D01*
X109043823Y-67757759D01*
X109029426Y-67811025D01*
X109028273Y-67815289D01*
X109017481Y-67844750D01*
X109003340Y-67883352D01*
X108970428Y-67958673D01*
X108956108Y-67986039D01*
X108936138Y-68024202D01*
X108932191Y-68031744D01*
X108888342Y-68092570D01*
X108840855Y-68158443D01*
X108767154Y-68229539D01*
X108754936Y-68241325D01*
X108727999Y-68267310D01*
X108698395Y-68287166D01*
X108649461Y-68319987D01*
X108602794Y-68351288D01*
X108597792Y-68354643D01*
X108576256Y-68363970D01*
X108505974Y-68394408D01*
X108460574Y-68414070D01*
X108454404Y-68416742D01*
X108415853Y-68428911D01*
X108390113Y-68437036D01*
X108368301Y-68443233D01*
X108316342Y-68457995D01*
X108300676Y-68462446D01*
X108215392Y-68482203D01*
X108127344Y-68497437D01*
X108029613Y-68509278D01*
X107915281Y-68518856D01*
X107777430Y-68527302D01*
X107773167Y-68527532D01*
X107580051Y-68535427D01*
X107390364Y-68538439D01*
X107209448Y-68536692D01*
X107042644Y-68530308D01*
X106895293Y-68519411D01*
X106772739Y-68504125D01*
X106734490Y-68498003D01*
X106663080Y-68486737D01*
X106601338Y-68477192D01*
X106559451Y-68470953D01*
X106498350Y-68462272D01*
X106479886Y-68531305D01*
X106451094Y-68593378D01*
X106397920Y-68649435D01*
X106330016Y-68684589D01*
X106314103Y-68693734D01*
X106293245Y-68724921D01*
X106273633Y-68781472D01*
X106265639Y-68805180D01*
X106238780Y-68866055D01*
X106201764Y-68936285D01*
X106159760Y-69005692D01*
X106155916Y-69011534D01*
X106100002Y-69088486D01*
X106031721Y-69171135D01*
X105956081Y-69254403D01*
X105878090Y-69333210D01*
X105802756Y-69402479D01*
X105735088Y-69457130D01*
X105680094Y-69492086D01*
X105646295Y-69506007D01*
X105592845Y-69520741D01*
X105537944Y-69529848D01*
X105489248Y-69532568D01*
X105454415Y-69528142D01*
X105441103Y-69515808D01*
X105432127Y-69503831D01*
X105404136Y-69491601D01*
X105371186Y-69471104D01*
X105342003Y-69429291D01*
X105331397Y-69408874D01*
X105312163Y-69386993D01*
X105291463Y-69387812D01*
X105277868Y-69392763D01*
X105226122Y-69402261D01*
X105163432Y-69405714D01*
X105103322Y-69402805D01*
X105059313Y-69393221D01*
X105050360Y-69389117D01*
X105002171Y-69352536D01*
X104967443Y-69302526D01*
X104954105Y-69249891D01*
X104954569Y-69237265D01*
X104960690Y-69206342D01*
X104976104Y-69173423D01*
X105003571Y-69134942D01*
X105045851Y-69087334D01*
X105105706Y-69027031D01*
X105185895Y-68950469D01*
X105223447Y-68914823D01*
X105293828Y-68845342D01*
X105343652Y-68791335D01*
X105375132Y-68750303D01*
X105390483Y-68719748D01*
X105406979Y-68665999D01*
X105338302Y-68639771D01*
X105315036Y-68629211D01*
X105259495Y-68594988D01*
X105210786Y-68554704D01*
X105185053Y-68527843D01*
X105163035Y-68496430D01*
X105153813Y-68461472D01*
X105151948Y-68409554D01*
X105151950Y-68405632D01*
X105151966Y-68405192D01*
X105182385Y-68405192D01*
X105193080Y-68448396D01*
X105227838Y-68499655D01*
X105281101Y-68547141D01*
X105347096Y-68584568D01*
X105392266Y-68600032D01*
X105453529Y-68613662D01*
X105518755Y-68622656D01*
X105581211Y-68626621D01*
X105634160Y-68625161D01*
X105670869Y-68617879D01*
X105684602Y-68604382D01*
X105682452Y-68596973D01*
X105666642Y-68575305D01*
X105662440Y-68569707D01*
X105649443Y-68537260D01*
X105640009Y-68492772D01*
X105637118Y-68472789D01*
X105627968Y-68441435D01*
X105622444Y-68437221D01*
X105679554Y-68437221D01*
X105679829Y-68495600D01*
X105708061Y-68551984D01*
X105762661Y-68603825D01*
X105763649Y-68604382D01*
X105842041Y-68648578D01*
X105920511Y-68673238D01*
X106020505Y-68686861D01*
X106123650Y-68686124D01*
X106217256Y-68670292D01*
X106293111Y-68641217D01*
X106360544Y-68598378D01*
X106409878Y-68547515D01*
X106437114Y-68492821D01*
X106437857Y-68457468D01*
X106956975Y-68457468D01*
X106971056Y-68459924D01*
X107008628Y-68460868D01*
X107042637Y-68460140D01*
X107059921Y-68457846D01*
X107059844Y-68457819D01*
X107115159Y-68457819D01*
X107122768Y-68465428D01*
X107130378Y-68457819D01*
X107145597Y-68457819D01*
X107153206Y-68465428D01*
X107160815Y-68457819D01*
X107176034Y-68457819D01*
X107183643Y-68465428D01*
X107191253Y-68457819D01*
X107206471Y-68457819D01*
X107214081Y-68465428D01*
X107221690Y-68457819D01*
X107252127Y-68457819D01*
X107259737Y-68465428D01*
X107267346Y-68457819D01*
X107282565Y-68457819D01*
X107290174Y-68465428D01*
X107297783Y-68457819D01*
X107328221Y-68457819D01*
X107335830Y-68465428D01*
X107343440Y-68457819D01*
X107358658Y-68457819D01*
X107366268Y-68465428D01*
X107373877Y-68457819D01*
X107389096Y-68457819D01*
X107396705Y-68465428D01*
X107404314Y-68457819D01*
X107419533Y-68457819D01*
X107427142Y-68465428D01*
X107434752Y-68457819D01*
X107449970Y-68457819D01*
X107457580Y-68465428D01*
X107465189Y-68457819D01*
X107480408Y-68457819D01*
X107488017Y-68465428D01*
X107495626Y-68457819D01*
X107510845Y-68457819D01*
X107518455Y-68465428D01*
X107526064Y-68457819D01*
X107541283Y-68457819D01*
X107548892Y-68465428D01*
X107556501Y-68457819D01*
X107556078Y-68457396D01*
X107590920Y-68457396D01*
X107592977Y-68457819D01*
X107604113Y-68460109D01*
X107640204Y-68461076D01*
X107668349Y-68460391D01*
X107684798Y-68457995D01*
X107674237Y-68454508D01*
X107639895Y-68451975D01*
X107598143Y-68454715D01*
X107590920Y-68457396D01*
X107556078Y-68457396D01*
X107548892Y-68450210D01*
X107541283Y-68457819D01*
X107526064Y-68457819D01*
X107518455Y-68450210D01*
X107510845Y-68457819D01*
X107495626Y-68457819D01*
X107488017Y-68450210D01*
X107480408Y-68457819D01*
X107465189Y-68457819D01*
X107457580Y-68450210D01*
X107449970Y-68457819D01*
X107434752Y-68457819D01*
X107427142Y-68450210D01*
X107419533Y-68457819D01*
X107404314Y-68457819D01*
X107396705Y-68450210D01*
X107389096Y-68457819D01*
X107373877Y-68457819D01*
X107366268Y-68450210D01*
X107358658Y-68457819D01*
X107343440Y-68457819D01*
X107335830Y-68450210D01*
X107328221Y-68457819D01*
X107297783Y-68457819D01*
X107290174Y-68450210D01*
X107282565Y-68457819D01*
X107267346Y-68457819D01*
X107259737Y-68450210D01*
X107252127Y-68457819D01*
X107221690Y-68457819D01*
X107214081Y-68450210D01*
X107206471Y-68457819D01*
X107191253Y-68457819D01*
X107183643Y-68450210D01*
X107176034Y-68457819D01*
X107160815Y-68457819D01*
X107153206Y-68450210D01*
X107145597Y-68457819D01*
X107130378Y-68457819D01*
X107122768Y-68450210D01*
X107115159Y-68457819D01*
X107059844Y-68457819D01*
X107050480Y-68454528D01*
X107015935Y-68451980D01*
X106966777Y-68454528D01*
X106956975Y-68457468D01*
X106437857Y-68457468D01*
X106438206Y-68440834D01*
X106805334Y-68440834D01*
X106807622Y-68445598D01*
X106833613Y-68447243D01*
X106838339Y-68447142D01*
X106858553Y-68444508D01*
X106856109Y-68442600D01*
X106886879Y-68442600D01*
X106888787Y-68444508D01*
X106894488Y-68450210D01*
X106902097Y-68442600D01*
X106901339Y-68441842D01*
X107773267Y-68441842D01*
X107775524Y-68442600D01*
X107782303Y-68444877D01*
X107815219Y-68446065D01*
X107837552Y-68445621D01*
X107856673Y-68443233D01*
X107849461Y-68439469D01*
X107825324Y-68436952D01*
X107780977Y-68439469D01*
X107773267Y-68441842D01*
X106901339Y-68441842D01*
X106894488Y-68434991D01*
X106886879Y-68442600D01*
X106856109Y-68442600D01*
X106852347Y-68439663D01*
X106836903Y-68437217D01*
X106824126Y-68438490D01*
X106806691Y-68440227D01*
X106805334Y-68440834D01*
X106438206Y-68440834D01*
X106438255Y-68438490D01*
X106432074Y-68425796D01*
X106677939Y-68425796D01*
X106678174Y-68430991D01*
X106697913Y-68433789D01*
X106712872Y-68431352D01*
X106709485Y-68427382D01*
X106734692Y-68427382D01*
X106742301Y-68434991D01*
X106749910Y-68427382D01*
X107967406Y-68427382D01*
X107975015Y-68434991D01*
X107982625Y-68427382D01*
X107981166Y-68425923D01*
X108012549Y-68425923D01*
X108013754Y-68427382D01*
X108015812Y-68429874D01*
X108043499Y-68431460D01*
X108053825Y-68431313D01*
X108074869Y-68428911D01*
X108070132Y-68424500D01*
X108055465Y-68422134D01*
X108016867Y-68424500D01*
X108012549Y-68425923D01*
X107981166Y-68425923D01*
X107975015Y-68419772D01*
X107967406Y-68427382D01*
X106749910Y-68427382D01*
X106742301Y-68419772D01*
X106734692Y-68427382D01*
X106709485Y-68427382D01*
X106707108Y-68424595D01*
X106698307Y-68422163D01*
X106677939Y-68425796D01*
X106432074Y-68425796D01*
X106425083Y-68411439D01*
X106424446Y-68410578D01*
X106586627Y-68410578D01*
X106586862Y-68415773D01*
X106606601Y-68418571D01*
X106621560Y-68416134D01*
X106616666Y-68410396D01*
X108129360Y-68410396D01*
X108131649Y-68415160D01*
X108147038Y-68416134D01*
X108157640Y-68416805D01*
X108162366Y-68416705D01*
X108182580Y-68414070D01*
X108176373Y-68409226D01*
X108160929Y-68406779D01*
X108130717Y-68409790D01*
X108129360Y-68410396D01*
X106616666Y-68410396D01*
X106615796Y-68409376D01*
X106606995Y-68406945D01*
X106586627Y-68410578D01*
X106424446Y-68410578D01*
X106416437Y-68399759D01*
X106515244Y-68399759D01*
X106536849Y-68402151D01*
X106557784Y-68400029D01*
X106556722Y-68396944D01*
X108210905Y-68396944D01*
X108213990Y-68400029D01*
X108218514Y-68404554D01*
X108224083Y-68398985D01*
X108244034Y-68398985D01*
X108256561Y-68404554D01*
X108264618Y-68403455D01*
X108266707Y-68394408D01*
X108264476Y-68392586D01*
X108246415Y-68394408D01*
X108245096Y-68396944D01*
X108244034Y-68398985D01*
X108224083Y-68398985D01*
X108226124Y-68396944D01*
X108218514Y-68389335D01*
X108210905Y-68396944D01*
X106556722Y-68396944D01*
X106555872Y-68394475D01*
X106548983Y-68392464D01*
X106517825Y-68394475D01*
X106515244Y-68399759D01*
X106416437Y-68399759D01*
X106404600Y-68383767D01*
X108304909Y-68383767D01*
X108317436Y-68389335D01*
X108325493Y-68388237D01*
X108327582Y-68379189D01*
X108325351Y-68377368D01*
X108307290Y-68379189D01*
X108304909Y-68383767D01*
X106404600Y-68383767D01*
X106397632Y-68374353D01*
X106370540Y-68344670D01*
X106464487Y-68344670D01*
X106468365Y-68358897D01*
X106471491Y-68363403D01*
X106485380Y-68374116D01*
X106487461Y-68373125D01*
X106486213Y-68368548D01*
X108365784Y-68368548D01*
X108376081Y-68373125D01*
X108378311Y-68374116D01*
X108386367Y-68373018D01*
X108388457Y-68363970D01*
X108386226Y-68362149D01*
X108368165Y-68363970D01*
X108365784Y-68368548D01*
X106486213Y-68368548D01*
X106483583Y-68358897D01*
X106480457Y-68354392D01*
X106476433Y-68351288D01*
X108423967Y-68351288D01*
X108431576Y-68358897D01*
X108439185Y-68351288D01*
X108431576Y-68343679D01*
X108423967Y-68351288D01*
X106476433Y-68351288D01*
X106466568Y-68343679D01*
X106464487Y-68344670D01*
X106370540Y-68344670D01*
X106364012Y-68337518D01*
X106363347Y-68336933D01*
X108459291Y-68336933D01*
X108462014Y-68343213D01*
X108472316Y-68341338D01*
X108500060Y-68328460D01*
X108510392Y-68319987D01*
X108507670Y-68313707D01*
X108497367Y-68315582D01*
X108486016Y-68320851D01*
X108469623Y-68328460D01*
X108459291Y-68336933D01*
X106363347Y-68336933D01*
X106345059Y-68320851D01*
X106445537Y-68320851D01*
X106453146Y-68328460D01*
X106460755Y-68320851D01*
X106453146Y-68313241D01*
X106445537Y-68320851D01*
X106345059Y-68320851D01*
X106331911Y-68309289D01*
X106326304Y-68306530D01*
X108530498Y-68306530D01*
X108530646Y-68308658D01*
X108539455Y-68312009D01*
X108554779Y-68295671D01*
X108558482Y-68287166D01*
X108548068Y-68288960D01*
X108541307Y-68293658D01*
X108541262Y-68293711D01*
X108530498Y-68306530D01*
X106326304Y-68306530D01*
X106309017Y-68298023D01*
X106306640Y-68298800D01*
X106297940Y-68317203D01*
X106292331Y-68351523D01*
X106290493Y-68390311D01*
X106293106Y-68422119D01*
X106300849Y-68435497D01*
X106301534Y-68435553D01*
X106301165Y-68444825D01*
X106281460Y-68464954D01*
X106262747Y-68478041D01*
X106198000Y-68503666D01*
X106117687Y-68516412D01*
X106030610Y-68516059D01*
X105945572Y-68502390D01*
X105871374Y-68475183D01*
X105866285Y-68472437D01*
X105835815Y-68452091D01*
X105817505Y-68436544D01*
X105852008Y-68436544D01*
X105901468Y-68457025D01*
X105912294Y-68461053D01*
X105965124Y-68473648D01*
X106029715Y-68481631D01*
X106097727Y-68484829D01*
X106160819Y-68483070D01*
X106210651Y-68476182D01*
X106238882Y-68463992D01*
X106239132Y-68463263D01*
X106240647Y-68442128D01*
X106242286Y-68394489D01*
X106243987Y-68323690D01*
X106244983Y-68270524D01*
X106391868Y-68270524D01*
X106392002Y-68277379D01*
X106410638Y-68289435D01*
X106413525Y-68290518D01*
X106428775Y-68293711D01*
X106419158Y-68280916D01*
X106412475Y-68275730D01*
X108576154Y-68275730D01*
X108577209Y-68280845D01*
X108587947Y-68279094D01*
X108615096Y-68259136D01*
X108631132Y-68246048D01*
X108633754Y-68241325D01*
X108631805Y-68242221D01*
X108610396Y-68252063D01*
X108588106Y-68264579D01*
X108576154Y-68275730D01*
X106412475Y-68275730D01*
X106407968Y-68272232D01*
X106391868Y-68270524D01*
X106244983Y-68270524D01*
X106245428Y-68246798D01*
X106341698Y-68246798D01*
X106354224Y-68252367D01*
X106362281Y-68251268D01*
X106364370Y-68242221D01*
X106362140Y-68240399D01*
X106344079Y-68242221D01*
X106341698Y-68246798D01*
X106245428Y-68246798D01*
X106245685Y-68233070D01*
X106245739Y-68229539D01*
X106308568Y-68229539D01*
X106316178Y-68237148D01*
X106323787Y-68229539D01*
X108652247Y-68229539D01*
X108659857Y-68237148D01*
X108667466Y-68229539D01*
X108659857Y-68221929D01*
X108652247Y-68229539D01*
X106323787Y-68229539D01*
X106316178Y-68221929D01*
X106308568Y-68229539D01*
X106245739Y-68229539D01*
X106246203Y-68199101D01*
X106308568Y-68199101D01*
X106316178Y-68206711D01*
X106320801Y-68202087D01*
X108682685Y-68202087D01*
X108683031Y-68204711D01*
X108690127Y-68204090D01*
X108709298Y-68186820D01*
X108744379Y-68149640D01*
X108796825Y-68092570D01*
X108739755Y-68145017D01*
X108718927Y-68164477D01*
X108692868Y-68190100D01*
X108685222Y-68199101D01*
X108682685Y-68202087D01*
X106320801Y-68202087D01*
X106323787Y-68199101D01*
X106316178Y-68191492D01*
X106308568Y-68199101D01*
X106246203Y-68199101D01*
X106247317Y-68125971D01*
X106248159Y-68058597D01*
X106310249Y-68058597D01*
X106312644Y-68119203D01*
X106314127Y-68131397D01*
X106316360Y-68130528D01*
X106317897Y-68103909D01*
X106318359Y-68063996D01*
X108804434Y-68063996D01*
X108804684Y-68066667D01*
X108814599Y-68066770D01*
X108836813Y-68043110D01*
X108845314Y-68032083D01*
X108849093Y-68024202D01*
X108831067Y-68037364D01*
X108814834Y-68051293D01*
X108812189Y-68054524D01*
X108804434Y-68063996D01*
X106318359Y-68063996D01*
X106318469Y-68054524D01*
X106318277Y-68023720D01*
X106317121Y-67986964D01*
X106316973Y-67986039D01*
X108865309Y-67986039D01*
X108872918Y-67993649D01*
X108880528Y-67986039D01*
X108872918Y-67978430D01*
X108865309Y-67986039D01*
X106316973Y-67986039D01*
X106315154Y-67974678D01*
X106312644Y-67989844D01*
X106312119Y-67996245D01*
X106310249Y-68058597D01*
X106248159Y-68058597D01*
X106248819Y-68005733D01*
X106249324Y-67955602D01*
X106826004Y-67955602D01*
X106833613Y-67963211D01*
X106839978Y-67956847D01*
X108884309Y-67956847D01*
X108890776Y-67952135D01*
X108905260Y-67929020D01*
X108921915Y-67896462D01*
X108935489Y-67864894D01*
X108940730Y-67844750D01*
X108939143Y-67844156D01*
X108935517Y-67849071D01*
X108927771Y-67859570D01*
X108925097Y-67864290D01*
X108912162Y-67887118D01*
X108909192Y-67892359D01*
X108901033Y-67908479D01*
X108897147Y-67917555D01*
X108887065Y-67941102D01*
X108884527Y-67955602D01*
X108884309Y-67956847D01*
X106839978Y-67956847D01*
X106841223Y-67955602D01*
X106833613Y-67947993D01*
X106826004Y-67955602D01*
X106249324Y-67955602D01*
X106249783Y-67909946D01*
X106308568Y-67909946D01*
X106316178Y-67917555D01*
X106323787Y-67909946D01*
X106319431Y-67905590D01*
X106782709Y-67905590D01*
X106782976Y-67909946D01*
X106785076Y-67944188D01*
X106786499Y-67948506D01*
X106790449Y-67945243D01*
X106792036Y-67917555D01*
X106791889Y-67907230D01*
X106789487Y-67886186D01*
X106785076Y-67890923D01*
X106782709Y-67905590D01*
X106319431Y-67905590D01*
X106316178Y-67902337D01*
X106308568Y-67909946D01*
X106249783Y-67909946D01*
X106250093Y-67879203D01*
X106844474Y-67879203D01*
X106846296Y-67897264D01*
X106850873Y-67899645D01*
X106856441Y-67887118D01*
X106855343Y-67879061D01*
X106846296Y-67876972D01*
X106844474Y-67879203D01*
X106250093Y-67879203D01*
X106250128Y-67875699D01*
X106250229Y-67864290D01*
X106308568Y-67864290D01*
X106316178Y-67871899D01*
X106323787Y-67864290D01*
X106316178Y-67856681D01*
X106308568Y-67864290D01*
X106250229Y-67864290D01*
X106250364Y-67849071D01*
X106765129Y-67849071D01*
X106772739Y-67856681D01*
X106780348Y-67849071D01*
X106772739Y-67841462D01*
X106765129Y-67849071D01*
X106250364Y-67849071D01*
X106250499Y-67833853D01*
X106323787Y-67833853D01*
X106331396Y-67841462D01*
X106339006Y-67833853D01*
X106331396Y-67826243D01*
X106323787Y-67833853D01*
X106250499Y-67833853D01*
X106250663Y-67815344D01*
X106843448Y-67815344D01*
X106845293Y-67833853D01*
X106846459Y-67845556D01*
X106847065Y-67846913D01*
X106851829Y-67844625D01*
X106853474Y-67818634D01*
X106853374Y-67813908D01*
X106851966Y-67803109D01*
X108944654Y-67803109D01*
X108946219Y-67818634D01*
X108946475Y-67821170D01*
X108951053Y-67823551D01*
X108956621Y-67811025D01*
X108955523Y-67802968D01*
X108946475Y-67800879D01*
X108944654Y-67803109D01*
X106851966Y-67803109D01*
X106850739Y-67793694D01*
X106845895Y-67799900D01*
X106843448Y-67815344D01*
X106250663Y-67815344D01*
X106251167Y-67758657D01*
X106841223Y-67758657D01*
X106841371Y-67760785D01*
X106850180Y-67764136D01*
X106856161Y-67757759D01*
X108956621Y-67757759D01*
X108964230Y-67765368D01*
X108971840Y-67757759D01*
X108964230Y-67750150D01*
X108956621Y-67757759D01*
X106856161Y-67757759D01*
X106865504Y-67747798D01*
X106869207Y-67739293D01*
X106858793Y-67741087D01*
X106852032Y-67745785D01*
X106841223Y-67758657D01*
X106251167Y-67758657D01*
X106252528Y-67605572D01*
X106323787Y-67605572D01*
X106331396Y-67613182D01*
X106339006Y-67605572D01*
X106331396Y-67597963D01*
X106323787Y-67605572D01*
X106252528Y-67605572D01*
X106252799Y-67575135D01*
X106323787Y-67575135D01*
X106331396Y-67582744D01*
X106339006Y-67575135D01*
X106331396Y-67567525D01*
X106323787Y-67575135D01*
X106252799Y-67575135D01*
X106253070Y-67544697D01*
X106323787Y-67544697D01*
X106331396Y-67552307D01*
X106339006Y-67544697D01*
X106331396Y-67537088D01*
X106323787Y-67544697D01*
X106253070Y-67544697D01*
X106254356Y-67400045D01*
X106325457Y-67400045D01*
X106327919Y-67457190D01*
X106328937Y-67465248D01*
X106331467Y-67468615D01*
X106333228Y-67445847D01*
X106333889Y-67400120D01*
X106333802Y-67381497D01*
X106332713Y-67343539D01*
X106330641Y-67329664D01*
X106327919Y-67343050D01*
X106325457Y-67400045D01*
X106254356Y-67400045D01*
X106255100Y-67316417D01*
X106354224Y-67316417D01*
X106361834Y-67324026D01*
X106369443Y-67316417D01*
X106384662Y-67316417D01*
X106392271Y-67324026D01*
X106399881Y-67316417D01*
X106392271Y-67308808D01*
X106384662Y-67316417D01*
X106369443Y-67316417D01*
X106361834Y-67308808D01*
X106354224Y-67316417D01*
X106255100Y-67316417D01*
X106255248Y-67299740D01*
X106429805Y-67299740D01*
X106433068Y-67303690D01*
X106460755Y-67305277D01*
X106471081Y-67305130D01*
X106492124Y-67302728D01*
X106487388Y-67298317D01*
X106472721Y-67295950D01*
X106434123Y-67298317D01*
X106429805Y-67299740D01*
X106255248Y-67299740D01*
X106255303Y-67293578D01*
X106063710Y-67293583D01*
X105872117Y-67293589D01*
X105862062Y-67706966D01*
X105859855Y-67801549D01*
X105857320Y-67920752D01*
X105855159Y-68034214D01*
X105853480Y-68135765D01*
X105852394Y-68219232D01*
X105852008Y-68278444D01*
X105852008Y-68436544D01*
X105817505Y-68436544D01*
X105807952Y-68428432D01*
X105788001Y-68407019D01*
X105781273Y-68393412D01*
X105793074Y-68393171D01*
X105803744Y-68395671D01*
X105813560Y-68386449D01*
X105813069Y-68353900D01*
X105812874Y-68351933D01*
X105809335Y-68317679D01*
X105807323Y-68300791D01*
X105806655Y-68299414D01*
X105792938Y-68303473D01*
X105767428Y-68322697D01*
X105737220Y-68350619D01*
X105709415Y-68380771D01*
X105691109Y-68406685D01*
X105679554Y-68437221D01*
X105622444Y-68437221D01*
X105608130Y-68426302D01*
X105568084Y-68417413D01*
X105551559Y-68414049D01*
X105496534Y-68397208D01*
X105441566Y-68373893D01*
X105396494Y-68348667D01*
X105371155Y-68326091D01*
X105368179Y-68315596D01*
X105385341Y-68317787D01*
X105391798Y-68319863D01*
X105406642Y-68315028D01*
X105410432Y-68286131D01*
X105408298Y-68251789D01*
X105395881Y-68221881D01*
X105368882Y-68217099D01*
X105323332Y-68235118D01*
X105287973Y-68256073D01*
X105233121Y-68302961D01*
X105196021Y-68354965D01*
X105182385Y-68405192D01*
X105151966Y-68405192D01*
X105153649Y-68357950D01*
X105162111Y-68325207D01*
X105182636Y-68295651D01*
X105220527Y-68257532D01*
X105244843Y-68235490D01*
X105298503Y-68198813D01*
X105351966Y-68181769D01*
X105414825Y-68171718D01*
X105405227Y-68048441D01*
X105403864Y-68027237D01*
X105401218Y-67963549D01*
X105398939Y-67878664D01*
X105397165Y-67779689D01*
X105441103Y-67779689D01*
X105441126Y-67829200D01*
X105441566Y-67977378D01*
X105442613Y-68097742D01*
X105444330Y-68192312D01*
X105446781Y-68263108D01*
X105450029Y-68312149D01*
X105454139Y-68341457D01*
X105459174Y-68353051D01*
X105471975Y-68358653D01*
X105509382Y-68370472D01*
X105558045Y-68383002D01*
X105638845Y-68401785D01*
X105670932Y-68356722D01*
X105673812Y-68352814D01*
X105711050Y-68312880D01*
X105754452Y-68278209D01*
X105805885Y-68244757D01*
X105809923Y-67766106D01*
X105813961Y-67287456D01*
X105794398Y-67284394D01*
X106556189Y-67284394D01*
X106556328Y-67287456D01*
X106556425Y-67289589D01*
X106576164Y-67292387D01*
X106591123Y-67289950D01*
X106585358Y-67283193D01*
X106576558Y-67280761D01*
X106556189Y-67284394D01*
X105794398Y-67284394D01*
X105725281Y-67273576D01*
X106667431Y-67273576D01*
X106689036Y-67275967D01*
X106709971Y-67273846D01*
X106708059Y-67268291D01*
X106701170Y-67266281D01*
X106670012Y-67268291D01*
X106667431Y-67273576D01*
X105725281Y-67273576D01*
X105699821Y-67269591D01*
X105699696Y-67269572D01*
X105633897Y-67258243D01*
X105595364Y-67250559D01*
X106738478Y-67250559D01*
X106745703Y-67260229D01*
X106748519Y-67263214D01*
X106751803Y-67273846D01*
X106756042Y-67287571D01*
X106756325Y-67289950D01*
X106756756Y-67293578D01*
X106757843Y-67302728D01*
X106759470Y-67316417D01*
X106761832Y-67336295D01*
X106765435Y-67400120D01*
X106766072Y-67411403D01*
X106768947Y-67514909D01*
X106769514Y-67544697D01*
X106770093Y-67575135D01*
X106770672Y-67605572D01*
X106773569Y-67757759D01*
X106774379Y-67696884D01*
X106856441Y-67696884D01*
X106864051Y-67704494D01*
X106871660Y-67696884D01*
X106869998Y-67695222D01*
X108974231Y-67695222D01*
X108974527Y-67696884D01*
X108977864Y-67715591D01*
X108983059Y-67715355D01*
X108985857Y-67695616D01*
X108983420Y-67680657D01*
X108976662Y-67686421D01*
X108974231Y-67695222D01*
X106869998Y-67695222D01*
X106864051Y-67689275D01*
X106856441Y-67696884D01*
X106774379Y-67696884D01*
X106775188Y-67636010D01*
X107571720Y-67636010D01*
X107579329Y-67643619D01*
X107586939Y-67636010D01*
X107579329Y-67628400D01*
X107571720Y-67636010D01*
X106775188Y-67636010D01*
X106775492Y-67613182D01*
X106856441Y-67613182D01*
X106856551Y-67616768D01*
X106860246Y-67626883D01*
X106872450Y-67622777D01*
X106878586Y-67620791D01*
X107054284Y-67620791D01*
X107061894Y-67628400D01*
X107069503Y-67620791D01*
X107069372Y-67620660D01*
X107110214Y-67620660D01*
X107111259Y-67620791D01*
X107127996Y-67622890D01*
X107168425Y-67623684D01*
X107169096Y-67623683D01*
X107207849Y-67622747D01*
X107220544Y-67620791D01*
X107267346Y-67620791D01*
X107274955Y-67628400D01*
X107282565Y-67620791D01*
X107282468Y-67620694D01*
X107952635Y-67620694D01*
X107953513Y-67620791D01*
X107971252Y-67622750D01*
X108013062Y-67623529D01*
X108019322Y-67623516D01*
X108058472Y-67622558D01*
X108071048Y-67620791D01*
X108119593Y-67620791D01*
X108127202Y-67628400D01*
X108134812Y-67620791D01*
X108127202Y-67613182D01*
X108119593Y-67620791D01*
X108071048Y-67620791D01*
X108074009Y-67620375D01*
X108062523Y-67617391D01*
X108016966Y-67614872D01*
X107963601Y-67617391D01*
X107960624Y-67617786D01*
X107952635Y-67620694D01*
X107282468Y-67620694D01*
X107274955Y-67613182D01*
X107267346Y-67620791D01*
X107220544Y-67620791D01*
X107222549Y-67620482D01*
X107210003Y-67617371D01*
X107164965Y-67614878D01*
X107118691Y-67617526D01*
X107110214Y-67620660D01*
X107069372Y-67620660D01*
X107061894Y-67613182D01*
X107054284Y-67620791D01*
X106878586Y-67620791D01*
X106902097Y-67613182D01*
X106928675Y-67604670D01*
X108209546Y-67604670D01*
X108217630Y-67608119D01*
X108248952Y-67609344D01*
X108265550Y-67608949D01*
X108283842Y-67606427D01*
X108282043Y-67605572D01*
X108347873Y-67605572D01*
X108355483Y-67613182D01*
X108363092Y-67605572D01*
X108355483Y-67597963D01*
X108347873Y-67605572D01*
X108282043Y-67605572D01*
X108275407Y-67602418D01*
X108251079Y-67599890D01*
X108236808Y-67600997D01*
X108214532Y-67602725D01*
X108209546Y-67604670D01*
X106928675Y-67604670D01*
X106940144Y-67600997D01*
X106898293Y-67599480D01*
X106869530Y-67602626D01*
X106856441Y-67613182D01*
X106775492Y-67613182D01*
X106775819Y-67588587D01*
X108388078Y-67588587D01*
X108390367Y-67593351D01*
X108416357Y-67594996D01*
X108421083Y-67594896D01*
X108441297Y-67592261D01*
X108435091Y-67587416D01*
X108426131Y-67585997D01*
X108989420Y-67585997D01*
X108990620Y-67605572D01*
X108991554Y-67620791D01*
X108991787Y-67624596D01*
X108993209Y-67628914D01*
X108997160Y-67625650D01*
X108998746Y-67597963D01*
X108998599Y-67587637D01*
X108996198Y-67566594D01*
X108991787Y-67571330D01*
X108990865Y-67577042D01*
X108989420Y-67585997D01*
X108426131Y-67585997D01*
X108419647Y-67584970D01*
X108389435Y-67587980D01*
X108388078Y-67588587D01*
X106775819Y-67588587D01*
X106776021Y-67573368D01*
X108525047Y-67573368D01*
X108527335Y-67578132D01*
X108553326Y-67579777D01*
X108558052Y-67579677D01*
X108578266Y-67577042D01*
X108572059Y-67572198D01*
X108556615Y-67569751D01*
X108526403Y-67572762D01*
X108525047Y-67573368D01*
X106776021Y-67573368D01*
X106776340Y-67549378D01*
X106856441Y-67549378D01*
X107012433Y-67558599D01*
X107051448Y-67560756D01*
X107206803Y-67566947D01*
X107376945Y-67570504D01*
X107556227Y-67571532D01*
X107739004Y-67570137D01*
X107919628Y-67566427D01*
X108027490Y-67562731D01*
X108615424Y-67562731D01*
X108637028Y-67565122D01*
X108657964Y-67563001D01*
X108656052Y-67557446D01*
X108649163Y-67555436D01*
X108618005Y-67557446D01*
X108615424Y-67562731D01*
X108027490Y-67562731D01*
X108092453Y-67560505D01*
X108251833Y-67552479D01*
X108321347Y-67547512D01*
X108721954Y-67547512D01*
X108743559Y-67549904D01*
X108764495Y-67547782D01*
X108762583Y-67542228D01*
X108755694Y-67540218D01*
X108724536Y-67542228D01*
X108721954Y-67547512D01*
X108321347Y-67547512D01*
X108392120Y-67542455D01*
X108490653Y-67532293D01*
X108798048Y-67532293D01*
X108819653Y-67534685D01*
X108840588Y-67532564D01*
X108838676Y-67527009D01*
X108831787Y-67524999D01*
X108800629Y-67527009D01*
X108798048Y-67532293D01*
X108490653Y-67532293D01*
X108507670Y-67530538D01*
X108586025Y-67519864D01*
X108632749Y-67512675D01*
X108869431Y-67512675D01*
X108869666Y-67517870D01*
X108889405Y-67520668D01*
X108904364Y-67518231D01*
X108898600Y-67511473D01*
X108889799Y-67509042D01*
X108869431Y-67512675D01*
X108632749Y-67512675D01*
X108680091Y-67505391D01*
X108705345Y-67501082D01*
X108928876Y-67501082D01*
X108941402Y-67506651D01*
X108949459Y-67505552D01*
X108951548Y-67496505D01*
X108949318Y-67494683D01*
X108931257Y-67496505D01*
X108928876Y-67501082D01*
X108705345Y-67501082D01*
X108771945Y-67489718D01*
X108811707Y-67482237D01*
X108975961Y-67482237D01*
X108976197Y-67487432D01*
X108995936Y-67490230D01*
X109010895Y-67487793D01*
X109005131Y-67481036D01*
X108996330Y-67478604D01*
X108975961Y-67482237D01*
X108811707Y-67482237D01*
X108855997Y-67473904D01*
X108926657Y-67459008D01*
X108978335Y-67446091D01*
X109005443Y-67436210D01*
X109008988Y-67430607D01*
X109013814Y-67400990D01*
X109015963Y-67345413D01*
X109015470Y-67262419D01*
X109012370Y-67150553D01*
X109010200Y-67084490D01*
X109007233Y-66981888D01*
X109004833Y-66883903D01*
X109003205Y-66799133D01*
X109002552Y-66736178D01*
X109002277Y-66597281D01*
X108860721Y-66564570D01*
X108859926Y-66564386D01*
X108773717Y-66540933D01*
X108686755Y-66511283D01*
X108606674Y-66478554D01*
X108541108Y-66445864D01*
X108497691Y-66416329D01*
X108493721Y-66413013D01*
X108480359Y-66407383D01*
X108462409Y-66411301D01*
X108435225Y-66427314D01*
X108394164Y-66457972D01*
X108334581Y-66505822D01*
X108257531Y-66565277D01*
X108231678Y-66582990D01*
X108116968Y-66661583D01*
X107949710Y-66763524D01*
X107754344Y-66871991D01*
X107680546Y-66909488D01*
X107583820Y-66955198D01*
X107476228Y-67003400D01*
X107364130Y-67051432D01*
X107253884Y-67096632D01*
X107151851Y-67136338D01*
X107064389Y-67167889D01*
X106997859Y-67188623D01*
X106875805Y-67221291D01*
X106866123Y-67335829D01*
X106865928Y-67338149D01*
X106863276Y-67373461D01*
X106861142Y-67401869D01*
X106857737Y-67459876D01*
X106856441Y-67499873D01*
X106856441Y-67549378D01*
X106776340Y-67549378D01*
X106776959Y-67502846D01*
X106777562Y-67454085D01*
X106778096Y-67373461D01*
X106777341Y-67316998D01*
X106774912Y-67280466D01*
X106770421Y-67259636D01*
X106763485Y-67250279D01*
X106753715Y-67248166D01*
X106738478Y-67250559D01*
X105595364Y-67250559D01*
X105571072Y-67245715D01*
X105524806Y-67234696D01*
X105511008Y-67230914D01*
X105473217Y-67221423D01*
X105452517Y-67217580D01*
X105452352Y-67217638D01*
X105449776Y-67234056D01*
X105447409Y-67277352D01*
X105445320Y-67344173D01*
X105443577Y-67431170D01*
X105442248Y-67534989D01*
X105441400Y-67652279D01*
X105441103Y-67779689D01*
X105397165Y-67779689D01*
X105397150Y-67778824D01*
X105395975Y-67670271D01*
X105395538Y-67559248D01*
X105395447Y-67193332D01*
X105269283Y-67152245D01*
X105255203Y-67147538D01*
X105187358Y-67121995D01*
X105124783Y-67094377D01*
X105079480Y-67069893D01*
X105048257Y-67047705D01*
X105012516Y-67012283D01*
X105006403Y-66994973D01*
X105035895Y-66994973D01*
X105049194Y-67014891D01*
X105087498Y-67038884D01*
X105147099Y-67065669D01*
X105224289Y-67093962D01*
X105315358Y-67122478D01*
X105416599Y-67149933D01*
X105524301Y-67175044D01*
X105634758Y-67196526D01*
X105763260Y-67215178D01*
X105908686Y-67229688D01*
X106060774Y-67239322D01*
X106212221Y-67243863D01*
X106355725Y-67243096D01*
X106483984Y-67236805D01*
X106589697Y-67224773D01*
X106768113Y-67190014D01*
X107051035Y-67112551D01*
X107337470Y-67007678D01*
X107624467Y-66876523D01*
X107909071Y-66720216D01*
X107942139Y-66700187D01*
X108006222Y-66659490D01*
X108057687Y-66624238D01*
X108091936Y-66597661D01*
X108104374Y-66582990D01*
X108101449Y-66571917D01*
X108079935Y-66540240D01*
X108043513Y-66501837D01*
X107999356Y-66463250D01*
X107954640Y-66431022D01*
X107916540Y-66411697D01*
X107908153Y-66408991D01*
X107883223Y-66403139D01*
X107859297Y-66404294D01*
X107829566Y-66414565D01*
X107787222Y-66436062D01*
X107725457Y-66470892D01*
X107580666Y-66549564D01*
X107289947Y-66682960D01*
X106994259Y-66786473D01*
X106693894Y-66860022D01*
X106641753Y-66867466D01*
X106389140Y-66903531D01*
X106080288Y-66916920D01*
X106019836Y-66916138D01*
X105853699Y-66907940D01*
X105700093Y-66889521D01*
X105588879Y-66867466D01*
X105867987Y-66867466D01*
X106262912Y-66867466D01*
X106262912Y-66818005D01*
X106323851Y-66818005D01*
X106326975Y-66838850D01*
X106343115Y-66849192D01*
X106380857Y-66850518D01*
X106400374Y-66849343D01*
X106457235Y-66843361D01*
X106530421Y-66833639D01*
X106610890Y-66821501D01*
X106689603Y-66808274D01*
X106757520Y-66795283D01*
X106794419Y-66785137D01*
X106815465Y-66768636D01*
X106823404Y-66739309D01*
X106824945Y-66713979D01*
X106815527Y-66701478D01*
X106785357Y-66705062D01*
X106780571Y-66706027D01*
X106743867Y-66712796D01*
X106685743Y-66723008D01*
X106613168Y-66735453D01*
X106533108Y-66748918D01*
X106528009Y-66749768D01*
X106446381Y-66763701D01*
X106389960Y-66774574D01*
X106354122Y-66783913D01*
X106334241Y-66793247D01*
X106325693Y-66804102D01*
X106323851Y-66818005D01*
X106262912Y-66818005D01*
X106262912Y-66780800D01*
X106077158Y-66771460D01*
X106072887Y-66771247D01*
X106002058Y-66767969D01*
X105943875Y-66765762D01*
X105904254Y-66764819D01*
X105889111Y-66765332D01*
X105888911Y-66765715D01*
X105884429Y-66783469D01*
X105877402Y-66818005D01*
X105870084Y-66856450D01*
X105867987Y-66867466D01*
X105588879Y-66867466D01*
X105546350Y-66859032D01*
X105379796Y-66814621D01*
X105370757Y-66811984D01*
X105285922Y-66789350D01*
X105227325Y-66778440D01*
X105193351Y-66779061D01*
X105182385Y-66791021D01*
X105184514Y-66798724D01*
X105209593Y-66822137D01*
X105260586Y-66848757D01*
X105334572Y-66876935D01*
X105371882Y-66889885D01*
X105395776Y-66900392D01*
X105395736Y-66906382D01*
X105374674Y-66910276D01*
X105359660Y-66910797D01*
X105311758Y-66905178D01*
X105259675Y-66892128D01*
X105217129Y-66881373D01*
X105169149Y-66877145D01*
X105134705Y-66883002D01*
X105121510Y-66898584D01*
X105125051Y-66903345D01*
X105150604Y-66918203D01*
X105195279Y-66937911D01*
X105252464Y-66959673D01*
X105315549Y-66980691D01*
X105337094Y-66990682D01*
X105349791Y-67006149D01*
X105349255Y-67008305D01*
X105331232Y-67013675D01*
X105292654Y-67010231D01*
X105240367Y-66998996D01*
X105181219Y-66980991D01*
X105154996Y-66973909D01*
X105105129Y-66969239D01*
X105062273Y-66974738D01*
X105037488Y-66989732D01*
X105035895Y-66994973D01*
X105006403Y-66994973D01*
X105002565Y-66984106D01*
X105018779Y-66965497D01*
X105061534Y-66958778D01*
X105094651Y-66953250D01*
X105106736Y-66939227D01*
X105092502Y-66921614D01*
X105083730Y-66911145D01*
X105085076Y-66886250D01*
X105101936Y-66862704D01*
X105128259Y-66852247D01*
X105145230Y-66850662D01*
X105156748Y-66837956D01*
X105154946Y-66804905D01*
X105154668Y-66769838D01*
X105167690Y-66745392D01*
X105190577Y-66739471D01*
X105235941Y-66741301D01*
X105288535Y-66752122D01*
X105336718Y-66770224D01*
X105363030Y-66781682D01*
X105376803Y-66776081D01*
X105383335Y-66746315D01*
X105441103Y-66746315D01*
X105442730Y-66764815D01*
X105453402Y-66782086D01*
X105480082Y-66795808D01*
X105529637Y-66810997D01*
X105573787Y-66821760D01*
X105648891Y-66836156D01*
X105719871Y-66846031D01*
X105821570Y-66856450D01*
X105821570Y-66801083D01*
X105821308Y-66779634D01*
X105816068Y-66755858D01*
X105797436Y-66746743D01*
X105756891Y-66744886D01*
X105751020Y-66744750D01*
X105700688Y-66741311D01*
X105635023Y-66734342D01*
X105566657Y-66725152D01*
X105441103Y-66706248D01*
X105441103Y-66746315D01*
X105383335Y-66746315D01*
X105383491Y-66745605D01*
X105384535Y-66716544D01*
X105370415Y-66681982D01*
X105338180Y-66669622D01*
X105336081Y-66669567D01*
X105297334Y-66659165D01*
X105244886Y-66634306D01*
X105187383Y-66600099D01*
X105133473Y-66561652D01*
X105091802Y-66524073D01*
X105063724Y-66490308D01*
X105013571Y-66400628D01*
X104996334Y-66326654D01*
X105041870Y-66326654D01*
X105068589Y-66414857D01*
X105123598Y-66495110D01*
X105125216Y-66496855D01*
X105178258Y-66544336D01*
X105243330Y-66584131D01*
X105324106Y-66617498D01*
X105424261Y-66645695D01*
X105547471Y-66669981D01*
X105697412Y-66691616D01*
X105724197Y-66694755D01*
X105838975Y-66704382D01*
X105970008Y-66710564D01*
X106109546Y-66713313D01*
X106249838Y-66712641D01*
X106383131Y-66708561D01*
X106501677Y-66701083D01*
X106597724Y-66690221D01*
X106623345Y-66686017D01*
X106714322Y-66667476D01*
X106813691Y-66642731D01*
X106916001Y-66613582D01*
X107015802Y-66581828D01*
X107107644Y-66549267D01*
X107186076Y-66517698D01*
X107245650Y-66488921D01*
X107280914Y-66464734D01*
X107292664Y-66451319D01*
X107288939Y-66443056D01*
X107259193Y-66441350D01*
X107237432Y-66443423D01*
X107187736Y-66454446D01*
X107134019Y-66471787D01*
X107101686Y-66482900D01*
X107050152Y-66496420D01*
X107012270Y-66501319D01*
X107008541Y-66501163D01*
X106997845Y-66497022D01*
X107007829Y-66486078D01*
X107040902Y-66466546D01*
X107099470Y-66436640D01*
X107130774Y-66420665D01*
X107182081Y-66392081D01*
X107218587Y-66368492D01*
X107233901Y-66353835D01*
X107234344Y-66351211D01*
X107222399Y-66339016D01*
X107191063Y-66334980D01*
X107148965Y-66339232D01*
X107104736Y-66351901D01*
X107087633Y-66358575D01*
X107029788Y-66379029D01*
X106980207Y-66393589D01*
X106945565Y-66400473D01*
X106932535Y-66397898D01*
X106933273Y-66396186D01*
X106951483Y-66382191D01*
X106989144Y-66360334D01*
X107039603Y-66334551D01*
X107041981Y-66333398D01*
X107111141Y-66296592D01*
X107160234Y-66263764D01*
X107186439Y-66237127D01*
X107186938Y-66218893D01*
X107182489Y-66217087D01*
X107165349Y-66218646D01*
X107133296Y-66226989D01*
X107082957Y-66243155D01*
X107019155Y-66265336D01*
X107010960Y-66268185D01*
X106913934Y-66303120D01*
X106876570Y-66315492D01*
X106766938Y-66342851D01*
X106636736Y-66365757D01*
X106492799Y-66383722D01*
X106341965Y-66396258D01*
X106191067Y-66402874D01*
X106046941Y-66403083D01*
X105916424Y-66396396D01*
X105806351Y-66382323D01*
X105771617Y-66375565D01*
X105639649Y-66343404D01*
X105513586Y-66303089D01*
X105401603Y-66257477D01*
X105355207Y-66232631D01*
X105448712Y-66232631D01*
X105509587Y-66254307D01*
X105515088Y-66256209D01*
X105563377Y-66270731D01*
X105627218Y-66287593D01*
X105694329Y-66303523D01*
X105818196Y-66331062D01*
X105827325Y-66275867D01*
X105827647Y-66273292D01*
X105889606Y-66273292D01*
X105890693Y-66317675D01*
X105894885Y-66337806D01*
X105911542Y-66343042D01*
X105951938Y-66348444D01*
X106007801Y-66353040D01*
X106071269Y-66356421D01*
X106134478Y-66358178D01*
X106189566Y-66357901D01*
X106228670Y-66355181D01*
X106278131Y-66348101D01*
X106278594Y-66132199D01*
X106279189Y-66074327D01*
X106282072Y-65999888D01*
X106286838Y-65955117D01*
X106292931Y-65939612D01*
X106299801Y-65952967D01*
X106306893Y-65994779D01*
X106313656Y-66064642D01*
X106319536Y-66162152D01*
X106328603Y-66354049D01*
X106444140Y-66345648D01*
X106456605Y-66344664D01*
X106529997Y-66336203D01*
X106603784Y-66323886D01*
X106671840Y-66309177D01*
X106728038Y-66293540D01*
X106766249Y-66278439D01*
X106780348Y-66265336D01*
X106779110Y-66255829D01*
X106771854Y-66220380D01*
X106759552Y-66167175D01*
X106743873Y-66103615D01*
X106740987Y-66092420D01*
X106692859Y-65943628D01*
X106632098Y-65813600D01*
X106560530Y-65705137D01*
X106479979Y-65621040D01*
X106392271Y-65564110D01*
X106378232Y-65557923D01*
X106290076Y-65533457D01*
X106200957Y-65530186D01*
X106121651Y-65548722D01*
X106074640Y-65576831D01*
X106035245Y-65614690D01*
X106017216Y-65632016D01*
X105968385Y-65700964D01*
X105935607Y-65774617D01*
X105932636Y-65785841D01*
X105924090Y-65832560D01*
X105915622Y-65896884D01*
X105907667Y-65972833D01*
X105900655Y-66054428D01*
X105895019Y-66135689D01*
X105891192Y-66210637D01*
X105889606Y-66273292D01*
X105827647Y-66273292D01*
X105830821Y-66247928D01*
X105834982Y-66190207D01*
X105836711Y-66129359D01*
X105836712Y-66129068D01*
X105840137Y-66052699D01*
X105849056Y-65965600D01*
X105862103Y-65875998D01*
X105877909Y-65792121D01*
X105895107Y-65722196D01*
X105912330Y-65674451D01*
X105941897Y-65614690D01*
X105893148Y-65571602D01*
X105870876Y-65553552D01*
X105800935Y-65512667D01*
X105728731Y-65489898D01*
X105663974Y-65488757D01*
X105644398Y-65493289D01*
X105586025Y-65520894D01*
X105536599Y-65570582D01*
X105491555Y-65646530D01*
X105478761Y-65673239D01*
X105466467Y-65703251D01*
X105458097Y-65733998D01*
X105452897Y-65771422D01*
X105450112Y-65821462D01*
X105448985Y-65890059D01*
X105448763Y-65983152D01*
X105448712Y-66232631D01*
X105355207Y-66232631D01*
X105311879Y-66209428D01*
X105309699Y-66208039D01*
X105283387Y-66190427D01*
X105281915Y-66185699D01*
X105304135Y-66191144D01*
X105332374Y-66199601D01*
X105361205Y-66209169D01*
X105361287Y-66209200D01*
X105370309Y-66204879D01*
X105376146Y-66181510D01*
X105379289Y-66135311D01*
X105380228Y-66062503D01*
X105379596Y-66016797D01*
X105376740Y-65961008D01*
X105372109Y-65922836D01*
X105366284Y-65908688D01*
X105346081Y-65915414D01*
X105306783Y-65937953D01*
X105257194Y-65971525D01*
X105204028Y-66011098D01*
X105154000Y-66051643D01*
X105113826Y-66088128D01*
X105090218Y-66115523D01*
X105074768Y-66143041D01*
X105043808Y-66234663D01*
X105041870Y-66326654D01*
X104996334Y-66326654D01*
X104991256Y-66304860D01*
X104998030Y-66207240D01*
X105012562Y-66155488D01*
X105055412Y-66070580D01*
X105120109Y-66004187D01*
X105210038Y-65952239D01*
X105276833Y-65922312D01*
X105328863Y-65897758D01*
X105361762Y-65879518D01*
X105380163Y-65864532D01*
X105388698Y-65849741D01*
X105392000Y-65832086D01*
X105394308Y-65815054D01*
X105409206Y-65744268D01*
X105431727Y-65665719D01*
X105457652Y-65594664D01*
X105469179Y-65571475D01*
X105517883Y-65510016D01*
X105581865Y-65462854D01*
X105651342Y-65437909D01*
X105691423Y-65431401D01*
X105771533Y-65431401D01*
X105815702Y-65449696D01*
X105831799Y-65457737D01*
X105874708Y-65485962D01*
X105918026Y-65521268D01*
X105976179Y-65574544D01*
X106021636Y-65536294D01*
X106024284Y-65534114D01*
X106081864Y-65499746D01*
X106154008Y-65473340D01*
X106227926Y-65458562D01*
X106290828Y-65459082D01*
X106361786Y-65478413D01*
X106463964Y-65530425D01*
X106558774Y-65607312D01*
X106642382Y-65705758D01*
X106710952Y-65822448D01*
X106725967Y-65855569D01*
X106754917Y-65928274D01*
X106782026Y-66006374D01*
X106804688Y-66081559D01*
X106820294Y-66145514D01*
X106826237Y-66189928D01*
X106826631Y-66204192D01*
X106832038Y-66233616D01*
X106847380Y-66248833D01*
X106877228Y-66250537D01*
X106926149Y-66239425D01*
X106998714Y-66216192D01*
X107037922Y-66203289D01*
X107098500Y-66184820D01*
X107146088Y-66172126D01*
X107172837Y-66167406D01*
X107206401Y-66176996D01*
X107229635Y-66207435D01*
X107230709Y-66250911D01*
X107230556Y-66251522D01*
X107228418Y-66280657D01*
X107243693Y-66289155D01*
X107254698Y-66291217D01*
X107278639Y-66311885D01*
X107290185Y-66343627D01*
X107282820Y-66372551D01*
X107282105Y-66373423D01*
X107275976Y-66391153D01*
X107296982Y-66403041D01*
X107308914Y-66408964D01*
X107326306Y-66436253D01*
X107325350Y-66451319D01*
X107324028Y-66472143D01*
X107301588Y-66505694D01*
X107290789Y-66514442D01*
X107229754Y-66550878D01*
X107139335Y-66590585D01*
X107020196Y-66633261D01*
X106963761Y-66652381D01*
X106921982Y-66668870D01*
X106898946Y-66683112D01*
X106889135Y-66698665D01*
X106887558Y-66713979D01*
X106887033Y-66719083D01*
X106886932Y-66735724D01*
X106889383Y-66750575D01*
X106899704Y-66756587D01*
X106923252Y-66753909D01*
X106965383Y-66742688D01*
X107031456Y-66723072D01*
X107143860Y-66685238D01*
X107292510Y-66625357D01*
X107450902Y-66552726D01*
X107611712Y-66471090D01*
X107767617Y-66384195D01*
X107797237Y-66365969D01*
X107939243Y-66365969D01*
X107962645Y-66385869D01*
X108011744Y-66413899D01*
X108027988Y-66424977D01*
X108066459Y-66461874D01*
X108100891Y-66506784D01*
X108143420Y-66573847D01*
X108315212Y-66445961D01*
X108395975Y-66382235D01*
X108413337Y-66367368D01*
X108518603Y-66367368D01*
X108535050Y-66384131D01*
X108573141Y-66407194D01*
X108627190Y-66433896D01*
X108691512Y-66461574D01*
X108760421Y-66487568D01*
X108828233Y-66509217D01*
X108863472Y-66518545D01*
X108949830Y-66537974D01*
X109044190Y-66555774D01*
X109131636Y-66569004D01*
X109299042Y-66590118D01*
X109187463Y-66591823D01*
X109075884Y-66593529D01*
X109084095Y-66810395D01*
X109085060Y-66836004D01*
X109087978Y-66914949D01*
X109090421Y-66983238D01*
X109092155Y-67034285D01*
X109092948Y-67061504D01*
X109095875Y-67078046D01*
X109107120Y-67088973D01*
X109131007Y-67093749D01*
X109171872Y-67092597D01*
X109234047Y-67085744D01*
X109321870Y-67073416D01*
X109385079Y-67063180D01*
X109588222Y-67017028D01*
X109780676Y-66953222D01*
X109959289Y-66873524D01*
X110120911Y-66779692D01*
X110262389Y-66673487D01*
X110380571Y-66556670D01*
X110472306Y-66430999D01*
X110507291Y-66369565D01*
X110574907Y-66225094D01*
X110623530Y-66074892D01*
X110655235Y-65911660D01*
X110672097Y-65728097D01*
X110674423Y-65681712D01*
X110676673Y-65622626D01*
X110676159Y-65586185D01*
X110672283Y-65567486D01*
X110664445Y-65561623D01*
X110652050Y-65563694D01*
X110645306Y-65565680D01*
X110441824Y-65616329D01*
X110220033Y-65654151D01*
X109977498Y-65679403D01*
X109711780Y-65692341D01*
X109420443Y-65693221D01*
X109059579Y-65687229D01*
X109065953Y-65911614D01*
X109067104Y-65947659D01*
X109070398Y-66023217D01*
X109074311Y-66085226D01*
X109076751Y-66110480D01*
X109078449Y-66128058D01*
X109082415Y-66146086D01*
X109082701Y-66146341D01*
X109103117Y-66152411D01*
X109144851Y-66158672D01*
X109199227Y-66163809D01*
X109203478Y-66164125D01*
X109257900Y-66170862D01*
X109289131Y-66179628D01*
X109295515Y-66188397D01*
X109275391Y-66195144D01*
X109227101Y-66197843D01*
X109181726Y-66196232D01*
X109073557Y-66182154D01*
X108967035Y-66156115D01*
X108876276Y-66121199D01*
X108788322Y-66078076D01*
X108655605Y-66215458D01*
X108650830Y-66220405D01*
X108600588Y-66273034D01*
X108558999Y-66317602D01*
X108530270Y-66349540D01*
X108518607Y-66364279D01*
X108518603Y-66367368D01*
X108413337Y-66367368D01*
X108486225Y-66304955D01*
X108580072Y-66219685D01*
X108671972Y-66131732D01*
X108756378Y-66046405D01*
X108827746Y-65969012D01*
X108880528Y-65904861D01*
X108904852Y-65873998D01*
X108931495Y-65844606D01*
X108947070Y-65833065D01*
X108951339Y-65836989D01*
X108941956Y-65854756D01*
X108933812Y-65869655D01*
X108934834Y-65895154D01*
X108938764Y-65903720D01*
X108930200Y-65903561D01*
X108930155Y-65903533D01*
X108911734Y-65907782D01*
X108889802Y-65931647D01*
X108869593Y-65962726D01*
X108843291Y-66004144D01*
X108831462Y-66029256D01*
X108833503Y-66044545D01*
X108848812Y-66056492D01*
X108876786Y-66071580D01*
X108881669Y-66074252D01*
X108930141Y-66098249D01*
X108969464Y-66113555D01*
X108993749Y-66118266D01*
X108997108Y-66110480D01*
X108995975Y-66106137D01*
X108993212Y-66076075D01*
X108990570Y-66022083D01*
X108988208Y-65948771D01*
X108986288Y-65860747D01*
X108984970Y-65762624D01*
X108984691Y-65735073D01*
X108983328Y-65631090D01*
X108981591Y-65532881D01*
X108979615Y-65446611D01*
X108977536Y-65378447D01*
X108975493Y-65334553D01*
X108969174Y-65239807D01*
X108909001Y-65270505D01*
X108822264Y-65329345D01*
X108747320Y-65408787D01*
X108690897Y-65500708D01*
X108658883Y-65597412D01*
X108647759Y-65657579D01*
X108704958Y-65589095D01*
X108710449Y-65582557D01*
X108750251Y-65538146D01*
X108774155Y-65517122D01*
X108782719Y-65517531D01*
X108776505Y-65537418D01*
X108756071Y-65574826D01*
X108721979Y-65627802D01*
X108674789Y-65694389D01*
X108615683Y-65767938D01*
X108519862Y-65871055D01*
X108406087Y-65980028D01*
X108279442Y-66090270D01*
X108145011Y-66197192D01*
X108007879Y-66296207D01*
X107968638Y-66323427D01*
X107941315Y-66347416D01*
X107939243Y-66365969D01*
X107797237Y-66365969D01*
X107911294Y-66295787D01*
X108035420Y-66209610D01*
X108192433Y-66092017D01*
X108153679Y-65996548D01*
X108134705Y-65938104D01*
X108115242Y-65836699D01*
X108105634Y-65724322D01*
X108105656Y-65721847D01*
X108151959Y-65721847D01*
X108172379Y-65872184D01*
X108183397Y-65915343D01*
X108199167Y-65968569D01*
X108212644Y-66005347D01*
X108228007Y-66033244D01*
X108239981Y-66044908D01*
X108245457Y-66041264D01*
X108269889Y-66020314D01*
X108309926Y-65983906D01*
X108361621Y-65935654D01*
X108421025Y-65879172D01*
X108441093Y-65859900D01*
X108501216Y-65801355D01*
X108543349Y-65757965D01*
X108570874Y-65725363D01*
X108587172Y-65699185D01*
X108595627Y-65675064D01*
X108599619Y-65648635D01*
X108602841Y-65623004D01*
X108635427Y-65505363D01*
X108694155Y-65398215D01*
X108775766Y-65306421D01*
X108877000Y-65234845D01*
X108889051Y-65228729D01*
X108942378Y-65207857D01*
X109005550Y-65189788D01*
X109070849Y-65175960D01*
X109130554Y-65167809D01*
X109176946Y-65166773D01*
X109202306Y-65174289D01*
X109204063Y-65181176D01*
X109183076Y-65191413D01*
X109132011Y-65200313D01*
X109046390Y-65211011D01*
X109056800Y-65419076D01*
X109057952Y-65441406D01*
X109062283Y-65515096D01*
X109066645Y-65575657D01*
X109070587Y-65617328D01*
X109073657Y-65634350D01*
X109080313Y-65636351D01*
X109113446Y-65639137D01*
X109170098Y-65641007D01*
X109245860Y-65642019D01*
X109336320Y-65642227D01*
X109437069Y-65641689D01*
X109543698Y-65640460D01*
X109651796Y-65638597D01*
X109756953Y-65636157D01*
X109854760Y-65633196D01*
X109940806Y-65629769D01*
X110010681Y-65625934D01*
X110059976Y-65621747D01*
X110084284Y-65618817D01*
X110163692Y-65608062D01*
X110251830Y-65594746D01*
X110343147Y-65579855D01*
X110432093Y-65564375D01*
X110513117Y-65549293D01*
X110580667Y-65535597D01*
X110629193Y-65524272D01*
X110653145Y-65516305D01*
X110657474Y-65510045D01*
X110661232Y-65477576D01*
X110658093Y-65423437D01*
X110648822Y-65352873D01*
X110634180Y-65271127D01*
X110614933Y-65183445D01*
X110591842Y-65095070D01*
X110580374Y-65057605D01*
X110541842Y-64951729D01*
X110492730Y-64835740D01*
X110437624Y-64719525D01*
X110381110Y-64612968D01*
X110327777Y-64525956D01*
X110247053Y-64421504D01*
X110119586Y-64293511D01*
X109971586Y-64177708D01*
X109808327Y-64077648D01*
X109635081Y-63996887D01*
X109457121Y-63938980D01*
X109429507Y-63932359D01*
X109363191Y-63918483D01*
X109289114Y-63904982D01*
X109213545Y-63892775D01*
X109142757Y-63882780D01*
X109083020Y-63875914D01*
X109040604Y-63873096D01*
X109021780Y-63875244D01*
X109020839Y-63890530D01*
X109020682Y-63932332D01*
X109021286Y-63996608D01*
X109022598Y-64079342D01*
X109024566Y-64176516D01*
X109027137Y-64284110D01*
X109037481Y-64687987D01*
X109160652Y-64681997D01*
X109283823Y-64676006D01*
X109144447Y-64701677D01*
X109130988Y-64704156D01*
X109095437Y-64710989D01*
X109018287Y-64727446D01*
X108947575Y-64744468D01*
X108895098Y-64759296D01*
X108867096Y-64768782D01*
X108708962Y-64837980D01*
X108566897Y-64926945D01*
X108442687Y-65032927D01*
X108353742Y-65135208D01*
X108338117Y-65153176D01*
X108254973Y-65284943D01*
X108195042Y-65425477D01*
X108160109Y-65572028D01*
X108151959Y-65721847D01*
X108105656Y-65721847D01*
X108106644Y-65611723D01*
X108119038Y-65509651D01*
X108139969Y-65430187D01*
X108174385Y-65336364D01*
X108215774Y-65247047D01*
X108258771Y-65175086D01*
X108275550Y-65150054D01*
X108280659Y-65135208D01*
X108267795Y-65136647D01*
X108257829Y-65139585D01*
X108213167Y-65146911D01*
X108144829Y-65153800D01*
X108057677Y-65160048D01*
X107956573Y-65165450D01*
X107846378Y-65169801D01*
X107731954Y-65172898D01*
X107618162Y-65174536D01*
X107509865Y-65174511D01*
X107411924Y-65172619D01*
X107174094Y-65162300D01*
X106863089Y-65139390D01*
X106577023Y-65106688D01*
X106316914Y-65064341D01*
X106083780Y-65012496D01*
X105878640Y-64951300D01*
X105791133Y-64921112D01*
X105791133Y-64993997D01*
X105790534Y-65030156D01*
X105788470Y-65093322D01*
X105785282Y-65169468D01*
X105781333Y-65249141D01*
X105771533Y-65431401D01*
X105691423Y-65431401D01*
X105707430Y-65428802D01*
X105710519Y-65101848D01*
X105711847Y-64980016D01*
X105713199Y-64878468D01*
X105784954Y-64878468D01*
X105822285Y-64892622D01*
X105856578Y-64904757D01*
X105956861Y-64934223D01*
X106080132Y-64964115D01*
X106221195Y-64993520D01*
X106374852Y-65021526D01*
X106535907Y-65047221D01*
X106699161Y-65069694D01*
X106859418Y-65088032D01*
X107011480Y-65101322D01*
X107056520Y-65104044D01*
X107136708Y-65107487D01*
X107231225Y-65110381D01*
X107335100Y-65112685D01*
X107443360Y-65114357D01*
X107551031Y-65115356D01*
X107653143Y-65115639D01*
X107744721Y-65115166D01*
X107820793Y-65113896D01*
X107876388Y-65111786D01*
X107906531Y-65108794D01*
X107907752Y-65108560D01*
X107934020Y-65105785D01*
X107983358Y-65102084D01*
X108049173Y-65097912D01*
X108124873Y-65093724D01*
X108320387Y-65083643D01*
X108436134Y-64978132D01*
X108453997Y-64962229D01*
X108586597Y-64863209D01*
X108732571Y-64783168D01*
X108882246Y-64727539D01*
X108974417Y-64701677D01*
X108965319Y-64441522D01*
X108964036Y-64402781D01*
X108961429Y-64315946D01*
X108958367Y-64206078D01*
X108954969Y-64077817D01*
X108951355Y-63935807D01*
X108947644Y-63784689D01*
X108943956Y-63629105D01*
X108940409Y-63473697D01*
X108936706Y-63312808D01*
X108931657Y-63114531D01*
X108926453Y-62942838D01*
X108920820Y-62795489D01*
X108914486Y-62670248D01*
X108907176Y-62564876D01*
X108898616Y-62477137D01*
X108888532Y-62404792D01*
X108876651Y-62345604D01*
X108862698Y-62297335D01*
X108846400Y-62257747D01*
X108827483Y-62224603D01*
X108805673Y-62195664D01*
X108780696Y-62168694D01*
X108726962Y-62130953D01*
X108669892Y-62120361D01*
X108613074Y-62135920D01*
X108559146Y-62175675D01*
X108510746Y-62237669D01*
X108470511Y-62319946D01*
X108441078Y-62420551D01*
X108429407Y-62480154D01*
X108424519Y-62528091D01*
X108430488Y-62559010D01*
X108448824Y-62579558D01*
X108481037Y-62596380D01*
X108507579Y-62608574D01*
X108516260Y-62615508D01*
X108497896Y-62613786D01*
X108399297Y-62596062D01*
X108228341Y-62566721D01*
X108077529Y-62543268D01*
X107940591Y-62525094D01*
X107811255Y-62511589D01*
X107683251Y-62502145D01*
X107550307Y-62496154D01*
X107406153Y-62493005D01*
X107244518Y-62492091D01*
X107226224Y-62492099D01*
X107069460Y-62493053D01*
X106934890Y-62495986D01*
X106815094Y-62501448D01*
X106702649Y-62509991D01*
X106590133Y-62522166D01*
X106470124Y-62538524D01*
X106335201Y-62559616D01*
X106301640Y-62564485D01*
X106270806Y-62565491D01*
X106265846Y-62557431D01*
X106284556Y-62539425D01*
X106288510Y-62535924D01*
X106297778Y-62517750D01*
X106298601Y-62485728D01*
X106291484Y-62432025D01*
X106280208Y-62378552D01*
X106249061Y-62291787D01*
X106206881Y-62221571D01*
X106156704Y-62170626D01*
X106101566Y-62141671D01*
X106044505Y-62137427D01*
X105988557Y-62160616D01*
X105944128Y-62197442D01*
X105909596Y-62241569D01*
X105883325Y-62297609D01*
X105863665Y-62370182D01*
X105848966Y-62463906D01*
X105837579Y-62583403D01*
X105837425Y-62585428D01*
X105833610Y-62648322D01*
X105829479Y-62738047D01*
X105825120Y-62851146D01*
X105820623Y-62984160D01*
X105816076Y-63133634D01*
X105811566Y-63296110D01*
X105807182Y-63468131D01*
X105803012Y-63646239D01*
X105799145Y-63826977D01*
X105795668Y-64006888D01*
X105792670Y-64182516D01*
X105790240Y-64350402D01*
X105788465Y-64507089D01*
X105784954Y-64878468D01*
X105713199Y-64878468D01*
X105713900Y-64825810D01*
X105716475Y-64656618D01*
X105719498Y-64475932D01*
X105722894Y-64287248D01*
X105726589Y-64094058D01*
X105730509Y-63899857D01*
X105734579Y-63708138D01*
X105738725Y-63522396D01*
X105742873Y-63346125D01*
X105746947Y-63182818D01*
X105750874Y-63035970D01*
X105754580Y-62909073D01*
X105757990Y-62805624D01*
X105761029Y-62729114D01*
X105761389Y-62721296D01*
X105768179Y-62594907D01*
X105776155Y-62493918D01*
X105786285Y-62413557D01*
X105799535Y-62349051D01*
X105816873Y-62295627D01*
X105839267Y-62248513D01*
X105867684Y-62202936D01*
X105878378Y-62187609D01*
X105922435Y-62133300D01*
X105963857Y-62100231D01*
X106009531Y-62082556D01*
X106059227Y-62078810D01*
X106127307Y-62096742D01*
X106192309Y-62137149D01*
X106250100Y-62195606D01*
X106296545Y-62267687D01*
X106327509Y-62348967D01*
X106338857Y-62435021D01*
X106339436Y-62465907D01*
X106341920Y-62501184D01*
X106345671Y-62514919D01*
X106360979Y-62512132D01*
X106398124Y-62504138D01*
X106448397Y-62492762D01*
X106509997Y-62481565D01*
X106607985Y-62469993D01*
X106727786Y-62460559D01*
X106864728Y-62453366D01*
X107014142Y-62448519D01*
X107171355Y-62446121D01*
X107331697Y-62446275D01*
X107490496Y-62449086D01*
X107643081Y-62454657D01*
X107784782Y-62463092D01*
X107850069Y-62468767D01*
X107948203Y-62479782D01*
X108049546Y-62493510D01*
X108147393Y-62508878D01*
X108235038Y-62524811D01*
X108305774Y-62540236D01*
X108352894Y-62554078D01*
X108360108Y-62556333D01*
X108374507Y-62550886D01*
X108378311Y-62521388D01*
X108378715Y-62509581D01*
X108387999Y-62447885D01*
X108406970Y-62373156D01*
X108432185Y-62296193D01*
X108460199Y-62227794D01*
X108487569Y-62178758D01*
X108524452Y-62137655D01*
X108585297Y-62094426D01*
X108650456Y-62069683D01*
X108711048Y-62067836D01*
X108728238Y-62073491D01*
X108774721Y-62102552D01*
X108825947Y-62149839D01*
X108832347Y-62156811D01*
X108860560Y-62191666D01*
X108885033Y-62230755D01*
X108906096Y-62276460D01*
X108924082Y-62331163D01*
X108939323Y-62397247D01*
X108952149Y-62477093D01*
X108962893Y-62573084D01*
X108971886Y-62687601D01*
X108979459Y-62823027D01*
X108985945Y-62981745D01*
X108991674Y-63166135D01*
X108996979Y-63378580D01*
X108997769Y-63411523D01*
X109000971Y-63521780D01*
X109004676Y-63620437D01*
X109008685Y-63703726D01*
X109012798Y-63767882D01*
X109016817Y-63809138D01*
X109020542Y-63823727D01*
X109029300Y-63824304D01*
X109063896Y-63827558D01*
X109117123Y-63833040D01*
X109181697Y-63840014D01*
X109326507Y-63860665D01*
X109488958Y-63894879D01*
X109638548Y-63938171D01*
X109766673Y-63988360D01*
X109905805Y-64063520D01*
X110051575Y-64164682D01*
X110187885Y-64281661D01*
X110307769Y-64408440D01*
X110404263Y-64539005D01*
X110480075Y-64665583D01*
X110563881Y-64829850D01*
X110628344Y-64992758D01*
X110675025Y-65160212D01*
X110705483Y-65338115D01*
X110716823Y-65477576D01*
X110721279Y-65532374D01*
X110722402Y-65622626D01*
X110723974Y-65748892D01*
X110721879Y-65823262D01*
G37*
G36*
X108302217Y-66616357D02*
G01*
X108294608Y-66623966D01*
X108286999Y-66616357D01*
X108294608Y-66608748D01*
X108302217Y-66616357D01*
G37*
G36*
X108728341Y-66555482D02*
G01*
X108720731Y-66563092D01*
X108713122Y-66555482D01*
X108720731Y-66547873D01*
X108728341Y-66555482D01*
G37*
G36*
X108606591Y-66509826D02*
G01*
X108598982Y-66517436D01*
X108591372Y-66509826D01*
X108598982Y-66502217D01*
X108606591Y-66509826D01*
G37*
G36*
X108150030Y-66281546D02*
G01*
X108142421Y-66289155D01*
X108134812Y-66281546D01*
X108142421Y-66273936D01*
X108150030Y-66281546D01*
G37*
G36*
X108865309Y-65824985D02*
G01*
X108857700Y-65832594D01*
X108850090Y-65824985D01*
X108857700Y-65817376D01*
X108865309Y-65824985D01*
G37*
G36*
X108667466Y-65764110D02*
G01*
X108659857Y-65771720D01*
X108652247Y-65764110D01*
X108659857Y-65756501D01*
X108667466Y-65764110D01*
G37*
G36*
X108728341Y-65535830D02*
G01*
X108720731Y-65543439D01*
X108713122Y-65535830D01*
X108720731Y-65528220D01*
X108728341Y-65535830D01*
G37*
G36*
X108804434Y-65383643D02*
G01*
X108796825Y-65391252D01*
X108789215Y-65383643D01*
X108796825Y-65376034D01*
X108804434Y-65383643D01*
G37*
G36*
X108834872Y-65368424D02*
G01*
X108827262Y-65376034D01*
X108819653Y-65368424D01*
X108827262Y-65360815D01*
X108834872Y-65368424D01*
G37*
G36*
X108449348Y-63909331D02*
G01*
X108443252Y-63967708D01*
X108431848Y-64016857D01*
X108411942Y-64068699D01*
X108380334Y-64135161D01*
X108338566Y-64210127D01*
X108240941Y-64338914D01*
X108118094Y-64452013D01*
X107969656Y-64549688D01*
X107795263Y-64632203D01*
X107594548Y-64699819D01*
X107562557Y-64706884D01*
X107511293Y-64713004D01*
X107442864Y-64716445D01*
X107352869Y-64717410D01*
X107236909Y-64716098D01*
X107150385Y-64714328D01*
X107068879Y-64711736D01*
X107005665Y-64707885D01*
X106954117Y-64701977D01*
X106907605Y-64693216D01*
X106859500Y-64680804D01*
X106803176Y-64663944D01*
X106797854Y-64662295D01*
X106626955Y-64602223D01*
X106482913Y-64535734D01*
X106362505Y-64460474D01*
X106262507Y-64374091D01*
X106179695Y-64274230D01*
X106110846Y-64158538D01*
X106062850Y-64047507D01*
X106028068Y-63910050D01*
X106025691Y-63847415D01*
X106052397Y-63847415D01*
X106071214Y-63977273D01*
X106119084Y-64105788D01*
X106125769Y-64119075D01*
X106205137Y-64246651D01*
X106304083Y-64355081D01*
X106427456Y-64449775D01*
X106452680Y-64466064D01*
X106555623Y-64527187D01*
X106651473Y-64573084D01*
X106752076Y-64608842D01*
X106869276Y-64639551D01*
X106908252Y-64647829D01*
X107010586Y-64664609D01*
X107120695Y-64677105D01*
X107229244Y-64684584D01*
X107326896Y-64686313D01*
X107404314Y-64681559D01*
X107495425Y-64665270D01*
X107603026Y-64638131D01*
X107715291Y-64603464D01*
X107823518Y-64564196D01*
X107919003Y-64523253D01*
X107993042Y-64483563D01*
X108078549Y-64425096D01*
X108202070Y-64319295D01*
X108298844Y-64205911D01*
X108368260Y-64086449D01*
X108409710Y-63962411D01*
X108422584Y-63835300D01*
X108406274Y-63706620D01*
X108360170Y-63577874D01*
X108335106Y-63529336D01*
X108259130Y-63417376D01*
X108161695Y-63317280D01*
X108038347Y-63224153D01*
X107981783Y-63188139D01*
X107867453Y-63125525D01*
X107746477Y-63074200D01*
X107606961Y-63028778D01*
X107603067Y-63027653D01*
X107555513Y-63015042D01*
X107510291Y-63006091D01*
X107460849Y-63000236D01*
X107400636Y-62996914D01*
X107323100Y-62995562D01*
X107221690Y-62995613D01*
X107197414Y-62995776D01*
X107073602Y-62998649D01*
X106970889Y-63005868D01*
X106881422Y-63018872D01*
X106797347Y-63039100D01*
X106710808Y-63067991D01*
X106613950Y-63106986D01*
X106484621Y-63171242D01*
X106353491Y-63259967D01*
X106244450Y-63361404D01*
X106158660Y-63473209D01*
X106097281Y-63593041D01*
X106061473Y-63718557D01*
X106052397Y-63847415D01*
X106025691Y-63847415D01*
X106022962Y-63775501D01*
X106047504Y-63641828D01*
X106101665Y-63506997D01*
X106119804Y-63474177D01*
X106194615Y-63372223D01*
X106292824Y-63274063D01*
X106409115Y-63183513D01*
X106538177Y-63104390D01*
X106674695Y-63040513D01*
X106813356Y-62995698D01*
X106863129Y-62984367D01*
X107022964Y-62958601D01*
X107190297Y-62945634D01*
X107356403Y-62945580D01*
X107512560Y-62958555D01*
X107650042Y-62984673D01*
X107668711Y-62989664D01*
X107848738Y-63050443D01*
X108007709Y-63127953D01*
X108144414Y-63220856D01*
X108257643Y-63327815D01*
X108346184Y-63447495D01*
X108408827Y-63578559D01*
X108444360Y-63719670D01*
X108449928Y-63835300D01*
X108451574Y-63869491D01*
X108449348Y-63909331D01*
G37*
G36*
X106898849Y-63813177D02*
G01*
X106905682Y-63819145D01*
X106983378Y-63866674D01*
X107077429Y-63895825D01*
X107180063Y-63905768D01*
X107283510Y-63895670D01*
X107379999Y-63864699D01*
X107424751Y-63845250D01*
X107460209Y-63832217D01*
X107476115Y-63829580D01*
X107476847Y-63834559D01*
X107461509Y-63852423D01*
X107429057Y-63876447D01*
X107386640Y-63902120D01*
X107341409Y-63924930D01*
X107300514Y-63940367D01*
X107260575Y-63948745D01*
X107173415Y-63953887D01*
X107084228Y-63945569D01*
X107008047Y-63924601D01*
X106969455Y-63905994D01*
X106919674Y-63873684D01*
X106884801Y-63840703D01*
X106871660Y-63812654D01*
X106872095Y-63802457D01*
X106878568Y-63797074D01*
X106898849Y-63813177D01*
G37*
G36*
X107930719Y-63609098D02*
G01*
X107956019Y-63636366D01*
X107965370Y-63677663D01*
X107955236Y-63724192D01*
X107944338Y-63742347D01*
X107914650Y-63761969D01*
X107883491Y-63754761D01*
X107859161Y-63721001D01*
X107851868Y-63694909D01*
X107853209Y-63648991D01*
X107872456Y-63615817D01*
X107906531Y-63603056D01*
X107930719Y-63609098D01*
G37*
G36*
X106582482Y-63573691D02*
G01*
X106604193Y-63602772D01*
X106612942Y-63648712D01*
X106607778Y-63686669D01*
X106594680Y-63714152D01*
X106592851Y-63715927D01*
X106561285Y-63731615D01*
X106532787Y-63722894D01*
X106511809Y-63695424D01*
X106502805Y-63654860D01*
X106510228Y-63606860D01*
X106527406Y-63577203D01*
X106554617Y-63564244D01*
X106582482Y-63573691D01*
G37*
G36*
X96680330Y-64902088D02*
G01*
X96666212Y-64943868D01*
X96625948Y-65129113D01*
X96613296Y-65308385D01*
X96612030Y-65367495D01*
X96610570Y-65435641D01*
X96578997Y-65540585D01*
X96503712Y-65634325D01*
X96471726Y-65669663D01*
X96396290Y-65805346D01*
X96351949Y-65998336D01*
X96324287Y-66169384D01*
X96233521Y-66538149D01*
X96107110Y-66840573D01*
X95940527Y-67088643D01*
X95921008Y-67112592D01*
X95889557Y-67159249D01*
X95866171Y-67215930D01*
X95849217Y-67295662D01*
X95837062Y-67411470D01*
X95828074Y-67576380D01*
X95820620Y-67803417D01*
X95813067Y-68105605D01*
X95792004Y-68995412D01*
X95917356Y-69088089D01*
X95985209Y-69151730D01*
X96040612Y-69265070D01*
X96024902Y-69370974D01*
X95936952Y-69448688D01*
X95872897Y-69468852D01*
X95765621Y-69465942D01*
X95611409Y-69423873D01*
X95502162Y-69386524D01*
X95410815Y-69345655D01*
X95346519Y-69292928D01*
X95305262Y-69215629D01*
X95283032Y-69101043D01*
X95275818Y-68936457D01*
X95279609Y-68709155D01*
X95290394Y-68406424D01*
X95298876Y-68170558D01*
X95306166Y-67945424D01*
X95311103Y-67765829D01*
X95313297Y-67645968D01*
X95312364Y-67600036D01*
X95306068Y-67599606D01*
X95239509Y-67615857D01*
X95116548Y-67653365D01*
X94957038Y-67706200D01*
X94929385Y-67715565D01*
X94745053Y-67770945D01*
X94573745Y-67804967D01*
X94381795Y-67822667D01*
X94135538Y-67829081D01*
X93661527Y-67833160D01*
X93661493Y-68234406D01*
X93661384Y-68271324D01*
X93656988Y-68509983D01*
X93647453Y-68756162D01*
X93634552Y-68962010D01*
X93607646Y-69288368D01*
X93767888Y-69373044D01*
X93821425Y-69405616D01*
X93925466Y-69510632D01*
X93962991Y-69625093D01*
X93925567Y-69729913D01*
X93878402Y-69761579D01*
X93754658Y-69789684D01*
X93594898Y-69792921D01*
X93428527Y-69771490D01*
X93284952Y-69725587D01*
X93228628Y-69695285D01*
X93175099Y-69650119D01*
X93136110Y-69585066D01*
X93109788Y-69488753D01*
X93094264Y-69349804D01*
X93087665Y-69156846D01*
X93088121Y-68898504D01*
X93093761Y-68563405D01*
X93110243Y-67745996D01*
X92759339Y-67692160D01*
X92709347Y-67684602D01*
X92554245Y-67662755D01*
X92443648Y-67649656D01*
X92398842Y-67647918D01*
X92398242Y-67649080D01*
X92392074Y-67703117D01*
X92385166Y-67819865D01*
X92378902Y-67976496D01*
X92375617Y-68091069D01*
X92378141Y-68213396D01*
X92397320Y-68288688D01*
X92441472Y-68342009D01*
X92518914Y-68398423D01*
X92525447Y-68402964D01*
X92634265Y-68517030D01*
X92645759Y-68579628D01*
X92657164Y-68641745D01*
X92593007Y-68771393D01*
X92539923Y-68803170D01*
X92417743Y-68819285D01*
X92266045Y-68806106D01*
X92114682Y-68766934D01*
X91993503Y-68705072D01*
X91972834Y-68688802D01*
X91926594Y-68639825D01*
X91896059Y-68574445D01*
X91879621Y-68478370D01*
X91876737Y-68375301D01*
X91950496Y-68375301D01*
X91955569Y-68484629D01*
X91973794Y-68554489D01*
X92006610Y-68603532D01*
X92021747Y-68618000D01*
X92124704Y-68680515D01*
X92256658Y-68728702D01*
X92374271Y-68751810D01*
X92452644Y-68740149D01*
X92522258Y-68685728D01*
X92572231Y-68631160D01*
X92583649Y-68579628D01*
X92534751Y-68514205D01*
X92470834Y-68457637D01*
X92373696Y-68403585D01*
X92350030Y-68394280D01*
X92317812Y-68363521D01*
X92301336Y-68300543D01*
X92297285Y-68186751D01*
X92302341Y-68003550D01*
X92307260Y-67853721D01*
X92306333Y-67728393D01*
X92293701Y-67657750D01*
X92265377Y-67623134D01*
X92217373Y-67605883D01*
X92178495Y-67597099D01*
X92098653Y-67592930D01*
X92044302Y-67625923D01*
X92008610Y-67708833D01*
X91984747Y-67854412D01*
X91965882Y-68075413D01*
X91957136Y-68207853D01*
X91950496Y-68375301D01*
X91876737Y-68375301D01*
X91875674Y-68337309D01*
X91882611Y-68136970D01*
X91898824Y-67863063D01*
X91919618Y-67540188D01*
X91543591Y-67418888D01*
X91407170Y-67371858D01*
X91194612Y-67289553D01*
X90982368Y-67198730D01*
X90791167Y-67108812D01*
X90641738Y-67029222D01*
X90554809Y-66969385D01*
X90538542Y-66955255D01*
X90488663Y-66929110D01*
X90482745Y-66955586D01*
X90477381Y-67056966D01*
X90474568Y-67220869D01*
X90474519Y-67432987D01*
X90477447Y-67679012D01*
X90490484Y-68428971D01*
X90641242Y-68491961D01*
X90744331Y-68551871D01*
X90821394Y-68653413D01*
X90827625Y-68761461D01*
X90768831Y-68859315D01*
X90650815Y-68930275D01*
X90479383Y-68957639D01*
X90453841Y-68956915D01*
X90319794Y-68935964D01*
X90187580Y-68894100D01*
X90085726Y-68842200D01*
X90042758Y-68791142D01*
X90041527Y-68765450D01*
X90037369Y-68661786D01*
X90030841Y-68490967D01*
X90022416Y-68265523D01*
X90012564Y-67997980D01*
X90001756Y-67700868D01*
X89989209Y-67375610D01*
X89975935Y-67095731D01*
X89961670Y-66877924D01*
X89945061Y-66708613D01*
X89924753Y-66574222D01*
X89899393Y-66461177D01*
X89867627Y-66355903D01*
X89814326Y-66156641D01*
X89767024Y-65863961D01*
X89744333Y-65556588D01*
X89745563Y-65468147D01*
X89830020Y-65468147D01*
X89856386Y-65884353D01*
X89956517Y-66311806D01*
X89979354Y-66389269D01*
X90005658Y-66504912D01*
X90027026Y-66642548D01*
X90044742Y-66815415D01*
X90060087Y-67036750D01*
X90074343Y-67319791D01*
X90088793Y-67677776D01*
X90094448Y-67826358D01*
X90107213Y-68134471D01*
X90119219Y-68369273D01*
X90131556Y-68541326D01*
X90145314Y-68661191D01*
X90161584Y-68739431D01*
X90181455Y-68786606D01*
X90206019Y-68813280D01*
X90206953Y-68813954D01*
X90308506Y-68851045D01*
X90452852Y-68867131D01*
X90597574Y-68860744D01*
X90700259Y-68830412D01*
X90728045Y-68805807D01*
X90745228Y-68725906D01*
X90695631Y-68635812D01*
X90587840Y-68556444D01*
X90446945Y-68485978D01*
X90425039Y-67681951D01*
X90418744Y-67480542D01*
X90405802Y-67200900D01*
X90389675Y-66999468D01*
X90369790Y-66869955D01*
X90345577Y-66806071D01*
X90339988Y-66784998D01*
X90392734Y-66800476D01*
X90501782Y-66858119D01*
X90788869Y-67016044D01*
X91183726Y-67200043D01*
X91588889Y-67346820D01*
X91640444Y-67362708D01*
X91843201Y-67419756D01*
X92079841Y-67480190D01*
X92330531Y-67539591D01*
X92575441Y-67593538D01*
X92794739Y-67637613D01*
X92968592Y-67667397D01*
X93077170Y-67678470D01*
X93176389Y-67678820D01*
X93176389Y-69572735D01*
X93306491Y-69640013D01*
X93354939Y-69659854D01*
X93501344Y-69693847D01*
X93662336Y-69707292D01*
X93748573Y-69706344D01*
X93839147Y-69696410D01*
X93874101Y-69667997D01*
X93873987Y-69611834D01*
X93823913Y-69523692D01*
X93717581Y-69446469D01*
X93575267Y-69376563D01*
X93574530Y-68913542D01*
X93574954Y-68812654D01*
X93579893Y-68556819D01*
X93589220Y-68304386D01*
X93601533Y-68097743D01*
X93629274Y-67744965D01*
X94119411Y-67741089D01*
X94245705Y-67739254D01*
X94425265Y-67730916D01*
X94586421Y-67712024D01*
X94749193Y-67678043D01*
X94933599Y-67624437D01*
X95159661Y-67546670D01*
X95447396Y-67440206D01*
X95481350Y-67427825D01*
X95509162Y-67424944D01*
X95462549Y-67467600D01*
X95458026Y-67471611D01*
X95432453Y-67509431D01*
X95412235Y-67576344D01*
X95395997Y-67684167D01*
X95382364Y-67844719D01*
X95369960Y-68069816D01*
X95357411Y-68371278D01*
X95325316Y-69214391D01*
X95505866Y-69306501D01*
X95638280Y-69361572D01*
X95789369Y-69394135D01*
X95906745Y-69386332D01*
X95968816Y-69336752D01*
X95972215Y-69280831D01*
X95917664Y-69185581D01*
X95803027Y-69100112D01*
X95789407Y-69092266D01*
X95764252Y-69068574D01*
X95746129Y-69027048D01*
X95734137Y-68955965D01*
X95727378Y-68843600D01*
X95724951Y-68678229D01*
X95725959Y-68448127D01*
X95729500Y-68141570D01*
X95741314Y-67227910D01*
X95891639Y-67018668D01*
X95949533Y-66933506D01*
X96044549Y-66775910D01*
X96111902Y-66642042D01*
X96153465Y-66523816D01*
X96211070Y-66302175D01*
X96260218Y-66050906D01*
X96294446Y-65804551D01*
X96307292Y-65597653D01*
X96307136Y-65564064D01*
X96302952Y-65492320D01*
X96403467Y-65492320D01*
X96413604Y-65574933D01*
X96424279Y-65597653D01*
X96435004Y-65620481D01*
X96472656Y-65600149D01*
X96482472Y-65587411D01*
X96514754Y-65494596D01*
X96527778Y-65367495D01*
X96527686Y-65338361D01*
X96522418Y-65245934D01*
X96502432Y-65224450D01*
X96458588Y-65259666D01*
X96415082Y-65337553D01*
X96403467Y-65492320D01*
X96302952Y-65492320D01*
X96300438Y-65449206D01*
X96279313Y-65401335D01*
X96237539Y-65403095D01*
X96201089Y-65415574D01*
X96133919Y-65429861D01*
X96131032Y-65431115D01*
X96118764Y-65484255D01*
X96115150Y-65600033D01*
X96121039Y-65756891D01*
X96125626Y-65837916D01*
X96126606Y-65978056D01*
X96127585Y-66118082D01*
X96100676Y-66331997D01*
X96041972Y-66494312D01*
X95948542Y-66619674D01*
X95885622Y-66676928D01*
X95772502Y-66737216D01*
X95624313Y-66752778D01*
X95519858Y-66747019D01*
X95415446Y-66709962D01*
X95323159Y-66622016D01*
X95317131Y-66614656D01*
X95234676Y-66475262D01*
X95184878Y-66324360D01*
X95156625Y-66157465D01*
X94873073Y-66156634D01*
X94589521Y-66155802D01*
X94541843Y-66385465D01*
X94521560Y-66468405D01*
X94426547Y-66685146D01*
X94287518Y-66827600D01*
X94107297Y-66893626D01*
X93888707Y-66881081D01*
X93814418Y-66859854D01*
X93639863Y-66754904D01*
X93520968Y-66583503D01*
X93457148Y-66344536D01*
X93454260Y-66249274D01*
X93504001Y-66249274D01*
X93550407Y-66472303D01*
X93645974Y-66651812D01*
X93792307Y-66774080D01*
X93854873Y-66801676D01*
X94044977Y-66834470D01*
X94222556Y-66796380D01*
X94363454Y-66690922D01*
X94375521Y-66671608D01*
X94414903Y-66570823D01*
X94459327Y-66417345D01*
X94501293Y-66235932D01*
X94536191Y-66060113D01*
X94544097Y-66008891D01*
X94616768Y-66008891D01*
X94662126Y-66066423D01*
X94710968Y-66080598D01*
X94840616Y-66094479D01*
X94977215Y-66087681D01*
X95089335Y-66063010D01*
X95145547Y-66023272D01*
X95153937Y-66000549D01*
X95159168Y-65959948D01*
X95128308Y-65935501D01*
X95044116Y-65919089D01*
X94889353Y-65902589D01*
X94800992Y-65894861D01*
X94695240Y-65893922D01*
X94641918Y-65913990D01*
X94618619Y-65959799D01*
X94616768Y-66008891D01*
X94544097Y-66008891D01*
X94555144Y-65937315D01*
X94555416Y-65859138D01*
X94536935Y-65804166D01*
X94499626Y-65750982D01*
X94453249Y-65665924D01*
X94443743Y-65557139D01*
X94471872Y-65493418D01*
X94575698Y-65396196D01*
X94727038Y-65332730D01*
X94904578Y-65303449D01*
X95087008Y-65308786D01*
X95253014Y-65349169D01*
X95381284Y-65425030D01*
X95450507Y-65536799D01*
X95454193Y-65649387D01*
X95398051Y-65773943D01*
X95289529Y-65849904D01*
X95256834Y-65862457D01*
X95221408Y-65898303D01*
X95215028Y-65959948D01*
X95213844Y-65971386D01*
X95228229Y-66106450D01*
X95277672Y-66353301D01*
X95359954Y-66548490D01*
X95470819Y-66660820D01*
X95609960Y-66689996D01*
X95777072Y-66635724D01*
X95833423Y-66602794D01*
X95935364Y-66512725D01*
X95999207Y-66390766D01*
X96032316Y-66218636D01*
X96042058Y-65978056D01*
X96041606Y-65909971D01*
X96018451Y-65593316D01*
X95955928Y-65337454D01*
X95847940Y-65124433D01*
X95688394Y-64936299D01*
X95645605Y-64896753D01*
X95390278Y-64723534D01*
X95106544Y-64619355D01*
X94810605Y-64584565D01*
X94518662Y-64619515D01*
X94246918Y-64724556D01*
X94011574Y-64900037D01*
X93953188Y-64961561D01*
X93777873Y-65196377D01*
X93643691Y-65456277D01*
X93552248Y-65727541D01*
X93505150Y-65996447D01*
X93504001Y-66249274D01*
X93454260Y-66249274D01*
X93447820Y-66036885D01*
X93463021Y-65743253D01*
X93283168Y-65698069D01*
X93257484Y-65691029D01*
X93108251Y-65632752D01*
X92986242Y-65560796D01*
X92869171Y-65468708D01*
X92698879Y-65647722D01*
X92680640Y-65666380D01*
X92518317Y-65788271D01*
X92365803Y-65830232D01*
X92229296Y-65799660D01*
X92114992Y-65703955D01*
X92029089Y-65550516D01*
X91977783Y-65346742D01*
X91967271Y-65100031D01*
X91973124Y-65054747D01*
X92042407Y-65054747D01*
X92049089Y-65353596D01*
X92085602Y-65510156D01*
X92159348Y-65640342D01*
X92280521Y-65731339D01*
X92345970Y-65764397D01*
X92390764Y-65782474D01*
X92404075Y-65779813D01*
X92480641Y-65739712D01*
X92583153Y-65668503D01*
X92681595Y-65588273D01*
X92745954Y-65521109D01*
X92768392Y-65485679D01*
X92784374Y-65425087D01*
X92764072Y-65346041D01*
X92703414Y-65219674D01*
X92633171Y-65024305D01*
X92617919Y-64769838D01*
X92655024Y-64616490D01*
X92867709Y-64616490D01*
X92869766Y-64686718D01*
X92919168Y-64929382D01*
X93036192Y-65117360D01*
X93223173Y-65254843D01*
X93223577Y-65255049D01*
X93392913Y-65326522D01*
X93517744Y-65334911D01*
X93619798Y-65275325D01*
X93720803Y-65142876D01*
X93790073Y-65046406D01*
X93922901Y-64892044D01*
X94063599Y-64754149D01*
X94280906Y-64564054D01*
X94180644Y-64416724D01*
X94060646Y-64274451D01*
X93859777Y-64130202D01*
X93635668Y-64052050D01*
X93405232Y-64042518D01*
X93185383Y-64104134D01*
X92993032Y-64239420D01*
X92959891Y-64274054D01*
X92900940Y-64358661D01*
X92874082Y-64461165D01*
X92867709Y-64616490D01*
X92655024Y-64616490D01*
X92678704Y-64518623D01*
X92811038Y-64287149D01*
X93010432Y-64091908D01*
X93058832Y-64062986D01*
X93222358Y-64009418D01*
X93424425Y-63981867D01*
X93631779Y-63983435D01*
X93811167Y-64017221D01*
X93889663Y-64050662D01*
X94056003Y-64163826D01*
X94198663Y-64311252D01*
X94286961Y-64464122D01*
X94293300Y-64481977D01*
X94327607Y-64547872D01*
X94382388Y-64562961D01*
X94489324Y-64538958D01*
X94564969Y-64524141D01*
X94731191Y-64510470D01*
X94905482Y-64513030D01*
X95160843Y-64531502D01*
X95179999Y-64491931D01*
X95299044Y-64491931D01*
X95347300Y-64564054D01*
X95365198Y-64590805D01*
X95514858Y-64691600D01*
X95595425Y-64742252D01*
X95744383Y-64863296D01*
X95855976Y-64987582D01*
X95939407Y-65099656D01*
X96009557Y-65151536D01*
X96091754Y-65144877D01*
X96215963Y-65088039D01*
X96362365Y-64989253D01*
X96495549Y-64812933D01*
X96556501Y-64586027D01*
X96559689Y-64544991D01*
X96540300Y-64351705D01*
X96451635Y-64201027D01*
X96284406Y-64075531D01*
X96269149Y-64067112D01*
X96039797Y-63989480D01*
X95809479Y-63995585D01*
X95592405Y-64082646D01*
X95402786Y-64247887D01*
X95313033Y-64381661D01*
X95299044Y-64491931D01*
X95179999Y-64491931D01*
X95254340Y-64338362D01*
X95255598Y-64335779D01*
X95395288Y-64140789D01*
X95590260Y-63989422D01*
X95811920Y-63903953D01*
X95823067Y-63901618D01*
X95916267Y-63872037D01*
X95954514Y-63840935D01*
X95954508Y-63840494D01*
X95920112Y-63784021D01*
X95831479Y-63694547D01*
X95707620Y-63587625D01*
X95567551Y-63478808D01*
X95430284Y-63383648D01*
X95314833Y-63317697D01*
X94979242Y-63190486D01*
X94553668Y-63107011D01*
X94124541Y-63101512D01*
X93704112Y-63171735D01*
X93304630Y-63315424D01*
X92938347Y-63530325D01*
X92617512Y-63814183D01*
X92405901Y-64083532D01*
X92228004Y-64400240D01*
X92104443Y-64730470D01*
X92042407Y-65054747D01*
X91973124Y-65054747D01*
X92003751Y-64817782D01*
X92077737Y-64545491D01*
X92235643Y-64193672D01*
X92468338Y-63850775D01*
X92649273Y-63621875D01*
X92372640Y-63616404D01*
X92098075Y-63615490D01*
X91652684Y-63639628D01*
X91272608Y-63699591D01*
X91029361Y-63773240D01*
X90946782Y-63798243D01*
X90664143Y-63938442D01*
X90413629Y-64123051D01*
X90172451Y-64387839D01*
X89990158Y-64709807D01*
X89875313Y-65073271D01*
X89830020Y-65468147D01*
X89745563Y-65468147D01*
X89748362Y-65266949D01*
X89781221Y-65027473D01*
X89844729Y-64813938D01*
X90000405Y-64478875D01*
X90205249Y-64194943D01*
X90281116Y-64108043D01*
X90330047Y-64030471D01*
X90335949Y-63958773D01*
X90308831Y-63860656D01*
X90305716Y-63850791D01*
X90277542Y-63689938D01*
X90278698Y-63542489D01*
X90325725Y-63542489D01*
X90325789Y-63684546D01*
X90361027Y-63830249D01*
X90420313Y-63970218D01*
X90581785Y-63871729D01*
X90743258Y-63773240D01*
X90636907Y-63670880D01*
X90616250Y-63650210D01*
X90547971Y-63550233D01*
X90536791Y-63435984D01*
X90578271Y-63277674D01*
X90607169Y-63158116D01*
X90609825Y-63061632D01*
X90609228Y-63059027D01*
X90581692Y-63046726D01*
X90531658Y-63096308D01*
X90470085Y-63189225D01*
X90407932Y-63306927D01*
X90356159Y-63430865D01*
X90325725Y-63542489D01*
X90278698Y-63542489D01*
X90278814Y-63527750D01*
X90304416Y-63427224D01*
X90360488Y-63292023D01*
X90433234Y-63155216D01*
X90510222Y-63037647D01*
X90579023Y-62960158D01*
X90627205Y-62943594D01*
X90644300Y-62980955D01*
X90651556Y-63095040D01*
X90640832Y-63268768D01*
X90639035Y-63286796D01*
X90626886Y-63442277D01*
X90631882Y-63539059D01*
X90658817Y-63603428D01*
X90712486Y-63661670D01*
X90797943Y-63719542D01*
X90881785Y-63726325D01*
X90883715Y-63725489D01*
X90961831Y-63698441D01*
X91095933Y-63657660D01*
X91258160Y-63611635D01*
X91381075Y-63581030D01*
X91527917Y-63555770D01*
X91691787Y-63542660D01*
X91896314Y-63539993D01*
X92165126Y-63546060D01*
X92353097Y-63551527D01*
X92542468Y-63554079D01*
X92672418Y-63549625D01*
X92759428Y-63536583D01*
X92819977Y-63513374D01*
X92870548Y-63478417D01*
X92875725Y-63474263D01*
X93051813Y-63358604D01*
X93280100Y-63242667D01*
X93527324Y-63141690D01*
X93760224Y-63070905D01*
X93761899Y-63070511D01*
X94165005Y-63013588D01*
X94572176Y-63025869D01*
X94967695Y-63102944D01*
X95335842Y-63240404D01*
X95660897Y-63433838D01*
X95927141Y-63678836D01*
X96016126Y-63771063D01*
X96100016Y-63840935D01*
X96161154Y-63891857D01*
X96293063Y-63972595D01*
X96423607Y-64048793D01*
X96589087Y-64219069D01*
X96692460Y-64431063D01*
X96708575Y-64544991D01*
X96725586Y-64665247D01*
X96680330Y-64902088D01*
G37*
D12*
X96150000Y-81600000D02*
X95550000Y-81900000D01*
X96150000Y-82200000D02*
X96150000Y-81600000D01*
X95550000Y-81900000D02*
X96150000Y-82200000D01*
X90850000Y-76650000D02*
X90850000Y-77150000D01*
X85350000Y-76650000D02*
X90850000Y-76650000D01*
X85350000Y-77150000D02*
X85350000Y-76650000D01*
X90850000Y-77150000D02*
X85350000Y-77150000D01*
X90850000Y-79150000D02*
X90850000Y-79650000D01*
X85350000Y-79150000D02*
X90850000Y-79150000D01*
X85350000Y-79650000D02*
X85350000Y-79150000D01*
X90850000Y-79650000D02*
X85350000Y-79650000D01*
X90850000Y-81650000D02*
X90850000Y-82150000D01*
X85350000Y-81650000D02*
X90850000Y-81650000D01*
X85350000Y-82150000D02*
X85350000Y-81650000D01*
X90850000Y-82150000D02*
X85350000Y-82150000D01*
X91960000Y-75760000D02*
X91960000Y-79400000D01*
X96460000Y-75760000D02*
X91960000Y-75760000D01*
X96460000Y-74340000D02*
X96460000Y-75760000D01*
X84740000Y-74340000D02*
X96460000Y-74340000D01*
X84740000Y-79400000D02*
X84740000Y-74340000D01*
X91960000Y-83040000D02*
X91960000Y-79400000D01*
X96460000Y-83040000D02*
X91960000Y-83040000D01*
X96460000Y-84460000D02*
X96460000Y-83040000D01*
X84740000Y-84460000D02*
X96460000Y-84460000D01*
X84740000Y-79400000D02*
X84740000Y-84460000D01*
X114450000Y-83000000D02*
X114450000Y-83500000D01*
X114450000Y-80500000D02*
X114450000Y-81000000D01*
X108950000Y-83500000D02*
X108950000Y-83000000D01*
X115060000Y-85810000D02*
X103340000Y-85810000D01*
X108950000Y-75500000D02*
X114450000Y-75500000D01*
X103340000Y-74610000D02*
X107840000Y-74610000D01*
X108950000Y-80500000D02*
X114450000Y-80500000D01*
X103340000Y-85810000D02*
X103340000Y-84390000D01*
X108950000Y-76000000D02*
X108950000Y-75500000D01*
X115060000Y-79500000D02*
X115060000Y-73190000D01*
X114450000Y-78000000D02*
X114450000Y-78500000D01*
X108950000Y-83000000D02*
X114450000Y-83000000D01*
X104250000Y-75750000D02*
X103650000Y-75450000D01*
X107840000Y-74610000D02*
X107840000Y-79500000D01*
X114450000Y-78500000D02*
X108950000Y-78500000D01*
X114450000Y-76000000D02*
X108950000Y-76000000D01*
X114450000Y-83500000D02*
X108950000Y-83500000D01*
X108950000Y-78000000D02*
X114450000Y-78000000D01*
X103650000Y-75450000D02*
X103650000Y-76050000D01*
X103340000Y-73190000D02*
X103340000Y-74610000D01*
X108950000Y-81000000D02*
X108950000Y-80500000D01*
X114450000Y-81000000D02*
X108950000Y-81000000D01*
X114450000Y-75500000D02*
X114450000Y-76000000D01*
X103340000Y-84390000D02*
X107840000Y-84390000D01*
X108950000Y-78500000D02*
X108950000Y-78000000D01*
X115060000Y-79500000D02*
X115060000Y-85810000D01*
X107840000Y-84390000D02*
X107840000Y-79500000D01*
X103650000Y-76050000D02*
X104250000Y-75750000D01*
X115060000Y-73190000D02*
X103340000Y-73190000D01*
%LPC*%
D13*
X94050000Y-76900000D03*
X94050000Y-79400000D03*
D14*
X94050000Y-81900000D03*
D15*
X103800000Y-96625000D03*
D16*
X101300000Y-96625000D03*
X98800000Y-96625000D03*
X96300000Y-96625000D03*
D17*
X85470000Y-86720000D03*
X88010000Y-86720000D03*
X90550000Y-86720000D03*
X93090000Y-86720000D03*
X95630000Y-86720000D03*
X98170000Y-86720000D03*
X100710000Y-86720000D03*
X103250000Y-86720000D03*
X105790000Y-86720000D03*
X108330000Y-86720000D03*
X110870000Y-86720000D03*
X113410000Y-86720000D03*
X113410000Y-71480000D03*
X110870000Y-71480000D03*
X108330000Y-71480000D03*
X105790000Y-71480000D03*
X103250000Y-71480000D03*
X100710000Y-71480000D03*
X98170000Y-71480000D03*
X95630000Y-71480000D03*
X93090000Y-71480000D03*
X90550000Y-71480000D03*
X88010000Y-71480000D03*
X85470000Y-71480000D03*
D18*
X97460000Y-62375000D03*
D16*
X99960000Y-62375000D03*
X102460000Y-62375000D03*
D19*
X105750000Y-75750000D03*
D13*
X105750000Y-78250000D03*
X105750000Y-80750000D03*
X105750000Y-83250000D03*
M02*
