M48
; DRILL file {KiCad 6.0.1-79c1e3a40b~116~ubuntu20.04.1} date lun 07 feb 2022 15:26:27
; FORMAT={-:-/ absolute / metric / decimal}
; #@! TF.CreationDate,2022-02-07T15:26:27-03:00
; #@! TF.GenerationSoftware,Kicad,Pcbnew,6.0.1-79c1e3a40b~116~ubuntu20.04.1
; #@! TF.FileFunction,Plated,1,2,PTH
FMAT,2
METRIC
; #@! TA.AperFunction,Plated,PTH,ComponentDrill
T1C0.950
; #@! TA.AperFunction,Plated,PTH,ComponentDrill
T2C1.000
; #@! TA.AperFunction,Plated,PTH,ViaDrill
T3C3.200
%
G90
G05
T1
X94.05Y-76.9
X94.05Y-79.4
X94.05Y-81.9
X96.3Y-96.625
X97.46Y-62.375
X98.8Y-96.625
X99.96Y-62.375
X101.3Y-96.625
X102.46Y-62.375
X103.8Y-96.625
X105.75Y-75.75
X105.75Y-78.25
X105.75Y-80.75
X105.75Y-83.25
T2
X85.47Y-71.48
X85.47Y-86.72
X88.01Y-71.48
X88.01Y-86.72
X90.55Y-71.48
X90.55Y-86.72
X93.09Y-71.48
X93.09Y-86.72
X95.63Y-71.48
X95.63Y-86.72
X98.17Y-71.48
X98.17Y-86.72
X100.71Y-71.48
X100.71Y-86.72
X103.25Y-71.48
X103.25Y-86.72
X105.79Y-71.48
X105.79Y-86.72
X108.33Y-71.48
X108.33Y-86.72
X110.87Y-71.48
X110.87Y-86.72
X113.41Y-71.48
X113.41Y-86.72
T3
X88.0Y-62.0
X88.0Y-96.0
X112.0Y-62.0
X112.0Y-96.0
T0
M30
